<svg fill="none" height="166" viewBox="0 0 311 166" width="311" xmlns="http://www.w3.org/2000/svg" xmlns:xlink="http://www.w3.org/1999/xlink"><linearGradient id="a"><stop offset="0" stop-color="#5f39ff"/><stop offset=".08" stop-color="#614ffe"/><stop offset=".67" stop-color="#73e9fe"/><stop offset="1" stop-color="#ffe98d"/></linearGradient><linearGradient id="b" gradientUnits="userSpaceOnUse" x1="150.456" x2="150.456" xlink:href="#a" y1="188.549" y2="30.1131"/><linearGradient id="c" gradientUnits="userSpaceOnUse" x1="197.531" x2="197.531" xlink:href="#a" y1="103.706" y2="69.29"/><linearGradient id="d" gradientUnits="userSpaceOnUse" x1="124.894" x2="182.38" y1="64.2886" y2="109.384"><stop offset="0" stop-color="#ffe98d"/><stop offset=".1" stop-color="#fed694"/><stop offset=".91" stop-color="#fc3dd3"/></linearGradient><linearGradient id="e" gradientUnits="userSpaceOnUse" x1="207.027" x2="207.027" xlink:href="#a" y1="59.6418" y2="31.4031"/><linearGradient id="f" gradientUnits="userSpaceOnUse" x1="97.9809" x2="86.7836" xlink:href="#a" y1="75.7821" y2="72.9115"/><linearGradient id="g" gradientUnits="userSpaceOnUse" x1="156.923" x2="156.923" xlink:href="#a" y1="200.576" y2="2.49126"/><linearGradient id="h" gradientUnits="userSpaceOnUse" x1="128.023" x2="128.023" xlink:href="#a" y1="38.2298" y2="14.2858"/><linearGradient id="i" gradientUnits="userSpaceOnUse" x1="110.281" x2="110.281" xlink:href="#a" y1="148.369" y2="117.625"/><clipPath id="j"><path d="m87.4639 16h136.072v134h-136.072z"/></clipPath><g clip-path="url(#j)"><path d="m172.34 148.097-63.91-18.274.968-.862 94.907-84.5621-112.7659 30.3682-.3687-1.377 118.5786-31.934-98.438 87.7079 61.419 17.564z" fill="url(#b)"/><path d="m200.899 86.7058 8.207-3.3694-8.207-3.3695-3.366-8.213-3.367 8.213-8.208 3.3695 8.208 3.3694 3.367 8.213z" fill="url(#c)"/><path d="m180.789 111.028c-22.608 0-40.936-18.3431-40.936-40.9717 0-15.9994 9.184-29.8209 22.545-36.567-.45-.0126-.887-.0684-1.34-.0684-26.694 0-48.335 21.6584-48.335 48.3745 0 26.7166 21.641 48.3746 48.335 48.3746 18.808 0 35.068-10.774 43.059-26.471-6.622 4.606-14.652 7.325-23.326 7.325z" fill="url(#d)"/><path d="m207.028 52.4319c5.244 0 9.496-4.2549 9.496-9.5035 0-5.2487-4.252-9.5036-9.496-9.5036s-9.496 4.2549-9.496 9.5036c0 5.2486 4.252 9.5035 9.496 9.5035z" fill="url(#e)"/><path d="m95.1224 75.0478c.5339-2.0827-.7203-4.2042-2.8013-4.7386s-4.2008.7208-4.7347 2.8035.7202 4.2043 2.8012 4.7386c2.081.5344 4.2008-.7208 4.7348-2.8035z" fill="url(#f)"/><path d="m156.927 150c-8.992 0-17.714-1.762-25.928-5.24-7.931-3.357-15.055-8.164-21.173-14.286-6.117-6.121-10.9202-13.251-14.2743-21.188-3.4728-8.219-5.2353-16.9502-5.2353-25.9497 0-8.9996 1.7607-17.7292 5.2353-25.9494 3.3541-7.9376 8.1573-15.0671 14.2743-21.1904 6.116-6.1215 13.24-10.9291 21.173-14.2859 8.212-3.4756 16.936-5.2377 25.928-5.2377s17.715 1.7621 25.928 5.2395c7.932 3.3568 15.055 8.1644 21.174 14.2859 6.118 6.1215 10.92 13.251 14.274 21.1904 3.473 8.2184 5.235 16.9498 5.235 25.9494 0 8.9995-1.761 17.7289-5.235 25.9489-3.354 7.938-8.158 15.068-14.274 21.189-6.117 6.122-13.241 10.929-21.174 14.286-8.211 3.476-16.936 5.239-25.928 5.239zm0-131.9016c-8.8 0-17.337 1.7243-25.372 5.1261-7.762 3.2867-14.733 7.9899-20.72 13.9818s-10.686 12.9684-13.9705 20.7368c-3.399 8.042-5.1219 16.5862-5.1219 25.3932s1.7229 17.3507 5.1219 25.3927c3.2825 7.769 7.9835 14.745 13.9705 20.737s12.958 10.695 20.72 13.982c8.035 3.402 16.572 5.126 25.372 5.126s17.337-1.724 25.373-5.126c7.762-3.285 14.733-7.99 20.72-13.982s10.686-12.968 13.97-20.737c3.399-8.042 5.122-16.5857 5.122-25.3927s-1.723-17.3512-5.122-25.3932c-3.284-7.7684-7.983-14.7449-13.97-20.7368s-12.958-10.6951-20.72-13.9818c-8.036-3.4018-16.573-5.1261-25.373-5.1261z" fill="url(#g)"/><path d="m128.024 32.1164c4.447 0 8.051-3.6078 8.051-8.0582s-3.604-8.0582-8.051-8.0582-8.052 3.6078-8.052 8.0582 3.605 8.0582 8.052 8.0582z" fill="url(#h)"/><path d="m99.9434 130.174c0-5.715 4.6296-10.348 10.3376-10.348s10.339 4.633 10.339 10.348-4.629 10.346-10.339 10.346-10.3376-4.633-10.3376-10.346z" fill="url(#i)"/></g></svg>