<svg width="1063" height="1062" viewBox="0 0 1063 1062" fill="none" xmlns="http://www.w3.org/2000/svg">
<g filter="url(#filter0_di_5520_39244)">
<path d="M826.466 309.334V544.402C826.501 569.045 823.423 593.593 817.307 617.465C816.678 619.902 816.049 622.339 815.342 624.736C797.87 686.507 760.708 740.887 709.501 779.614C658.294 818.34 595.843 839.296 531.636 839.296C467.429 839.296 404.977 818.34 353.771 779.614C302.564 740.887 265.401 686.507 247.93 624.736C247.183 622.142 246.476 619.509 245.807 616.876C239.801 593.187 236.777 568.84 236.805 544.402V309.334C236.805 293.501 243.096 278.316 254.295 267.12C265.493 255.924 280.681 249.634 296.518 249.634H766.753C782.59 249.634 797.779 255.924 808.977 267.12C820.175 278.316 826.466 293.501 826.466 309.334Z" fill="url(#paint0_radial_5520_39244)"/>
</g>
<path d="M416.552 414.075L288.893 486.83L292.837 493.751L420.497 420.996L416.552 414.075Z" fill="#42210B"/>
<path d="M313.975 491.79L301.195 469.365L294.281 473.305L307.061 495.73L313.975 491.79Z" fill="#42210B"/>
<path d="M339.226 477.352L326.445 454.927L319.532 458.867L332.312 481.292L339.226 477.352Z" fill="#42210B"/>
<path d="M364.48 463.006L351.7 440.581L344.787 444.521L357.567 466.946L364.48 463.006Z" fill="#42210B"/>
<path d="M389.695 448.588L376.915 426.163L370.001 430.103L382.781 452.528L389.695 448.588Z" fill="#42210B"/>
<path d="M414.985 434.222L402.204 411.797L395.291 415.737L408.071 438.162L414.985 434.222Z" fill="#42210B"/>
<g filter="url(#filter1_ii_5520_39244)">
<path d="M236.807 419.653H201.427V488.447H236.807V419.653Z" fill="#626262"/>
</g>
<g filter="url(#filter2_ii_5520_39244)">
<path d="M861.848 488.458H826.468V419.664H861.848V488.458Z" fill="#626262"/>
</g>
<g filter="url(#filter3_ii_5520_39244)">
<path d="M194.438 405.899H145.518C141.658 405.899 138.529 409.493 138.529 413.925V494.185C138.529 498.617 141.658 502.211 145.518 502.211H194.438C198.298 502.211 201.426 498.617 201.426 494.185V413.925C201.426 409.493 198.298 405.899 194.438 405.899Z" fill="#626262"/>
</g>
<g filter="url(#filter4_ii_5520_39244)">
<path d="M917.755 502.212H868.835C864.976 502.212 861.847 498.619 861.847 494.186V413.926C861.847 409.494 864.976 405.901 868.835 405.901H917.755C921.615 405.901 924.744 409.494 924.744 413.926V494.186C924.744 498.619 921.615 502.212 917.755 502.212Z" fill="#626262"/>
</g>
<g filter="url(#filter5_dii_5520_39244)">
<path d="M838.261 294.346V365.703C838.293 368.24 837.318 370.687 835.55 372.51C833.781 374.333 831.363 375.385 828.82 375.437C791.648 375.437 791.648 337.403 754.475 337.403C717.303 337.403 717.342 375.437 680.17 375.437C642.997 375.437 643.037 337.403 605.864 337.403C568.692 337.403 568.731 375.437 531.598 375.437C494.465 375.437 494.465 337.403 457.293 337.403C420.12 337.403 420.16 375.437 383.027 375.437C345.893 375.437 345.854 337.403 308.721 337.403C271.588 337.403 271.588 375.437 234.455 375.437C231.913 375.385 229.494 374.333 227.725 372.51C225.957 370.687 224.983 368.24 225.014 365.703V294.346C225.014 254.467 252.825 222.125 287.126 222.125H776.031C810.332 222.125 838.261 254.467 838.261 294.346Z" fill="#6D340B"/>
</g>
<g filter="url(#filter6_d_5520_39244)">
<path d="M431.886 569.039C454.954 569.039 473.654 550.339 473.654 527.272C473.654 504.204 454.954 485.504 431.886 485.504C408.819 485.504 390.119 504.204 390.119 527.272C390.119 550.339 408.819 569.039 431.886 569.039Z" fill="#1B1B1B"/>
</g>
<g filter="url(#filter7_d_5520_39244)">
<path d="M631.388 569.039C654.456 569.039 673.156 550.339 673.156 527.272C673.156 504.204 654.456 485.504 631.388 485.504C608.32 485.504 589.62 504.204 589.62 527.272C589.62 550.339 608.32 569.039 631.388 569.039Z" fill="#1B1B1B"/>
</g>
<g filter="url(#filter8_dd_5520_39244)">
<path d="M652.699 679.068C645.342 691.137 628.195 700.255 606.255 706.422C593.638 709.864 580.769 712.314 567.767 713.749C543.531 716.528 519.068 716.739 494.787 714.379C483.079 713.293 471.463 711.376 460.028 708.643C437.455 703.106 419.743 694.453 411.985 682.616C398.968 662.723 411.985 630.926 435.291 621.643C441.821 619.072 448.968 618.483 455.833 619.952C464.223 621.477 473.246 625.025 484.732 628.307C498.163 632.218 512.032 634.446 526.017 634.938C545.227 635.628 564.424 633.255 582.882 627.909C592.705 624.811 602.712 622.331 612.847 620.482C620.069 619.324 627.473 620.328 634.122 623.367C654.497 633.148 663.786 660.866 652.699 679.068Z" fill="url(#paint1_linear_5520_39244)"/>
</g>
<g filter="url(#filter9_di_5520_39244)">
<path d="M616.951 642.082C617.257 643.739 616.121 645.317 614.453 645.554L589.69 649.069C588.119 649.293 586.65 648.238 586.36 646.678L582.766 627.391C592.632 624.266 602.684 621.764 612.863 619.898L616.951 642.082Z" fill="#D9D9D9"/>
</g>
<g filter="url(#filter10_di_5520_39244)">
<path d="M492.299 689.379C493.738 689.608 494.796 690.849 494.796 692.306V714.53C483.092 713.441 471.481 711.52 460.051 708.782L464.1 687.779C464.403 686.208 465.898 685.16 467.478 685.413L492.299 689.379Z" fill="#D9D9D9"/>
</g>
<defs>
<filter id="filter0_di_5520_39244" x="232.853" y="238.765" width="597.566" height="608.435" filterUnits="userSpaceOnUse" color-interpolation-filters="sRGB">
<feFlood flood-opacity="0" result="BackgroundImageFix"/>
<feColorMatrix in="SourceAlpha" type="matrix" values="0 0 0 0 0 0 0 0 0 0 0 0 0 0 0 0 0 0 127 0" result="hardAlpha"/>
<feOffset dy="3.95217"/>
<feGaussianBlur stdDeviation="1.97609"/>
<feComposite in2="hardAlpha" operator="out"/>
<feColorMatrix type="matrix" values="0 0 0 0 0 0 0 0 0 0 0 0 0 0 0 0 0 0 0.25 0"/>
<feBlend mode="normal" in2="BackgroundImageFix" result="effect1_dropShadow_5520_39244"/>
<feBlend mode="normal" in="SourceGraphic" in2="effect1_dropShadow_5520_39244" result="shape"/>
<feColorMatrix in="SourceAlpha" type="matrix" values="0 0 0 0 0 0 0 0 0 0 0 0 0 0 0 0 0 0 127 0" result="hardAlpha"/>
<feOffset dy="-10.8685"/>
<feGaussianBlur stdDeviation="23.219"/>
<feComposite in2="hardAlpha" operator="arithmetic" k2="-1" k3="1"/>
<feColorMatrix type="matrix" values="0 0 0 0 0 0 0 0 0 0 0 0 0 0 0 0 0 0 0.25 0"/>
<feBlend mode="normal" in2="shape" result="effect2_innerShadow_5520_39244"/>
</filter>
<filter id="filter1_ii_5520_39244" x="197.475" y="406.809" width="39.3318" height="92.507" filterUnits="userSpaceOnUse" color-interpolation-filters="sRGB">
<feFlood flood-opacity="0" result="BackgroundImageFix"/>
<feBlend mode="normal" in="SourceGraphic" in2="BackgroundImageFix" result="shape"/>
<feColorMatrix in="SourceAlpha" type="matrix" values="0 0 0 0 0 0 0 0 0 0 0 0 0 0 0 0 0 0 127 0" result="hardAlpha"/>
<feOffset dy="10.8685"/>
<feGaussianBlur stdDeviation="7.41033"/>
<feComposite in2="hardAlpha" operator="arithmetic" k2="-1" k3="1"/>
<feColorMatrix type="matrix" values="0 0 0 0 0.921106 0 0 0 0 0.921106 0 0 0 0 0.921106 0 0 0 0.25 0"/>
<feBlend mode="normal" in2="shape" result="effect1_innerShadow_5520_39244"/>
<feColorMatrix in="SourceAlpha" type="matrix" values="0 0 0 0 0 0 0 0 0 0 0 0 0 0 0 0 0 0 127 0" result="hardAlpha"/>
<feOffset dx="-3.95217" dy="-12.8446"/>
<feGaussianBlur stdDeviation="7.90435"/>
<feComposite in2="hardAlpha" operator="arithmetic" k2="-1" k3="1"/>
<feColorMatrix type="matrix" values="0 0 0 0 0.291939 0 0 0 0 0.291939 0 0 0 0 0.291939 0 0 0 0.78 0"/>
<feBlend mode="normal" in2="effect1_innerShadow_5520_39244" result="effect2_innerShadow_5520_39244"/>
</filter>
<filter id="filter2_ii_5520_39244" x="826.468" y="406.819" width="41.308" height="92.507" filterUnits="userSpaceOnUse" color-interpolation-filters="sRGB">
<feFlood flood-opacity="0" result="BackgroundImageFix"/>
<feBlend mode="normal" in="SourceGraphic" in2="BackgroundImageFix" result="shape"/>
<feColorMatrix in="SourceAlpha" type="matrix" values="0 0 0 0 0 0 0 0 0 0 0 0 0 0 0 0 0 0 127 0" result="hardAlpha"/>
<feOffset dy="10.8685"/>
<feGaussianBlur stdDeviation="7.41033"/>
<feComposite in2="hardAlpha" operator="arithmetic" k2="-1" k3="1"/>
<feColorMatrix type="matrix" values="0 0 0 0 0.921106 0 0 0 0 0.921106 0 0 0 0 0.921106 0 0 0 0.25 0"/>
<feBlend mode="normal" in2="shape" result="effect1_innerShadow_5520_39244"/>
<feColorMatrix in="SourceAlpha" type="matrix" values="0 0 0 0 0 0 0 0 0 0 0 0 0 0 0 0 0 0 127 0" result="hardAlpha"/>
<feOffset dx="5.92826" dy="-12.8446"/>
<feGaussianBlur stdDeviation="7.90435"/>
<feComposite in2="hardAlpha" operator="arithmetic" k2="-1" k3="1"/>
<feColorMatrix type="matrix" values="0 0 0 0 0.291939 0 0 0 0 0.291939 0 0 0 0 0.291939 0 0 0 0.78 0"/>
<feBlend mode="normal" in2="effect1_innerShadow_5520_39244" result="effect2_innerShadow_5520_39244"/>
</filter>
<filter id="filter3_ii_5520_39244" x="131.613" y="393.055" width="69.8135" height="120.025" filterUnits="userSpaceOnUse" color-interpolation-filters="sRGB">
<feFlood flood-opacity="0" result="BackgroundImageFix"/>
<feBlend mode="normal" in="SourceGraphic" in2="BackgroundImageFix" result="shape"/>
<feColorMatrix in="SourceAlpha" type="matrix" values="0 0 0 0 0 0 0 0 0 0 0 0 0 0 0 0 0 0 127 0" result="hardAlpha"/>
<feOffset dy="10.8685"/>
<feGaussianBlur stdDeviation="7.41033"/>
<feComposite in2="hardAlpha" operator="arithmetic" k2="-1" k3="1"/>
<feColorMatrix type="matrix" values="0 0 0 0 0.921106 0 0 0 0 0.921106 0 0 0 0 0.921106 0 0 0 0.25 0"/>
<feBlend mode="normal" in2="shape" result="effect1_innerShadow_5520_39244"/>
<feColorMatrix in="SourceAlpha" type="matrix" values="0 0 0 0 0 0 0 0 0 0 0 0 0 0 0 0 0 0 127 0" result="hardAlpha"/>
<feOffset dx="-6.91631" dy="-12.8446"/>
<feGaussianBlur stdDeviation="7.90435"/>
<feComposite in2="hardAlpha" operator="arithmetic" k2="-1" k3="1"/>
<feColorMatrix type="matrix" values="0 0 0 0 0.291939 0 0 0 0 0.291939 0 0 0 0 0.291939 0 0 0 0.78 0"/>
<feBlend mode="normal" in2="effect1_innerShadow_5520_39244" result="effect2_innerShadow_5520_39244"/>
</filter>
<filter id="filter4_ii_5520_39244" x="861.847" y="393.056" width="68.8255" height="120.025" filterUnits="userSpaceOnUse" color-interpolation-filters="sRGB">
<feFlood flood-opacity="0" result="BackgroundImageFix"/>
<feBlend mode="normal" in="SourceGraphic" in2="BackgroundImageFix" result="shape"/>
<feColorMatrix in="SourceAlpha" type="matrix" values="0 0 0 0 0 0 0 0 0 0 0 0 0 0 0 0 0 0 127 0" result="hardAlpha"/>
<feOffset dy="10.8685"/>
<feGaussianBlur stdDeviation="7.41033"/>
<feComposite in2="hardAlpha" operator="arithmetic" k2="-1" k3="1"/>
<feColorMatrix type="matrix" values="0 0 0 0 0.921106 0 0 0 0 0.921106 0 0 0 0 0.921106 0 0 0 0.25 0"/>
<feBlend mode="normal" in2="shape" result="effect1_innerShadow_5520_39244"/>
<feColorMatrix in="SourceAlpha" type="matrix" values="0 0 0 0 0 0 0 0 0 0 0 0 0 0 0 0 0 0 127 0" result="hardAlpha"/>
<feOffset dx="5.92826" dy="-12.8446"/>
<feGaussianBlur stdDeviation="7.90435"/>
<feComposite in2="hardAlpha" operator="arithmetic" k2="-1" k3="1"/>
<feColorMatrix type="matrix" values="0 0 0 0 0.291939 0 0 0 0 0.291939 0 0 0 0 0.291939 0 0 0 0.78 0"/>
<feBlend mode="normal" in2="effect1_innerShadow_5520_39244" result="effect2_innerShadow_5520_39244"/>
</filter>
<filter id="filter5_dii_5520_39244" x="209.205" y="207.304" width="644.866" height="189.87" filterUnits="userSpaceOnUse" color-interpolation-filters="sRGB">
<feFlood flood-opacity="0" result="BackgroundImageFix"/>
<feColorMatrix in="SourceAlpha" type="matrix" values="0 0 0 0 0 0 0 0 0 0 0 0 0 0 0 0 0 0 127 0" result="hardAlpha"/>
<feOffset dy="5.92826"/>
<feGaussianBlur stdDeviation="7.90435"/>
<feComposite in2="hardAlpha" operator="out"/>
<feColorMatrix type="matrix" values="0 0 0 0 0 0 0 0 0 0 0 0 0 0 0 0 0 0 0.25 0"/>
<feBlend mode="normal" in2="BackgroundImageFix" result="effect1_dropShadow_5520_39244"/>
<feBlend mode="normal" in="SourceGraphic" in2="effect1_dropShadow_5520_39244" result="shape"/>
<feColorMatrix in="SourceAlpha" type="matrix" values="0 0 0 0 0 0 0 0 0 0 0 0 0 0 0 0 0 0 127 0" result="hardAlpha"/>
<feOffset dy="14.8207"/>
<feGaussianBlur stdDeviation="13.8326"/>
<feComposite in2="hardAlpha" operator="arithmetic" k2="-1" k3="1"/>
<feColorMatrix type="matrix" values="0 0 0 0 1 0 0 0 0 1 0 0 0 0 1 0 0 0 0.25 0"/>
<feBlend mode="normal" in2="shape" result="effect2_innerShadow_5520_39244"/>
<feColorMatrix in="SourceAlpha" type="matrix" values="0 0 0 0 0 0 0 0 0 0 0 0 0 0 0 0 0 0 127 0" result="hardAlpha"/>
<feOffset dy="-14.8207"/>
<feGaussianBlur stdDeviation="13.8326"/>
<feComposite in2="hardAlpha" operator="arithmetic" k2="-1" k3="1"/>
<feColorMatrix type="matrix" values="0 0 0 0 0 0 0 0 0 0 0 0 0 0 0 0 0 0 0.25 0"/>
<feBlend mode="normal" in2="effect2_innerShadow_5520_39244" result="effect3_innerShadow_5520_39244"/>
</filter>
<filter id="filter6_d_5520_39244" x="382.214" y="480.564" width="99.3441" height="99.3439" filterUnits="userSpaceOnUse" color-interpolation-filters="sRGB">
<feFlood flood-opacity="0" result="BackgroundImageFix"/>
<feColorMatrix in="SourceAlpha" type="matrix" values="0 0 0 0 0 0 0 0 0 0 0 0 0 0 0 0 0 0 127 0" result="hardAlpha"/>
<feOffset dy="2.96413"/>
<feGaussianBlur stdDeviation="3.95217"/>
<feComposite in2="hardAlpha" operator="out"/>
<feColorMatrix type="matrix" values="0 0 0 0 0 0 0 0 0 0 0 0 0 0 0 0 0 0 0.25 0"/>
<feBlend mode="normal" in2="BackgroundImageFix" result="effect1_dropShadow_5520_39244"/>
<feBlend mode="normal" in="SourceGraphic" in2="effect1_dropShadow_5520_39244" result="shape"/>
</filter>
<filter id="filter7_d_5520_39244" x="581.716" y="480.564" width="99.3441" height="99.3439" filterUnits="userSpaceOnUse" color-interpolation-filters="sRGB">
<feFlood flood-opacity="0" result="BackgroundImageFix"/>
<feColorMatrix in="SourceAlpha" type="matrix" values="0 0 0 0 0 0 0 0 0 0 0 0 0 0 0 0 0 0 127 0" result="hardAlpha"/>
<feOffset dy="2.96413"/>
<feGaussianBlur stdDeviation="3.95217"/>
<feComposite in2="hardAlpha" operator="out"/>
<feColorMatrix type="matrix" values="0 0 0 0 0 0 0 0 0 0 0 0 0 0 0 0 0 0 0.25 0"/>
<feBlend mode="normal" in2="BackgroundImageFix" result="effect1_dropShadow_5520_39244"/>
<feBlend mode="normal" in="SourceGraphic" in2="effect1_dropShadow_5520_39244" result="shape"/>
</filter>
<filter id="filter8_dd_5520_39244" x="402.872" y="611.258" width="258.511" height="112.65" filterUnits="userSpaceOnUse" color-interpolation-filters="sRGB">
<feFlood flood-opacity="0" result="BackgroundImageFix"/>
<feColorMatrix in="SourceAlpha" type="matrix" values="0 0 0 0 0 0 0 0 0 0 0 0 0 0 0 0 0 0 127 0" result="hardAlpha"/>
<feOffset dy="-3.95217"/>
<feGaussianBlur stdDeviation="1.97609"/>
<feComposite in2="hardAlpha" operator="out"/>
<feColorMatrix type="matrix" values="0 0 0 0 0 0 0 0 0 0 0 0 0 0 0 0 0 0 0.25 0"/>
<feBlend mode="normal" in2="BackgroundImageFix" result="effect1_dropShadow_5520_39244"/>
<feColorMatrix in="SourceAlpha" type="matrix" values="0 0 0 0 0 0 0 0 0 0 0 0 0 0 0 0 0 0 127 0" result="hardAlpha"/>
<feOffset dy="3.95217"/>
<feGaussianBlur stdDeviation="1.97609"/>
<feComposite in2="hardAlpha" operator="out"/>
<feColorMatrix type="matrix" values="0 0 0 0 1 0 0 0 0 1 0 0 0 0 1 0 0 0 0.25 0"/>
<feBlend mode="normal" in2="effect1_dropShadow_5520_39244" result="effect2_dropShadow_5520_39244"/>
<feBlend mode="normal" in="SourceGraphic" in2="effect2_dropShadow_5520_39244" result="shape"/>
</filter>
<filter id="filter9_di_5520_39244" x="578.814" y="619.898" width="42.139" height="37.1055" filterUnits="userSpaceOnUse" color-interpolation-filters="sRGB">
<feFlood flood-opacity="0" result="BackgroundImageFix"/>
<feColorMatrix in="SourceAlpha" type="matrix" values="0 0 0 0 0 0 0 0 0 0 0 0 0 0 0 0 0 0 127 0" result="hardAlpha"/>
<feOffset dy="3.95217"/>
<feGaussianBlur stdDeviation="1.97609"/>
<feComposite in2="hardAlpha" operator="out"/>
<feColorMatrix type="matrix" values="0 0 0 0 0 0 0 0 0 0 0 0 0 0 0 0 0 0 0.25 0"/>
<feBlend mode="normal" in2="BackgroundImageFix" result="effect1_dropShadow_5520_39244"/>
<feBlend mode="normal" in="SourceGraphic" in2="effect1_dropShadow_5520_39244" result="shape"/>
<feColorMatrix in="SourceAlpha" type="matrix" values="0 0 0 0 0 0 0 0 0 0 0 0 0 0 0 0 0 0 127 0" result="hardAlpha"/>
<feOffset dy="3.95217"/>
<feGaussianBlur stdDeviation="1.97609"/>
<feComposite in2="hardAlpha" operator="arithmetic" k2="-1" k3="1"/>
<feColorMatrix type="matrix" values="0 0 0 0 0 0 0 0 0 0 0 0 0 0 0 0 0 0 0.25 0"/>
<feBlend mode="normal" in2="shape" result="effect2_innerShadow_5520_39244"/>
</filter>
<filter id="filter10_di_5520_39244" x="456.099" y="677.471" width="42.6491" height="37.0596" filterUnits="userSpaceOnUse" color-interpolation-filters="sRGB">
<feFlood flood-opacity="0" result="BackgroundImageFix"/>
<feColorMatrix in="SourceAlpha" type="matrix" values="0 0 0 0 0 0 0 0 0 0 0 0 0 0 0 0 0 0 127 0" result="hardAlpha"/>
<feOffset dy="-3.95217"/>
<feGaussianBlur stdDeviation="1.97609"/>
<feComposite in2="hardAlpha" operator="out"/>
<feColorMatrix type="matrix" values="0 0 0 0 0 0 0 0 0 0 0 0 0 0 0 0 0 0 0.25 0"/>
<feBlend mode="normal" in2="BackgroundImageFix" result="effect1_dropShadow_5520_39244"/>
<feBlend mode="normal" in="SourceGraphic" in2="effect1_dropShadow_5520_39244" result="shape"/>
<feColorMatrix in="SourceAlpha" type="matrix" values="0 0 0 0 0 0 0 0 0 0 0 0 0 0 0 0 0 0 127 0" result="hardAlpha"/>
<feOffset dy="-3.95217"/>
<feGaussianBlur stdDeviation="1.97609"/>
<feComposite in2="hardAlpha" operator="arithmetic" k2="-1" k3="1"/>
<feColorMatrix type="matrix" values="0 0 0 0 0 0 0 0 0 0 0 0 0 0 0 0 0 0 0.25 0"/>
<feBlend mode="normal" in2="shape" result="effect2_innerShadow_5520_39244"/>
</filter>
<radialGradient id="paint0_radial_5520_39244" cx="0" cy="0" r="1" gradientUnits="userSpaceOnUse" gradientTransform="translate(531.636 468.791) rotate(90) scale(370.504 378.691)">
<stop stop-color="#6DCA25"/>
<stop offset="0.660031" stop-color="#6FAA0D"/>
<stop offset="1" stop-color="#45870B"/>
</radialGradient>
<linearGradient id="paint1_linear_5520_39244" x1="532.619" y1="635.378" x2="532.128" y2="716.004" gradientUnits="userSpaceOnUse">
<stop stop-color="#66320F"/>
<stop offset="1" stop-color="#42210B"/>
</linearGradient>
</defs>
</svg>
