<svg fill="none" height="1062" viewBox="0 0 1063 1062" width="1063" xmlns="http://www.w3.org/2000/svg" xmlns:xlink="http://www.w3.org/1999/xlink"><filter id="a" color-interpolation-filters="sRGB" filterUnits="userSpaceOnUse" height="608.435" width="597.566" x="232.853" y="238.765"><feFlood flood-opacity="0" result="BackgroundImageFix"/><feColorMatrix in="SourceAlpha" result="hardAlpha" type="matrix" values="0 0 0 0 0 0 0 0 0 0 0 0 0 0 0 0 0 0 127 0"/><feOffset dy="3.95217"/><feGaussianBlur stdDeviation="1.97609"/><feComposite in2="hardAlpha" operator="out"/><feColorMatrix type="matrix" values="0 0 0 0 0 0 0 0 0 0 0 0 0 0 0 0 0 0 0.25 0"/><feBlend in2="BackgroundImageFix" mode="normal" result="effect1_dropShadow_5520_39244"/><feBlend in="SourceGraphic" in2="effect1_dropShadow_5520_39244" mode="normal" result="shape"/><feColorMatrix in="SourceAlpha" result="hardAlpha" type="matrix" values="0 0 0 0 0 0 0 0 0 0 0 0 0 0 0 0 0 0 127 0"/><feOffset dy="-10.8685"/><feGaussianBlur stdDeviation="23.219"/><feComposite in2="hardAlpha" k2="-1" k3="1" operator="arithmetic"/><feColorMatrix type="matrix" values="0 0 0 0 0 0 0 0 0 0 0 0 0 0 0 0 0 0 0.25 0"/><feBlend in2="shape" mode="normal" result="effect2_innerShadow_5520_39244"/></filter><filter id="b" color-interpolation-filters="sRGB" filterUnits="userSpaceOnUse" height="92.507" width="39.3318" x="197.475" y="406.809"><feFlood flood-opacity="0" result="BackgroundImageFix"/><feBlend in="SourceGraphic" in2="BackgroundImageFix" mode="normal" result="shape"/><feColorMatrix in="SourceAlpha" result="hardAlpha" type="matrix" values="0 0 0 0 0 0 0 0 0 0 0 0 0 0 0 0 0 0 127 0"/><feOffset dy="10.8685"/><feGaussianBlur stdDeviation="7.41033"/><feComposite in2="hardAlpha" k2="-1" k3="1" operator="arithmetic"/><feColorMatrix type="matrix" values="0 0 0 0 0.921106 0 0 0 0 0.921106 0 0 0 0 0.921106 0 0 0 0.25 0"/><feBlend in2="shape" mode="normal" result="effect1_innerShadow_5520_39244"/><feColorMatrix in="SourceAlpha" result="hardAlpha" type="matrix" values="0 0 0 0 0 0 0 0 0 0 0 0 0 0 0 0 0 0 127 0"/><feOffset dx="-3.95217" dy="-12.8446"/><feGaussianBlur stdDeviation="7.90435"/><feComposite in2="hardAlpha" k2="-1" k3="1" operator="arithmetic"/><feColorMatrix type="matrix" values="0 0 0 0 0.291939 0 0 0 0 0.291939 0 0 0 0 0.291939 0 0 0 0.78 0"/><feBlend in2="effect1_innerShadow_5520_39244" mode="normal" result="effect2_innerShadow_5520_39244"/></filter><filter id="c" color-interpolation-filters="sRGB" filterUnits="userSpaceOnUse" height="92.507" width="41.308" x="826.468" y="406.819"><feFlood flood-opacity="0" result="BackgroundImageFix"/><feBlend in="SourceGraphic" in2="BackgroundImageFix" mode="normal" result="shape"/><feColorMatrix in="SourceAlpha" result="hardAlpha" type="matrix" values="0 0 0 0 0 0 0 0 0 0 0 0 0 0 0 0 0 0 127 0"/><feOffset dy="10.8685"/><feGaussianBlur stdDeviation="7.41033"/><feComposite in2="hardAlpha" k2="-1" k3="1" operator="arithmetic"/><feColorMatrix type="matrix" values="0 0 0 0 0.921106 0 0 0 0 0.921106 0 0 0 0 0.921106 0 0 0 0.25 0"/><feBlend in2="shape" mode="normal" result="effect1_innerShadow_5520_39244"/><feColorMatrix in="SourceAlpha" result="hardAlpha" type="matrix" values="0 0 0 0 0 0 0 0 0 0 0 0 0 0 0 0 0 0 127 0"/><feOffset dx="5.92826" dy="-12.8446"/><feGaussianBlur stdDeviation="7.90435"/><feComposite in2="hardAlpha" k2="-1" k3="1" operator="arithmetic"/><feColorMatrix type="matrix" values="0 0 0 0 0.291939 0 0 0 0 0.291939 0 0 0 0 0.291939 0 0 0 0.78 0"/><feBlend in2="effect1_innerShadow_5520_39244" mode="normal" result="effect2_innerShadow_5520_39244"/></filter><filter id="d" color-interpolation-filters="sRGB" filterUnits="userSpaceOnUse" height="120.025" width="69.8135" x="131.613" y="393.055"><feFlood flood-opacity="0" result="BackgroundImageFix"/><feBlend in="SourceGraphic" in2="BackgroundImageFix" mode="normal" result="shape"/><feColorMatrix in="SourceAlpha" result="hardAlpha" type="matrix" values="0 0 0 0 0 0 0 0 0 0 0 0 0 0 0 0 0 0 127 0"/><feOffset dy="10.8685"/><feGaussianBlur stdDeviation="7.41033"/><feComposite in2="hardAlpha" k2="-1" k3="1" operator="arithmetic"/><feColorMatrix type="matrix" values="0 0 0 0 0.921106 0 0 0 0 0.921106 0 0 0 0 0.921106 0 0 0 0.25 0"/><feBlend in2="shape" mode="normal" result="effect1_innerShadow_5520_39244"/><feColorMatrix in="SourceAlpha" result="hardAlpha" type="matrix" values="0 0 0 0 0 0 0 0 0 0 0 0 0 0 0 0 0 0 127 0"/><feOffset dx="-6.91631" dy="-12.8446"/><feGaussianBlur stdDeviation="7.90435"/><feComposite in2="hardAlpha" k2="-1" k3="1" operator="arithmetic"/><feColorMatrix type="matrix" values="0 0 0 0 0.291939 0 0 0 0 0.291939 0 0 0 0 0.291939 0 0 0 0.78 0"/><feBlend in2="effect1_innerShadow_5520_39244" mode="normal" result="effect2_innerShadow_5520_39244"/></filter><filter id="e" color-interpolation-filters="sRGB" filterUnits="userSpaceOnUse" height="120.025" width="68.8255" x="861.847" y="393.056"><feFlood flood-opacity="0" result="BackgroundImageFix"/><feBlend in="SourceGraphic" in2="BackgroundImageFix" mode="normal" result="shape"/><feColorMatrix in="SourceAlpha" result="hardAlpha" type="matrix" values="0 0 0 0 0 0 0 0 0 0 0 0 0 0 0 0 0 0 127 0"/><feOffset dy="10.8685"/><feGaussianBlur stdDeviation="7.41033"/><feComposite in2="hardAlpha" k2="-1" k3="1" operator="arithmetic"/><feColorMatrix type="matrix" values="0 0 0 0 0.921106 0 0 0 0 0.921106 0 0 0 0 0.921106 0 0 0 0.25 0"/><feBlend in2="shape" mode="normal" result="effect1_innerShadow_5520_39244"/><feColorMatrix in="SourceAlpha" result="hardAlpha" type="matrix" values="0 0 0 0 0 0 0 0 0 0 0 0 0 0 0 0 0 0 127 0"/><feOffset dx="5.92826" dy="-12.8446"/><feGaussianBlur stdDeviation="7.90435"/><feComposite in2="hardAlpha" k2="-1" k3="1" operator="arithmetic"/><feColorMatrix type="matrix" values="0 0 0 0 0.291939 0 0 0 0 0.291939 0 0 0 0 0.291939 0 0 0 0.78 0"/><feBlend in2="effect1_innerShadow_5520_39244" mode="normal" result="effect2_innerShadow_5520_39244"/></filter><filter id="f" color-interpolation-filters="sRGB" filterUnits="userSpaceOnUse" height="189.87" width="644.866" x="209.205" y="207.304"><feFlood flood-opacity="0" result="BackgroundImageFix"/><feColorMatrix in="SourceAlpha" result="hardAlpha" type="matrix" values="0 0 0 0 0 0 0 0 0 0 0 0 0 0 0 0 0 0 127 0"/><feOffset dy="5.92826"/><feGaussianBlur stdDeviation="7.90435"/><feComposite in2="hardAlpha" operator="out"/><feColorMatrix type="matrix" values="0 0 0 0 0 0 0 0 0 0 0 0 0 0 0 0 0 0 0.25 0"/><feBlend in2="BackgroundImageFix" mode="normal" result="effect1_dropShadow_5520_39244"/><feBlend in="SourceGraphic" in2="effect1_dropShadow_5520_39244" mode="normal" result="shape"/><feColorMatrix in="SourceAlpha" result="hardAlpha" type="matrix" values="0 0 0 0 0 0 0 0 0 0 0 0 0 0 0 0 0 0 127 0"/><feOffset dy="14.8207"/><feGaussianBlur stdDeviation="13.8326"/><feComposite in2="hardAlpha" k2="-1" k3="1" operator="arithmetic"/><feColorMatrix type="matrix" values="0 0 0 0 1 0 0 0 0 1 0 0 0 0 1 0 0 0 0.25 0"/><feBlend in2="shape" mode="normal" result="effect2_innerShadow_5520_39244"/><feColorMatrix in="SourceAlpha" result="hardAlpha" type="matrix" values="0 0 0 0 0 0 0 0 0 0 0 0 0 0 0 0 0 0 127 0"/><feOffset dy="-14.8207"/><feGaussianBlur stdDeviation="13.8326"/><feComposite in2="hardAlpha" k2="-1" k3="1" operator="arithmetic"/><feColorMatrix type="matrix" values="0 0 0 0 0 0 0 0 0 0 0 0 0 0 0 0 0 0 0.25 0"/><feBlend in2="effect2_innerShadow_5520_39244" mode="normal" result="effect3_innerShadow_5520_39244"/></filter><filter id="g" color-interpolation-filters="sRGB" filterUnits="userSpaceOnUse" height="99.3439" width="99.3441" x="382.214" y="480.564"><feFlood flood-opacity="0" result="BackgroundImageFix"/><feColorMatrix in="SourceAlpha" result="hardAlpha" type="matrix" values="0 0 0 0 0 0 0 0 0 0 0 0 0 0 0 0 0 0 127 0"/><feOffset dy="2.96413"/><feGaussianBlur stdDeviation="3.95217"/><feComposite in2="hardAlpha" operator="out"/><feColorMatrix type="matrix" values="0 0 0 0 0 0 0 0 0 0 0 0 0 0 0 0 0 0 0.25 0"/><feBlend in2="BackgroundImageFix" mode="normal" result="effect1_dropShadow_5520_39244"/><feBlend in="SourceGraphic" in2="effect1_dropShadow_5520_39244" mode="normal" result="shape"/></filter><filter id="h" color-interpolation-filters="sRGB" filterUnits="userSpaceOnUse" height="99.3439" width="99.3441" x="581.716" y="480.564"><feFlood flood-opacity="0" result="BackgroundImageFix"/><feColorMatrix in="SourceAlpha" result="hardAlpha" type="matrix" values="0 0 0 0 0 0 0 0 0 0 0 0 0 0 0 0 0 0 127 0"/><feOffset dy="2.96413"/><feGaussianBlur stdDeviation="3.95217"/><feComposite in2="hardAlpha" operator="out"/><feColorMatrix type="matrix" values="0 0 0 0 0 0 0 0 0 0 0 0 0 0 0 0 0 0 0.25 0"/><feBlend in2="BackgroundImageFix" mode="normal" result="effect1_dropShadow_5520_39244"/><feBlend in="SourceGraphic" in2="effect1_dropShadow_5520_39244" mode="normal" result="shape"/></filter><filter id="i" color-interpolation-filters="sRGB" filterUnits="userSpaceOnUse" height="112.65" width="258.511" x="402.872" y="611.258"><feFlood flood-opacity="0" result="BackgroundImageFix"/><feColorMatrix in="SourceAlpha" result="hardAlpha" type="matrix" values="0 0 0 0 0 0 0 0 0 0 0 0 0 0 0 0 0 0 127 0"/><feOffset dy="-3.95217"/><feGaussianBlur stdDeviation="1.97609"/><feComposite in2="hardAlpha" operator="out"/><feColorMatrix type="matrix" values="0 0 0 0 0 0 0 0 0 0 0 0 0 0 0 0 0 0 0.25 0"/><feBlend in2="BackgroundImageFix" mode="normal" result="effect1_dropShadow_5520_39244"/><feColorMatrix in="SourceAlpha" result="hardAlpha" type="matrix" values="0 0 0 0 0 0 0 0 0 0 0 0 0 0 0 0 0 0 127 0"/><feOffset dy="3.95217"/><feGaussianBlur stdDeviation="1.97609"/><feComposite in2="hardAlpha" operator="out"/><feColorMatrix type="matrix" values="0 0 0 0 1 0 0 0 0 1 0 0 0 0 1 0 0 0 0.25 0"/><feBlend in2="effect1_dropShadow_5520_39244" mode="normal" result="effect2_dropShadow_5520_39244"/><feBlend in="SourceGraphic" in2="effect2_dropShadow_5520_39244" mode="normal" result="shape"/></filter><filter id="j" color-interpolation-filters="sRGB" filterUnits="userSpaceOnUse" height="37.1055" width="42.139" x="578.814" y="619.898"><feFlood flood-opacity="0" result="BackgroundImageFix"/><feColorMatrix in="SourceAlpha" result="hardAlpha" type="matrix" values="0 0 0 0 0 0 0 0 0 0 0 0 0 0 0 0 0 0 127 0"/><feOffset dy="3.95217"/><feGaussianBlur stdDeviation="1.97609"/><feComposite in2="hardAlpha" operator="out"/><feColorMatrix type="matrix" values="0 0 0 0 0 0 0 0 0 0 0 0 0 0 0 0 0 0 0.25 0"/><feBlend in2="BackgroundImageFix" mode="normal" result="effect1_dropShadow_5520_39244"/><feBlend in="SourceGraphic" in2="effect1_dropShadow_5520_39244" mode="normal" result="shape"/><feColorMatrix in="SourceAlpha" result="hardAlpha" type="matrix" values="0 0 0 0 0 0 0 0 0 0 0 0 0 0 0 0 0 0 127 0"/><feOffset dy="3.95217"/><feGaussianBlur stdDeviation="1.97609"/><feComposite in2="hardAlpha" k2="-1" k3="1" operator="arithmetic"/><feColorMatrix type="matrix" values="0 0 0 0 0 0 0 0 0 0 0 0 0 0 0 0 0 0 0.25 0"/><feBlend in2="shape" mode="normal" result="effect2_innerShadow_5520_39244"/></filter><filter id="k" color-interpolation-filters="sRGB" filterUnits="userSpaceOnUse" height="37.0596" width="42.6491" x="456.099" y="677.471"><feFlood flood-opacity="0" result="BackgroundImageFix"/><feColorMatrix in="SourceAlpha" result="hardAlpha" type="matrix" values="0 0 0 0 0 0 0 0 0 0 0 0 0 0 0 0 0 0 127 0"/><feOffset dy="-3.95217"/><feGaussianBlur stdDeviation="1.97609"/><feComposite in2="hardAlpha" operator="out"/><feColorMatrix type="matrix" values="0 0 0 0 0 0 0 0 0 0 0 0 0 0 0 0 0 0 0.25 0"/><feBlend in2="BackgroundImageFix" mode="normal" result="effect1_dropShadow_5520_39244"/><feBlend in="SourceGraphic" in2="effect1_dropShadow_5520_39244" mode="normal" result="shape"/><feColorMatrix in="SourceAlpha" result="hardAlpha" type="matrix" values="0 0 0 0 0 0 0 0 0 0 0 0 0 0 0 0 0 0 127 0"/><feOffset dy="-3.95217"/><feGaussianBlur stdDeviation="1.97609"/><feComposite in2="hardAlpha" k2="-1" k3="1" operator="arithmetic"/><feColorMatrix type="matrix" values="0 0 0 0 0 0 0 0 0 0 0 0 0 0 0 0 0 0 0.25 0"/><feBlend in2="shape" mode="normal" result="effect2_innerShadow_5520_39244"/></filter><radialGradient id="l" cx="0" cy="0" gradientTransform="matrix(0 370.504 -378.691 0 531.636 468.791)" gradientUnits="userSpaceOnUse" r="1"><stop offset="0" stop-color="#6dca25"/><stop offset=".660031" stop-color="#6faa0d"/><stop offset="1" stop-color="#45870b"/></radialGradient><linearGradient id="m" gradientUnits="userSpaceOnUse" x1="532.619" x2="532.128" y1="635.378" y2="716.004"><stop offset="0" stop-color="#66320f"/><stop offset="1" stop-color="#42210b"/></linearGradient><g filter="url(#a)"><path d="m826.466 309.334v235.068c.035 24.643-3.043 49.191-9.159 73.063-.629 2.437-1.258 4.874-1.965 7.271-17.472 61.771-54.634 116.151-105.841 154.878-51.207 38.726-113.658 59.682-177.865 59.682s-126.659-20.956-177.865-59.682c-51.207-38.727-88.37-93.107-105.841-154.878-.747-2.594-1.454-5.227-2.123-7.86-6.006-23.689-9.03-48.036-9.002-72.474v-235.068c0-15.833 6.291-31.018 17.49-42.214 11.198-11.196 26.386-17.486 42.223-17.486h470.235c15.837 0 31.026 6.29 42.224 17.486s17.489 26.381 17.489 42.214z" fill="url(#l)"/></g><g fill="#42210b"><path d="m416.552 414.075-127.659 72.755 3.944 6.921 127.66-72.755z"/><path d="m313.975 491.79-12.78-22.425-6.914 3.94 12.78 22.425z"/><path d="m339.226 477.352-12.781-22.425-6.913 3.94 12.78 22.425z"/><path d="m364.48 463.006-12.78-22.425-6.913 3.94 12.78 22.425z"/><path d="m389.695 448.588-12.78-22.425-6.914 3.94 12.78 22.425z"/><path d="m414.985 434.222-12.781-22.425-6.913 3.94 12.78 22.425z"/></g><g filter="url(#b)"><path d="m236.807 419.653h-35.38v68.794h35.38z" fill="#626262"/></g><g filter="url(#c)"><path d="m861.848 488.458h-35.38v-68.794h35.38z" fill="#626262"/></g><g filter="url(#d)"><path d="m194.438 405.899h-48.92c-3.86 0-6.989 3.594-6.989 8.026v80.26c0 4.432 3.129 8.026 6.989 8.026h48.92c3.86 0 6.988-3.594 6.988-8.026v-80.26c0-4.432-3.128-8.026-6.988-8.026z" fill="#626262"/></g><g filter="url(#e)"><path d="m917.755 502.212h-48.92c-3.859 0-6.988-3.593-6.988-8.026v-80.26c0-4.432 3.129-8.025 6.988-8.025h48.92c3.86 0 6.989 3.593 6.989 8.025v80.26c0 4.433-3.129 8.026-6.989 8.026z" fill="#626262"/></g><g filter="url(#f)"><path d="m838.261 294.346v71.357c.032 2.537-.943 4.984-2.711 6.807-1.769 1.823-4.187 2.875-6.73 2.927-37.172 0-37.172-38.034-74.345-38.034-37.172 0-37.133 38.034-74.305 38.034-37.173 0-37.133-38.034-74.306-38.034-37.172 0-37.133 38.034-74.266 38.034s-37.133-38.034-74.305-38.034c-37.173 0-37.133 38.034-74.266 38.034-37.134 0-37.173-38.034-74.306-38.034s-37.133 38.034-74.266 38.034c-2.542-.052-4.961-1.104-6.73-2.927-1.768-1.823-2.742-4.27-2.711-6.807v-71.357c0-39.879 27.811-72.221 62.112-72.221h488.905c34.301 0 62.23 32.342 62.23 72.221z" fill="#6d340b"/></g><g filter="url(#g)"><path d="m431.886 569.039c23.068 0 41.768-18.7 41.768-41.767 0-23.068-18.7-41.768-41.768-41.768-23.067 0-41.767 18.7-41.767 41.768 0 23.067 18.7 41.767 41.767 41.767z" fill="#1b1b1b"/></g><g filter="url(#h)"><path d="m631.388 569.039c23.068 0 41.768-18.7 41.768-41.767 0-23.068-18.7-41.768-41.768-41.768s-41.768 18.7-41.768 41.768c0 23.067 18.7 41.767 41.768 41.767z" fill="#1b1b1b"/></g><g filter="url(#i)"><path d="m652.699 679.068c-7.357 12.069-24.504 21.187-46.444 27.354-12.617 3.442-25.486 5.892-38.488 7.327-24.236 2.779-48.699 2.99-72.98.63-11.708-1.086-23.324-3.003-34.759-5.736-22.573-5.537-40.285-14.19-48.043-26.027-13.017-19.893 0-51.69 23.306-60.973 6.53-2.571 13.677-3.16 20.542-1.691 8.39 1.525 17.413 5.073 28.899 8.355 13.431 3.911 27.3 6.139 41.285 6.631 19.21.69 38.407-1.683 56.865-7.029 9.823-3.098 19.83-5.578 29.965-7.427 7.222-1.158 14.626-.154 21.275 2.885 20.375 9.781 29.664 37.499 18.577 55.701z" fill="url(#m)"/></g><g filter="url(#j)"><path d="m616.951 642.082c.306 1.657-.83 3.235-2.498 3.472l-24.763 3.515c-1.571.224-3.04-.831-3.33-2.391l-3.594-19.287c9.866-3.125 19.918-5.627 30.097-7.493z" fill="#d9d9d9"/></g><g filter="url(#k)"><path d="m492.299 689.379c1.439.229 2.497 1.47 2.497 2.927v22.224c-11.704-1.089-23.315-3.01-34.745-5.748l4.049-21.003c.303-1.571 1.798-2.619 3.378-2.366z" fill="#d9d9d9"/></g></svg>