<svg fill="none" height="1062" viewBox="0 0 1063 1062" width="1063" xmlns="http://www.w3.org/2000/svg" xmlns:xlink="http://www.w3.org/1999/xlink"><filter id="a" color-interpolation-filters="sRGB" filterUnits="userSpaceOnUse" height="605.471" width="605.47" x="228.903" y="227.965"><feFlood flood-opacity="0" result="BackgroundImageFix"/><feBlend in="SourceGraphic" in2="BackgroundImageFix" mode="normal" result="shape"/><feGaussianBlur result="effect1_foregroundBlur_5520_39271" stdDeviation="3.95217"/></filter><filter id="b" color-interpolation-filters="sRGB" filterUnits="userSpaceOnUse" height="200.548" width="556.311" x="253.482" y="229.941"><feFlood flood-opacity="0" result="BackgroundImageFix"/><feBlend in="SourceGraphic" in2="BackgroundImageFix" mode="normal" result="shape"/><feGaussianBlur result="effect1_foregroundBlur_5520_39271" stdDeviation="2.96413"/></filter><filter id="c" color-interpolation-filters="sRGB" filterUnits="userSpaceOnUse" height="149.486" width="289.98" x="386.156" y="577.806"><feFlood flood-opacity="0" result="BackgroundImageFix"/><feColorMatrix in="SourceAlpha" result="hardAlpha" type="matrix" values="0 0 0 0 0 0 0 0 0 0 0 0 0 0 0 0 0 0 127 0"/><feOffset dy="4.94022"/><feGaussianBlur stdDeviation="2.96413"/><feComposite in2="hardAlpha" operator="out"/><feColorMatrix type="matrix" values="0 0 0 0 0.701843 0 0 0 0 0.689337 0 0 0 0 0.854415 0 0 0 0.25 0"/><feBlend in2="BackgroundImageFix" mode="normal" result="effect1_dropShadow_5520_39271"/><feColorMatrix in="SourceAlpha" result="hardAlpha" type="matrix" values="0 0 0 0 0 0 0 0 0 0 0 0 0 0 0 0 0 0 127 0"/><feOffset dy="-3.95217"/><feGaussianBlur stdDeviation="2.47011"/><feComposite in2="hardAlpha" operator="out"/><feColorMatrix type="matrix" values="0 0 0 0 0 0 0 0 0 0 0 0 0 0 0 0 0 0 0.13 0"/><feBlend in2="effect1_dropShadow_5520_39271" mode="normal" result="effect2_dropShadow_5520_39271"/><feBlend in="SourceGraphic" in2="effect2_dropShadow_5520_39271" mode="normal" result="shape"/><feGaussianBlur result="effect3_foregroundBlur_5520_39271" stdDeviation="1.48207"/></filter><filter id="d" color-interpolation-filters="sRGB" filterUnits="userSpaceOnUse" height="64.8941" width="167.102" x="448.086" y="654.497"><feFlood flood-opacity="0" result="BackgroundImageFix"/><feBlend in="SourceGraphic" in2="BackgroundImageFix" mode="normal" result="shape"/><feGaussianBlur result="effect1_foregroundBlur_5520_39271" stdDeviation="1.48207"/></filter><filter id="e" color-interpolation-filters="sRGB" filterUnits="userSpaceOnUse" height="74.1671" width="60.9844" x="416.626" y="583.734"><feFlood flood-opacity="0" result="BackgroundImageFix"/><feColorMatrix in="SourceAlpha" result="hardAlpha" type="matrix" values="0 0 0 0 0 0 0 0 0 0 0 0 0 0 0 0 0 0 127 0"/><feOffset dy="3.95217"/><feGaussianBlur stdDeviation="2.47011"/><feComposite in2="hardAlpha" operator="out"/><feColorMatrix type="matrix" values="0 0 0 0 0 0 0 0 0 0 0 0 0 0 0 0 0 0 0.16 0"/><feBlend in2="BackgroundImageFix" mode="normal" result="effect1_dropShadow_5520_39271"/><feBlend in="SourceGraphic" in2="effect1_dropShadow_5520_39271" mode="normal" result="shape"/><feColorMatrix in="SourceAlpha" result="hardAlpha" type="matrix" values="0 0 0 0 0 0 0 0 0 0 0 0 0 0 0 0 0 0 127 0"/><feOffset dy="4.94022"/><feGaussianBlur stdDeviation="3.45815"/><feComposite in2="hardAlpha" k2="-1" k3="1" operator="arithmetic"/><feColorMatrix type="matrix" values="0 0 0 0 0 0 0 0 0 0 0 0 0 0 0 0 0 0 0.25 0"/><feBlend in2="shape" mode="normal" result="effect2_innerShadow_5520_39271"/><feGaussianBlur result="effect3_foregroundBlur_5520_39271" stdDeviation="1.48207"/></filter><filter id="f" color-interpolation-filters="sRGB" filterUnits="userSpaceOnUse" height="74.2559" width="61.9672" x="581.732" y="583.734"><feFlood flood-opacity="0" result="BackgroundImageFix"/><feColorMatrix in="SourceAlpha" result="hardAlpha" type="matrix" values="0 0 0 0 0 0 0 0 0 0 0 0 0 0 0 0 0 0 127 0"/><feOffset dy="3.95217"/><feGaussianBlur stdDeviation="2.47011"/><feComposite in2="hardAlpha" operator="out"/><feColorMatrix type="matrix" values="0 0 0 0 0 0 0 0 0 0 0 0 0 0 0 0 0 0 0.16 0"/><feBlend in2="BackgroundImageFix" mode="normal" result="effect1_dropShadow_5520_39271"/><feBlend in="SourceGraphic" in2="effect1_dropShadow_5520_39271" mode="normal" result="shape"/><feColorMatrix in="SourceAlpha" result="hardAlpha" type="matrix" values="0 0 0 0 0 0 0 0 0 0 0 0 0 0 0 0 0 0 127 0"/><feOffset dy="4.94022"/><feGaussianBlur stdDeviation="3.45815"/><feComposite in2="hardAlpha" k2="-1" k3="1" operator="arithmetic"/><feColorMatrix type="matrix" values="0 0 0 0 0 0 0 0 0 0 0 0 0 0 0 0 0 0 0.25 0"/><feBlend in2="shape" mode="normal" result="effect2_innerShadow_5520_39271"/><feGaussianBlur result="effect3_foregroundBlur_5520_39271" stdDeviation="1.48207"/></filter><filter id="g" color-interpolation-filters="sRGB" filterUnits="userSpaceOnUse" height="89.4634" width="89.4637" x="384.208" y="456.978"><feFlood flood-opacity="0" result="BackgroundImageFix"/><feBlend in="SourceGraphic" in2="BackgroundImageFix" mode="normal" result="shape"/><feGaussianBlur result="effect1_foregroundBlur_5520_39271" stdDeviation="1.48207"/></filter><filter id="h" color-interpolation-filters="sRGB" filterUnits="userSpaceOnUse" height="27.5494" width="27.5492" x="403.863" y="475.656"><feFlood flood-opacity="0" result="BackgroundImageFix"/><feBlend in="SourceGraphic" in2="BackgroundImageFix" mode="normal" result="shape"/><feGaussianBlur result="effect1_foregroundBlur_5520_39271" stdDeviation="1.48207"/></filter><filter id="i" color-interpolation-filters="sRGB" filterUnits="userSpaceOnUse" height="89.4634" width="89.4637" x="583.709" y="456.978"><feFlood flood-opacity="0" result="BackgroundImageFix"/><feBlend in="SourceGraphic" in2="BackgroundImageFix" mode="normal" result="shape"/><feGaussianBlur result="effect1_foregroundBlur_5520_39271" stdDeviation="1.48207"/></filter><filter id="j" color-interpolation-filters="sRGB" filterUnits="userSpaceOnUse" height="27.5494" width="27.5492" x="603.364" y="475.656"><feFlood flood-opacity="0" result="BackgroundImageFix"/><feBlend in="SourceGraphic" in2="BackgroundImageFix" mode="normal" result="shape"/><feGaussianBlur result="effect1_foregroundBlur_5520_39271" stdDeviation="1.48207"/></filter><radialGradient id="k" cx="0" cy="0" gradientTransform="matrix(185.74342602 437.82414702 -437.82414702 185.74342602 406.335 334.146)" gradientUnits="userSpaceOnUse" r="1"><stop offset="0" stop-color="#b1ade7"/><stop offset=".165566" stop-color="#938ed7"/><stop offset=".657919" stop-color="#6c63d4"/><stop offset="1" stop-color="#372ea8"/></radialGradient><radialGradient id="l" cx="0" cy="0" gradientTransform="matrix(0 129.726 -156.069 0 530.654 586.698)" gradientUnits="userSpaceOnUse" r="1"><stop offset=".08" stop-color="#220084"/><stop offset=".394842" stop-color="#000352"/><stop offset="1" stop-color="#01001e"/></radialGradient><radialGradient id="m" cx="0" cy="0" gradientTransform="matrix(0 52.4799 -143.445 0 531.637 663.947)" gradientUnits="userSpaceOnUse" r="1"><stop offset="0" stop-color="#ff3412"/><stop offset="1" stop-color="#ce1e01"/></radialGradient><linearGradient id="n"><stop offset="0" stop-color="#fff"/><stop offset="1" stop-color="#e0e0e0"/></linearGradient><linearGradient id="o" gradientUnits="userSpaceOnUse" x1="447.118" x2="447.118" xlink:href="#n" y1="586.698" y2="652.544"/><linearGradient id="p" gradientUnits="userSpaceOnUse" x1="612.716" x2="612.716" xlink:href="#n" y1="586.698" y2="652.544"/><g filter="url(#a)"><path d="m531.638 825.531c162.831 0 294.831-132 294.831-294.831s-132-294.831-294.831-294.831c-162.83 0-294.83 132-294.83 294.831s132 294.831 294.83 294.831z" fill="url(#k)"/></g><g filter="url(#b)"><path d="m803.864 418.669c-26.831-33.391-76.92-55.86-134.237-55.86-60.696 0-113.22 25.141-138.716 61.752-25.536-36.611-78.06-61.752-138.756-61.752-56.296 0-105.599 21.644-132.745 54.092 22.47-53.773 60.384-99.674 108.946-131.897 48.562-32.224 105.59-49.323 163.872-49.133 58.282.189 115.198 17.657 163.55 50.196 48.351 32.538 85.966 78.684 108.086 132.602z" fill="#2b186d"/></g><g filter="url(#c)"><path d="m670.208 586.698c0 42.797-22.868 81.314-57.78 104.947-24.093 16.16-52.366 24.779-81.282 24.779s-57.19-8.619-81.282-24.779c-34.913-23.776-57.78-61.817-57.78-104.947z" fill="url(#l)"/></g><g filter="url(#d)"><path d="m612.224 691.629c-23.886 16.172-51.918 24.798-80.587 24.798-28.668 0-56.7-8.626-80.587-24.798 16.887-20.558 46.65-34.168 80.564-34.168s63.77 13.467 80.61 34.168z" fill="url(#m)"/></g><g filter="url(#e)"><path d="m421.566 586.698h51.104l-14.147 60.782c-.412 1.77-2.794 2.092-3.661.495z" fill="url(#o)"/></g><g filter="url(#f)"><path d="m638.759 586.698h-52.087l14.443 60.879c.417 1.757 2.777 2.081 3.652.501z" fill="url(#p)"/></g><g filter="url(#g)"><path d="m428.94 543.478c23.068 0 41.768-18.7 41.768-41.768s-18.7-41.768-41.768-41.768-41.768 18.7-41.768 41.768 18.7 41.768 41.768 41.768z" fill="#2e005b"/></g><g filter="url(#h)"><path d="m417.638 500.241c5.97 0 10.81-4.84 10.81-10.81 0-5.971-4.84-10.811-10.81-10.811-5.971 0-10.811 4.84-10.811 10.811 0 5.97 4.84 10.81 10.811 10.81z" fill="#fff"/></g><g filter="url(#i)"><path d="m628.441 543.478c23.067 0 41.767-18.7 41.767-41.768s-18.7-41.768-41.767-41.768c-23.068 0-41.768 18.7-41.768 41.768s18.7 41.768 41.768 41.768z" fill="#2e005b"/></g><g filter="url(#j)"><path d="m617.138 500.241c5.971 0 10.811-4.84 10.811-10.81 0-5.971-4.84-10.811-10.811-10.811-5.97 0-10.81 4.84-10.81 10.811 0 5.97 4.84 10.81 10.81 10.81z" fill="#fff"/></g></svg>