<svg fill="none" height="1062" viewBox="0 0 1062 1062" width="1062" xmlns="http://www.w3.org/2000/svg" xmlns:xlink="http://www.w3.org/1999/xlink"><filter id="a" color-interpolation-filters="sRGB" filterUnits="userSpaceOnUse" height="818.529" width="769.14" x="146.146" y="107.439"><feFlood flood-opacity="0" result="BackgroundImageFix"/><feBlend in="SourceGraphic" in2="BackgroundImageFix" mode="normal" result="shape"/><feColorMatrix in="SourceAlpha" result="hardAlpha" type="matrix" values="0 0 0 0 0 0 0 0 0 0 0 0 0 0 0 0 0 0 127 0"/><feOffset dy="-50.7978"/><feGaussianBlur stdDeviation="17.2196"/><feComposite in2="hardAlpha" k2="-1" k3="1" operator="arithmetic"/><feColorMatrix type="matrix" values="0 0 0 0 0.717647 0 0 0 0 0.717647 0 0 0 0 0.819608 0 0 0 0.87 0"/><feBlend in2="shape" mode="normal" result="effect1_innerShadow_5520_39262"/><feGaussianBlur result="effect2_foregroundBlur_5520_39262" stdDeviation="3.44392"/></filter><filter id="b" color-interpolation-filters="sRGB" filterUnits="userSpaceOnUse" height="79.4562" width="79.4567" x="401.491" y="284.499"><feFlood flood-opacity="0" result="BackgroundImageFix"/><feBlend in="SourceGraphic" in2="BackgroundImageFix" mode="normal" result="shape"/><feGaussianBlur result="effect1_foregroundBlur_5520_39262" stdDeviation="1.72196"/></filter><filter id="c" color-interpolation-filters="sRGB" filterUnits="userSpaceOnUse" height="25.047" width="25.0473" x="419.034" y="300.939"><feFlood flood-opacity="0" result="BackgroundImageFix"/><feBlend in="SourceGraphic" in2="BackgroundImageFix" mode="normal" result="shape"/><feGaussianBlur result="effect1_foregroundBlur_5520_39262" stdDeviation="1.72196"/></filter><filter id="d" color-interpolation-filters="sRGB" filterUnits="userSpaceOnUse" height="79.4562" width="79.4567" x="575.304" y="284.499"><feFlood flood-opacity="0" result="BackgroundImageFix"/><feBlend in="SourceGraphic" in2="BackgroundImageFix" mode="normal" result="shape"/><feGaussianBlur result="effect1_foregroundBlur_5520_39262" stdDeviation="1.72196"/></filter><filter id="e" color-interpolation-filters="sRGB" filterUnits="userSpaceOnUse" height="25.047" width="25.047" x="592.881" y="300.939"><feFlood flood-opacity="0" result="BackgroundImageFix"/><feBlend in="SourceGraphic" in2="BackgroundImageFix" mode="normal" result="shape"/><feGaussianBlur result="effect1_foregroundBlur_5520_39262" stdDeviation="1.72196"/></filter><filter id="f" color-interpolation-filters="sRGB" filterUnits="userSpaceOnUse" height="185.172" width="233.12" x="314.797" y="481.817"><feFlood flood-opacity="0" result="BackgroundImageFix"/><feColorMatrix in="SourceAlpha" result="hardAlpha" type="matrix" values="0 0 0 0 0 0 0 0 0 0 0 0 0 0 0 0 0 0 127 0"/><feOffset dy="10.3317"/><feGaussianBlur stdDeviation="8.60979"/><feComposite in2="hardAlpha" operator="out"/><feColorMatrix type="matrix" values="0 0 0 0 0.717647 0 0 0 0 0.717647 0 0 0 0 0.819608 0 0 0 0.48 0"/><feBlend in2="BackgroundImageFix" mode="normal" result="effect1_dropShadow_5520_39262"/><feBlend in="SourceGraphic" in2="effect1_dropShadow_5520_39262" mode="normal" result="shape"/><feColorMatrix in="SourceAlpha" result="hardAlpha" type="matrix" values="0 0 0 0 0 0 0 0 0 0 0 0 0 0 0 0 0 0 127 0"/><feOffset dy="-8.60979"/><feGaussianBlur stdDeviation="6.88783"/><feComposite in2="hardAlpha" k2="-1" k3="1" operator="arithmetic"/><feColorMatrix type="matrix" values="0 0 0 0 0.717091 0 0 0 0 0.717091 0 0 0 0 0.820999 0 0 0 0.28 0"/><feBlend in2="shape" mode="normal" result="effect2_innerShadow_5520_39262"/><feGaussianBlur result="effect3_foregroundBlur_5520_39262" stdDeviation="1.72196"/></filter><filter id="g" color-interpolation-filters="sRGB" filterUnits="userSpaceOnUse" height="185.172" width="233.12" x="513.479" y="481.817"><feFlood flood-opacity="0" result="BackgroundImageFix"/><feColorMatrix in="SourceAlpha" result="hardAlpha" type="matrix" values="0 0 0 0 0 0 0 0 0 0 0 0 0 0 0 0 0 0 127 0"/><feOffset dy="10.3317"/><feGaussianBlur stdDeviation="8.60979"/><feComposite in2="hardAlpha" operator="out"/><feColorMatrix type="matrix" values="0 0 0 0 0.717647 0 0 0 0 0.717647 0 0 0 0 0.819608 0 0 0 0.48 0"/><feBlend in2="BackgroundImageFix" mode="normal" result="effect1_dropShadow_5520_39262"/><feBlend in="SourceGraphic" in2="effect1_dropShadow_5520_39262" mode="normal" result="shape"/><feColorMatrix in="SourceAlpha" result="hardAlpha" type="matrix" values="0 0 0 0 0 0 0 0 0 0 0 0 0 0 0 0 0 0 127 0"/><feOffset dy="-8.60979"/><feGaussianBlur stdDeviation="6.88783"/><feComposite in2="hardAlpha" k2="-1" k3="1" operator="arithmetic"/><feColorMatrix type="matrix" values="0 0 0 0 0.717091 0 0 0 0 0.717091 0 0 0 0 0.820999 0 0 0 0.28 0"/><feBlend in2="shape" mode="normal" result="effect2_innerShadow_5520_39262"/><feGaussianBlur result="effect3_foregroundBlur_5520_39262" stdDeviation="1.72196"/></filter><filter id="h" color-interpolation-filters="sRGB" filterUnits="userSpaceOnUse" height="59.1271" width="141.34" x="458.743" y="395.355"><feFlood flood-opacity="0" result="BackgroundImageFix"/><feBlend in="SourceGraphic" in2="BackgroundImageFix" mode="normal" result="shape"/><feGaussianBlur result="effect1_foregroundBlur_5520_39262" stdDeviation="1.72196"/></filter><radialGradient id="i" cx="0" cy="0" gradientTransform="matrix(0 754.474 -694.116 0 530.689 174.498)" gradientUnits="userSpaceOnUse" r="1"><stop offset="0" stop-color="#faf8f8"/><stop offset=".376887" stop-color="#e4e3f1"/><stop offset=".7467" stop-color="#e0dfed"/><stop offset="1" stop-color="#d4d2e1"/></radialGradient><g filter="url(#a)"><path d="m825.775 854.11c-50.949.925-50.332 22.853-74.145 42.006s-48.208 27.171-95.936-1.37c-19.461-11.971-39.857-22.352-60.988-31.043h-.205c-19.599-7.674-34.263-10.278-45.776-9.25-21.277 1.61-39.916 9.627-57.356 19.427-36.935 20.831-68.525 49.955-108.305 44.541-34.913-4.899-53.484-25.354-68.765-43.445-10.279-12.266-19.222-23.47-30.597-27.924-5.045-1.651-10.368-2.28-15.658-1.85-3.426 0-7.195.411-11.135.89-36.97 3.906-90.489 20.387-101.658-16.103-14.391-47.317 45.055-75.584 69.553-133.865 21.552-51.189 49.03-322.071 49.03-322.071 6.163-63.562 35.771-122.553 83.056-165.475 47.284-42.922 108.857-66.7 172.717-66.7s125.432 23.778 172.717 66.7c47.284 42.922 76.893 101.913 83.055 165.475 0 0 21.894 255.943 40.396 299.8 23.984 57.185 75.687 102.514 81.991 138.353s-35.53 41.219-81.991 41.904z" fill="url(#i)"/></g><g filter="url(#b)"><path d="m441.22 360.512c20.039 0 36.284-16.245 36.284-36.284 0-20.04-16.245-36.285-36.284-36.285-20.04 0-36.285 16.245-36.285 36.285 0 20.039 16.245 36.284 36.285 36.284z" fill="#3f004f"/></g><g filter="url(#c)"><path d="m431.558 322.542c5.015 0 9.08-4.065 9.08-9.08 0-5.014-4.065-9.079-9.08-9.079s-9.08 4.065-9.08 9.079c0 5.015 4.065 9.08 9.08 9.08z" fill="#fff"/></g><g filter="url(#d)"><path d="m615.033 360.512c20.039 0 36.284-16.245 36.284-36.284 0-20.04-16.245-36.285-36.284-36.285-20.04 0-36.285 16.245-36.285 36.285 0 20.039 16.245 36.284 36.285 36.284z" fill="#3f004f"/></g><g filter="url(#e)"><path d="m605.405 322.542c5.014 0 9.079-4.065 9.079-9.08 0-5.014-4.065-9.079-9.079-9.079-5.015 0-9.08 4.065-9.08 9.079 0 5.015 4.065 9.08 9.08 9.08z" fill="#fff"/></g><g filter="url(#f)"><path d="m339.712 569.882c14.966 25.895 60.792 54.748 101.802 63.345 60.103 12.621 80.023 5.399 86.732-16.163 8.12-26.204-4.576-39.478-28.59-52.546-26.147-14.237-46.067-24.967-68.429-48.798-22.363-23.832-51.228-33.254-77.856-17.607-23.154 13.549-27.111 48.591-13.659 71.769z" fill="#e2e1ef"/></g><g filter="url(#g)"><path d="m721.684 569.882c-14.966 25.895-60.792 54.748-101.801 63.345-60.104 12.621-80.024 5.399-86.733-16.163-8.119-26.204 4.576-39.478 28.59-52.546 26.147-14.237 46.067-24.967 68.429-48.798 22.363-23.832 51.228-33.254 77.857-17.607 23.154 13.549 27.11 48.591 13.658 71.769z" fill="#e2e1ef"/></g><g filter="url(#h)"><path d="m585.492 425.243c-.093-4.857.844-9.678 2.748-14.146 1.905-4.467 4.734-8.478 8.301-11.768.239-.21 0-.629-.269-.509-4.267 2.072-7.903 5.253-10.529 9.21-2.625 3.958-4.145 8.548-4.401 13.293-4.032 2.125-22.665 11.072-52.018 11.072-28.786 0-47.33-8.588-51.839-10.952-1.194-15.202-10.869-20.947-14.93-22.623-.269 0-.478.329-.239.509 3.583 3.134 6.429 7.024 8.334 11.39 1.905 4.367 2.822 9.102 2.685 13.866.089 4.856-.849 9.677-2.754 14.144-1.904 4.466-4.731 8.478-8.295 11.771-.239.209 0 .628.239.478 4.15-1.915 14.214-8.319 14.93-24.478 16.416 6.877 34.032 10.418 51.824 10.418 17.793 0 35.408-3.541 51.824-10.418.507 16.638 10.78 22.743 14.93 24.538.299 0 .508-.299.269-.509-3.554-3.153-6.366-7.055-8.235-11.428-1.869-4.372-2.748-9.104-2.575-13.858z" fill="#c8cce8"/></g></svg>