<svg fill="none" height="1062" viewBox="0 0 1062 1062" width="1062" xmlns="http://www.w3.org/2000/svg" xmlns:xlink="http://www.w3.org/1999/xlink"><filter id="a" color-interpolation-filters="sRGB" filterUnits="userSpaceOnUse" height="892.13" width="987.257" x="36.8291" y="84.684"><feFlood flood-opacity="0" result="BackgroundImageFix"/><feBlend in="SourceGraphic" in2="BackgroundImageFix" mode="normal" result="shape"/><feGaussianBlur result="effect1_foregroundBlur_5520_39230" stdDeviation="76.0794"/></filter><filter id="b" color-interpolation-filters="sRGB" filterUnits="userSpaceOnUse" height="599.669" width="694.796" x="181.782" y="231.889"><feFlood flood-opacity="0" result="BackgroundImageFix"/><feBlend in="SourceGraphic" in2="BackgroundImageFix" mode="normal" result="shape"/><feGaussianBlur result="effect1_foregroundBlur_5520_39230" stdDeviation="2.96413"/></filter><filter id="c" color-interpolation-filters="sRGB" filterUnits="userSpaceOnUse" height="131.895" width="316.734" x="372.09" y="725.812"><feFlood flood-opacity="0" result="BackgroundImageFix"/><feBlend in="SourceGraphic" in2="BackgroundImageFix" mode="normal" result="shape"/><feGaussianBlur result="effect1_foregroundBlur_5520_39230" stdDeviation="16.3027"/></filter><filter id="d" color-interpolation-filters="sRGB" filterUnits="userSpaceOnUse" height="131.895" width="316.734" x="372.09" y="202.698"><feFlood flood-opacity="0" result="BackgroundImageFix"/><feBlend in="SourceGraphic" in2="BackgroundImageFix" mode="normal" result="shape"/><feGaussianBlur result="effect1_foregroundBlur_5520_39230" stdDeviation="16.3027"/></filter><filter id="e" color-interpolation-filters="sRGB" filterUnits="userSpaceOnUse" height="645.717" width="334.268" x="145.369" y="207.824"><feFlood flood-opacity="0" result="BackgroundImageFix"/><feBlend in="SourceGraphic" in2="BackgroundImageFix" mode="normal" result="shape"/><feGaussianBlur result="effect1_foregroundBlur_5520_39230" stdDeviation="33.0995"/></filter><filter id="f" color-interpolation-filters="sRGB" filterUnits="userSpaceOnUse" height="608.172" width="296.723" x="600.051" y="226.596"><feFlood flood-opacity="0" result="BackgroundImageFix"/><feBlend in="SourceGraphic" in2="BackgroundImageFix" mode="normal" result="shape"/><feGaussianBlur result="effect1_foregroundBlur_5520_39230" stdDeviation="23.713"/></filter><filter id="g" color-interpolation-filters="sRGB" filterUnits="userSpaceOnUse" height="120.923" width="351.874" x="354.76" y="579.802"><feFlood flood-opacity="0" result="BackgroundImageFix"/><feBlend in="SourceGraphic" in2="BackgroundImageFix" mode="normal" result="shape"/><feGaussianBlur result="effect1_foregroundBlur_5520_39230" stdDeviation="1.97609"/></filter><filter id="h" color-interpolation-filters="sRGB" filterUnits="userSpaceOnUse" height="240.412" width="240.634" x="452.683" y="223.48"><feFlood flood-opacity="0" result="BackgroundImageFix"/><feBlend in="SourceGraphic" in2="BackgroundImageFix" mode="normal" result="shape"/><feGaussianBlur result="effect1_foregroundBlur_5520_39230" stdDeviation="30.6294"/></filter><filter id="i" color-interpolation-filters="sRGB" filterUnits="userSpaceOnUse" height="62.7305" width="88.4702" x="388.184" y="427.682"><feFlood flood-opacity="0" result="BackgroundImageFix"/><feBlend in="SourceGraphic" in2="BackgroundImageFix" mode="normal" result="shape"/><feGaussianBlur result="effect1_foregroundBlur_5520_39230" stdDeviation=".988044"/></filter><filter id="j" color-interpolation-filters="sRGB" filterUnits="userSpaceOnUse" height="62.7354" width="88.4702" x="584.738" y="427.677"><feFlood flood-opacity="0" result="BackgroundImageFix"/><feBlend in="SourceGraphic" in2="BackgroundImageFix" mode="normal" result="shape"/><feGaussianBlur result="effect1_foregroundBlur_5520_39230" stdDeviation=".988044"/></filter><linearGradient id="k"><stop offset="0" stop-color="#ff8c22"/><stop offset=".296368" stop-color="#ff8c22"/><stop offset=".598725" stop-color="#e96b0f"/><stop offset="1" stop-color="#e34513"/></linearGradient><radialGradient id="l" cx="0" cy="0" gradientTransform="matrix(499.28392923 296.84572219 -344.8852572 580.08471564 334.004 372.12)" gradientUnits="userSpaceOnUse" r="1" xlink:href="#k"/><linearGradient id="m" gradientUnits="userSpaceOnUse" x1="-165.28" x2="833.289" y1="75.3783" y2="669.069"><stop offset="0" stop-color="#ffdf15"/><stop offset="1" stop-color="#ecff15"/></linearGradient><radialGradient id="n" cx="0" cy="0" gradientTransform="matrix(499.28392923 296.84572219 -344.8852572 580.08471564 332.727 373.198)" gradientUnits="userSpaceOnUse" r="1" xlink:href="#k"/><linearGradient id="o" gradientUnits="userSpaceOnUse" x1="530.697" x2="530.697" y1="583.754" y2="696.772"><stop offset="0" stop-color="#ffcd1e"/><stop offset="1" stop-color="#fff509"/></linearGradient><linearGradient id="p"><stop offset="0" stop-color="#ecff15"/><stop offset="1" stop-color="#ffdf15"/></linearGradient><linearGradient id="q" gradientUnits="userSpaceOnUse" x1="432.419" x2="432.419" xlink:href="#p" y1="488.437" y2="429.47"/><linearGradient id="r" gradientUnits="userSpaceOnUse" x1="628.973" x2="628.973" xlink:href="#p" y1="488.437" y2="429.47"/><path d="m530.448 824.552c-21.241-.065-42.212-4.762-61.452-13.762l-.273-.117h-.311c-11.661 1.963-23.465 2.953-35.291 2.959-134.622 0-244.133-126.933-244.133-282.967s109.511-282.986 244.133-282.986c11.826.006 23.63.995 35.291 2.958h.311l.273-.136c19.24-9 40.211-13.697 61.452-13.762 21.247.065 42.224 4.762 61.471 13.762l.273.136h.292c11.667-1.962 23.478-2.952 35.31-2.958 134.621 0 244.133 126.952 244.133 282.986s-109.512 282.967-244.133 282.967c-11.832-.006-23.643-.996-35.31-2.959h-.292l-.273.117c-19.247 9.001-40.224 13.697-61.471 13.762z" fill="url(#l)"/><g filter="url(#a)"><path d="m530.448 824.655c-21.241-.065-42.212-4.761-61.452-13.762l-.273-.116h-.311c-11.661 1.963-23.465 2.952-35.291 2.958-134.622 0-244.133-126.933-244.133-282.966 0-156.034 109.511-282.987 244.133-282.987 11.826.006 23.63.996 35.291 2.959h.311l.273-.136c19.24-9.001 40.211-13.697 61.452-13.762 21.247.065 42.224 4.761 61.471 13.762l.273.136h.292c11.667-1.962 23.478-2.952 35.31-2.959 134.621 0 244.133 126.953 244.133 282.987 0 156.033-109.512 282.966-244.133 282.966-11.832-.006-23.643-.995-35.31-2.958h-.292l-.273.116c-19.247 9.001-40.224 13.697-61.471 13.762z" fill="url(#m)"/></g><g filter="url(#b)"><path d="m529.17 825.63c-21.241-.065-42.212-4.762-61.452-13.762l-.272-.117h-.312c-11.661 1.963-23.465 2.953-35.29 2.959-134.622 0-244.134-126.933-244.134-282.967s109.512-282.986 244.134-282.986c11.825.006 23.629.995 35.29 2.959h.312l.272-.137c19.24-9 40.211-13.696 61.452-13.762 21.247.065 42.225 4.762 61.472 13.762l.272.137h.292c11.668-1.963 23.478-2.952 35.31-2.959 134.622 0 244.134 126.952 244.134 282.986s-109.512 282.967-244.134 282.967c-11.832-.006-23.642-.996-35.31-2.959h-.292l-.272.117c-19.247 9.001-40.225 13.697-61.472 13.762z" fill="url(#n)"/></g><g filter="url(#c)"><path d="m652.943 761.423c-34.103 37.159-76.46 59.233-122.495 59.233-46.036 0-88.392-22.035-122.476-59.194" stroke="#d13f00" stroke-miterlimit="10" stroke-width="8.89239"/></g><g filter="url(#d)"><path d="m652.943 298.982c-34.103-37.159-76.46-59.233-122.495-59.233-46.036 0-88.392 22.035-122.476 59.194" stroke="#d13f00" stroke-miterlimit="10" stroke-width="8.89239"/></g><g filter="url(#e)"><path d="m245.243 530.692c0 235.53 183.168 256.649 166.681 256.649-110.66 0-200.356-114.845-200.356-256.649 0-141.805 89.696-256.67 200.356-256.67 20.108 0-166.681 21.023-166.681 256.67z" fill="#fff" fill-opacity=".29"/></g><g filter="url(#f)"><path d="m815.673 530.692c0 235.53-183.169 256.649-166.682 256.649 110.66 0 200.356-114.845 200.356-256.649 0-141.805-89.696-256.67-200.356-256.67-20.107 0 166.682 21.023 166.682 256.67z" fill="#d44210"/></g><g filter="url(#g)"><path d="m702.681 583.754s-13.423 74.419-96.908 102.443l-9.482-25.674-36.621-3.075-1.854 38.404c-7.102.614-14.561.92-22.378.92-146.953 0-176.726-113.018-176.726-113.018s22.515 3.917 63.916 6.972l3.18 29.963 40.114 6.561 6.789-33.743c17.56.646 36.934 1.057 58.044 1.057 108.946 0 171.926-10.81 171.926-10.81z" fill="url(#o)"/></g><g filter="url(#h)"><ellipse cx="573" cy="343.686" fill="#f90" rx="51.8605" ry="65.3651" transform="matrix(-.70417584 .71002562 -.71002562 -.70417584 1220.518623 178.856697)"/></g><g filter="url(#i)"><path d="m474.488 449.009c.321-3.371.234-6.766-.258-10.109-.191-1.298-1.276-2.26-2.584-2.377l-76.39-6.853c-1.316-.118-2.562.646-2.973 1.901-1.028 3.138-1.688 6.393-1.962 9.696-.978 11.461 2.517 22.852 9.717 31.667s17.516 14.332 28.677 15.337 22.254-2.585 30.838-9.978c8.584-7.394 13.957-17.987 14.935-29.448z" fill="url(#q)"/></g><g filter="url(#j)"><path d="m670.941 440.974c-.277-3.202-.922-6.359-1.921-9.408-.411-1.253-1.653-2.016-2.967-1.901l-76.314 6.683c-1.305.114-2.391 1.07-2.585 2.365-.485 3.244-.57 6.54-.251 9.811.319 5.654 1.767 11.187 4.26 16.27 2.492 5.083 5.977 9.613 10.248 13.32 4.271 3.708 9.242 6.518 14.617 8.263 5.375 1.746 11.045 2.392 16.674 1.899 5.628-.492 11.101-2.112 16.093-4.764 4.992-2.653 9.402-6.283 12.969-10.676 3.566-4.393 6.216-9.459 7.792-14.898 1.577-5.439 2.047-11.14 1.385-16.764z" fill="url(#r)"/></g></svg>