<svg width="18" height="19" viewBox="0 0 18 19" fill="none" xmlns="http://www.w3.org/2000/svg">
<path fill-rule="evenodd" clip-rule="evenodd" d="M2.24929 15.6875C2.24929 15.8367 2.30855 15.9798 2.41404 16.0852C2.51953 16.1907 2.66261 16.25 2.81179 16.25H9.56179C9.71097 16.25 9.85405 16.1907 9.95954 16.0852C10.065 15.9798 10.1243 15.8367 10.1243 15.6875C10.1243 15.5383 10.065 15.3952 9.95954 15.2898C9.85405 15.1843 9.71097 15.125 9.56179 15.125H4.16967L15.585 3.71075C15.6373 3.65845 15.6788 3.59636 15.7071 3.52803C15.7354 3.4597 15.75 3.38646 15.75 3.3125C15.75 3.23854 15.7354 3.1653 15.7071 3.09697C15.6788 3.02864 15.6373 2.96655 15.585 2.91425C15.5327 2.86195 15.4707 2.82047 15.4023 2.79216C15.334 2.76386 15.2608 2.74929 15.1868 2.74929C15.1128 2.74929 15.0396 2.76386 14.9713 2.79216C14.9029 2.82047 14.8408 2.86195 14.7885 2.91425L3.37429 14.3296V8.9375C3.37429 8.78832 3.31503 8.64524 3.20954 8.53975C3.10405 8.43426 2.96097 8.375 2.81179 8.375C2.66261 8.375 2.51953 8.43426 2.41404 8.53975C2.30855 8.64524 2.24929 8.78832 2.24929 8.9375V15.6875Z" fill="#090909"/>
</svg>
