<svg width="18" height="19" viewBox="0 0 18 19" fill="none" xmlns="http://www.w3.org/2000/svg">
<path fill-rule="evenodd" clip-rule="evenodd" d="M15.7497 3.3125C15.7497 3.16332 15.6905 3.02024 15.585 2.91475C15.4795 2.80926 15.3364 2.75 15.1872 2.75H8.43723C8.28805 2.75 8.14498 2.80926 8.03949 2.91475C7.934 3.02024 7.87473 3.16332 7.87473 3.3125C7.87473 3.46168 7.934 3.60476 8.03949 3.71025C8.14498 3.81574 8.28805 3.875 8.43723 3.875H13.8294L2.41398 15.2892C2.36168 15.3415 2.3202 15.4036 2.2919 15.472C2.26359 15.5403 2.24902 15.6135 2.24902 15.6875C2.24902 15.7615 2.26359 15.8347 2.2919 15.903C2.3202 15.9714 2.36168 16.0335 2.41398 16.0857C2.46628 16.138 2.52837 16.1795 2.5967 16.2078C2.66503 16.2361 2.73827 16.2507 2.81223 16.2507C2.8862 16.2507 2.95943 16.2361 3.02777 16.2078C3.0961 16.1795 3.15819 16.138 3.21048 16.0857L14.6247 4.67037V10.0625C14.6247 10.2117 14.684 10.3548 14.7895 10.4602C14.895 10.5657 15.038 10.625 15.1872 10.625C15.3364 10.625 15.4795 10.5657 15.585 10.4602C15.6905 10.3548 15.7497 10.2117 15.7497 10.0625V3.3125Z" fill="#090909"/>
</svg>
