<svg xmlns="http://www.w3.org/2000/svg" id="flower-6-small" width="120" height="120" viewBox="4.5 10 24 36" class="bg-[#DDDDDD]"><g><rect x="16" y="45" width="1" height="1" fill="#1A4314"/><rect x="16" y="44" width="1" height="1" fill="#1A4314"/><rect x="16" y="43" width="1" height="1" fill="#1A4314"/><rect x="16" y="42" width="1" height="1" fill="#1A4314"/><rect x="16" y="41" width="1" height="1" fill="#1A4314"/><rect x="16" y="40" width="1" height="1" fill="#1A4314"/><rect x="16" y="39" width="1" height="1" fill="#1A4314"/><rect x="16" y="38" width="1" height="1" fill="#1A4314"/><rect x="16" y="37" width="1" height="1" fill="#1A4314"/><rect x="16" y="36" width="1" height="1" fill="#1A4314"/><rect x="16" y="35" width="1" height="1" fill="#1A4314"/><rect x="16" y="34" width="1" height="1" fill="#1A4314"/><rect x="16" y="33" width="1" height="1" fill="#1A4314"/><rect x="16" y="32" width="1" height="1" fill="#1A4314"/><rect x="16" y="31" width="1" height="1" fill="#1A4314"/><rect x="16" y="38" width="1" height="1" fill="#2D6A23"/><rect x="17" y="37" width="1" height="1" fill="#2D6A23"/><rect x="17" y="38" width="1" height="1" fill="#2D6A23"/><rect x="17" y="39" width="1" height="1" fill="#2D6A23"/><rect x="18" y="38" width="1" height="1" fill="#2D6A23"/><rect x="17" y="37" width="1" height="1" fill="#2D6A23"/><rect x="18" y="36" width="1" height="1" fill="#2D6A23"/><rect x="18" y="37" width="1" height="1" fill="#2D6A23"/><rect x="18" y="38" width="1" height="1" fill="#2D6A23"/><rect x="19" y="37" width="1" height="1" fill="#2D6A23"/><rect x="18" y="36" width="1" height="1" fill="#2D6A23"/><rect x="19" y="35" width="1" height="1" fill="#2D6A23"/><rect x="19" y="36" width="1" height="1" fill="#2D6A23"/><rect x="19" y="37" width="1" height="1" fill="#2D6A23"/><rect x="20" y="36" width="1" height="1" fill="#2D6A23"/><rect x="14" y="42" width="1" height="1" fill="#2D6A23"/><rect x="15" y="41" width="1" height="1" fill="#2D6A23"/><rect x="15" y="42" width="1" height="1" fill="#2D6A23"/><rect x="15" y="43" width="1" height="1" fill="#2D6A23"/><rect x="16" y="42" width="1" height="1" fill="#2D6A23"/><rect x="13" y="40" width="1" height="1" fill="#2D6A23"/><rect x="14" y="39" width="1" height="1" fill="#2D6A23"/><rect x="14" y="40" width="1" height="1" fill="#2D6A23"/><rect x="14" y="41" width="1" height="1" fill="#2D6A23"/><rect x="15" y="40" width="1" height="1" fill="#2D6A23"/><rect x="12" y="38" width="1" height="1" fill="#2D6A23"/><rect x="13" y="37" width="1" height="1" fill="#2D6A23"/><rect x="13" y="38" width="1" height="1" fill="#2D6A23"/><rect x="13" y="39" width="1" height="1" fill="#2D6A23"/><rect x="14" y="38" width="1" height="1" fill="#2D6A23"/><rect x="16" y="30" width="1" height="1" fill="#FFB6C1"/><rect x="17" y="29" width="1" height="1" fill="#FFB6C1"/><rect x="17" y="30" width="1" height="1" fill="#FFB6C1"/><rect x="18" y="29" width="1" height="1" fill="#FFB6C1"/><rect x="18" y="30" width="1" height="1" fill="#FFB6C1"/><rect x="18" y="31" width="1" height="1" fill="#FFB6C1"/><rect x="19" y="29" width="1" height="1" fill="#FFB6C1"/><rect x="19" y="30" width="1" height="1" fill="#FFB6C1"/><rect x="16" y="30" width="1" height="1" fill="#FFC0CB"/><rect x="17" y="30" width="1" height="1" fill="#FFC0CB"/><rect x="17" y="31" width="1" height="1" fill="#FFC0CB"/><rect x="18" y="30" width="1" height="1" fill="#FFC0CB"/><rect x="18" y="31" width="1" height="1" fill="#FFC0CB"/><rect x="17" y="32" width="1" height="1" fill="#FFC0CB"/><rect x="19" y="31" width="1" height="1" fill="#FFC0CB"/><rect x="18" y="32" width="1" height="1" fill="#FFC0CB"/><rect x="16" y="30" width="1" height="1" fill="#FFE4E1"/><rect x="17" y="31" width="1" height="1" fill="#FFE4E1"/><rect x="16" y="31" width="1" height="1" fill="#FFE4E1"/><rect x="17" y="32" width="1" height="1" fill="#FFE4E1"/><rect x="16" y="32" width="1" height="1" fill="#FFE4E1"/><rect x="15" y="32" width="1" height="1" fill="#FFE4E1"/><rect x="17" y="33" width="1" height="1" fill="#FFE4E1"/><rect x="16" y="33" width="1" height="1" fill="#FFE4E1"/><rect x="16" y="30" width="1" height="1" fill="#FF4500"/><rect x="16" y="31" width="1" height="1" fill="#FF4500"/><rect x="15" y="31" width="1" height="1" fill="#FF4500"/><rect x="16" y="32" width="1" height="1" fill="#FF4500"/><rect x="15" y="32" width="1" height="1" fill="#FF4500"/><rect x="14" y="31" width="1" height="1" fill="#FF4500"/><rect x="15" y="33" width="1" height="1" fill="#FF4500"/><rect x="14" y="32" width="1" height="1" fill="#FF4500"/><rect x="16" y="30" width="1" height="1" fill="#FFB6C1"/><rect x="15" y="31" width="1" height="1" fill="#FFB6C1"/><rect x="15" y="30" width="1" height="1" fill="#FFB6C1"/><rect x="14" y="31" width="1" height="1" fill="#FFB6C1"/><rect x="14" y="30" width="1" height="1" fill="#FFB6C1"/><rect x="14" y="29" width="1" height="1" fill="#FFB6C1"/><rect x="13" y="31" width="1" height="1" fill="#FFB6C1"/><rect x="13" y="30" width="1" height="1" fill="#FFB6C1"/><rect x="16" y="30" width="1" height="1" fill="#FFC0CB"/><rect x="15" y="30" width="1" height="1" fill="#FFC0CB"/><rect x="15" y="29" width="1" height="1" fill="#FFC0CB"/><rect x="14" y="30" width="1" height="1" fill="#FFC0CB"/><rect x="14" y="29" width="1" height="1" fill="#FFC0CB"/><rect x="15" y="28" width="1" height="1" fill="#FFC0CB"/><rect x="13" y="29" width="1" height="1" fill="#FFC0CB"/><rect x="14" y="28" width="1" height="1" fill="#FFC0CB"/><rect x="16" y="30" width="1" height="1" fill="#FFE4E1"/><rect x="15" y="29" width="1" height="1" fill="#FFE4E1"/><rect x="16" y="29" width="1" height="1" fill="#FFE4E1"/><rect x="15" y="28" width="1" height="1" fill="#FFE4E1"/><rect x="16" y="28" width="1" height="1" fill="#FFE4E1"/><rect x="17" y="28" width="1" height="1" fill="#FFE4E1"/><rect x="15" y="27" width="1" height="1" fill="#FFE4E1"/><rect x="16" y="27" width="1" height="1" fill="#FFE4E1"/><rect x="16" y="30" width="1" height="1" fill="#FF4500"/><rect x="16" y="29" width="1" height="1" fill="#FF4500"/><rect x="17" y="29" width="1" height="1" fill="#FF4500"/><rect x="16" y="28" width="1" height="1" fill="#FF4500"/><rect x="17" y="28" width="1" height="1" fill="#FF4500"/><rect x="18" y="29" width="1" height="1" fill="#FF4500"/><rect x="17" y="27" width="1" height="1" fill="#FF4500"/><rect x="18" y="28" width="1" height="1" fill="#FF4500"/><rect x="16" y="30" width="1" height="1" fill="#FFC0CB"/><rect x="17" y="30" width="1" height="1" fill="#FFC0CB"/><rect x="17" y="30" width="1" height="1" fill="#FFC0CB"/><rect x="18" y="30" width="1" height="1" fill="#FFC0CB"/><rect x="18" y="31" width="1" height="1" fill="#FFC0CB"/><rect x="19" y="31" width="1" height="1" fill="#FFC0CB"/><rect x="16" y="30" width="1" height="1" fill="#FFE4E1"/><rect x="17" y="31" width="1" height="1" fill="#FFE4E1"/><rect x="16" y="31" width="1" height="1" fill="#FFE4E1"/><rect x="18" y="31" width="1" height="1" fill="#FFE4E1"/><rect x="17" y="32" width="1" height="1" fill="#FFE4E1"/><rect x="17" y="33" width="1" height="1" fill="#FFE4E1"/><rect x="16" y="30" width="1" height="1" fill="#FF4500"/><rect x="16" y="31" width="1" height="1" fill="#FF4500"/><rect x="16" y="31" width="1" height="1" fill="#FF4500"/><rect x="16" y="32" width="1" height="1" fill="#FF4500"/><rect x="15" y="32" width="1" height="1" fill="#FF4500"/><rect x="15" y="33" width="1" height="1" fill="#FF4500"/><rect x="16" y="30" width="1" height="1" fill="#FFB6C1"/><rect x="15" y="31" width="1" height="1" fill="#FFB6C1"/><rect x="15" y="30" width="1" height="1" fill="#FFB6C1"/><rect x="15" y="32" width="1" height="1" fill="#FFB6C1"/><rect x="14" y="31" width="1" height="1" fill="#FFB6C1"/><rect x="13" y="31" width="1" height="1" fill="#FFB6C1"/><rect x="16" y="30" width="1" height="1" fill="#FFC0CB"/><rect x="15" y="30" width="1" height="1" fill="#FFC0CB"/><rect x="15" y="30" width="1" height="1" fill="#FFC0CB"/><rect x="14" y="30" width="1" height="1" fill="#FFC0CB"/><rect x="14" y="29" width="1" height="1" fill="#FFC0CB"/><rect x="13" y="29" width="1" height="1" fill="#FFC0CB"/><rect x="16" y="30" width="1" height="1" fill="#FFE4E1"/><rect x="15" y="29" width="1" height="1" fill="#FFE4E1"/><rect x="16" y="29" width="1" height="1" fill="#FFE4E1"/><rect x="14" y="29" width="1" height="1" fill="#FFE4E1"/><rect x="15" y="28" width="1" height="1" fill="#FFE4E1"/><rect x="15" y="27" width="1" height="1" fill="#FFE4E1"/><rect x="16" y="30" width="1" height="1" fill="#FF4500"/><rect x="16" y="29" width="1" height="1" fill="#FF4500"/><rect x="16" y="29" width="1" height="1" fill="#FF4500"/><rect x="16" y="28" width="1" height="1" fill="#FF4500"/><rect x="17" y="28" width="1" height="1" fill="#FF4500"/><rect x="17" y="27" width="1" height="1" fill="#FF4500"/><rect x="16" y="30" width="1" height="1" fill="#FFB6C1"/><rect x="17" y="29" width="1" height="1" fill="#FFB6C1"/><rect x="17" y="30" width="1" height="1" fill="#FFB6C1"/><rect x="17" y="28" width="1" height="1" fill="#FFB6C1"/><rect x="18" y="29" width="1" height="1" fill="#FFB6C1"/><rect x="19" y="29" width="1" height="1" fill="#FFB6C1"/><rect x="16" y="30" width="1" height="1" fill="#FFE4E1"/><rect x="17" y="29" width="1" height="1" fill="#FFE4E1"/><rect x="17" y="30" width="1" height="1" fill="#FFE4E1"/><rect x="18" y="30" width="1" height="1" fill="#FFE4E1"/><rect x="16" y="30" width="1" height="1" fill="#FF4500"/><rect x="17" y="30" width="1" height="1" fill="#FF4500"/><rect x="17" y="31" width="1" height="1" fill="#FF4500"/><rect x="18" y="31" width="1" height="1" fill="#FF4500"/><rect x="16" y="30" width="1" height="1" fill="#FFB6C1"/><rect x="17" y="31" width="1" height="1" fill="#FFB6C1"/><rect x="16" y="31" width="1" height="1" fill="#FFB6C1"/><rect x="16" y="32" width="1" height="1" fill="#FFB6C1"/><rect x="16" y="30" width="1" height="1" fill="#FFC0CB"/><rect x="16" y="31" width="1" height="1" fill="#FFC0CB"/><rect x="15" y="31" width="1" height="1" fill="#FFC0CB"/><rect x="15" y="32" width="1" height="1" fill="#FFC0CB"/><rect x="16" y="30" width="1" height="1" fill="#FFE4E1"/><rect x="15" y="31" width="1" height="1" fill="#FFE4E1"/><rect x="15" y="30" width="1" height="1" fill="#FFE4E1"/><rect x="14" y="30" width="1" height="1" fill="#FFE4E1"/><rect x="16" y="30" width="1" height="1" fill="#FF4500"/><rect x="15" y="30" width="1" height="1" fill="#FF4500"/><rect x="15" y="29" width="1" height="1" fill="#FF4500"/><rect x="14" y="29" width="1" height="1" fill="#FF4500"/><rect x="16" y="30" width="1" height="1" fill="#FFB6C1"/><rect x="15" y="29" width="1" height="1" fill="#FFB6C1"/><rect x="16" y="29" width="1" height="1" fill="#FFB6C1"/><rect x="16" y="28" width="1" height="1" fill="#FFB6C1"/><rect x="16" y="30" width="1" height="1" fill="#FFC0CB"/><rect x="16" y="29" width="1" height="1" fill="#FFC0CB"/><rect x="17" y="29" width="1" height="1" fill="#FFC0CB"/><rect x="17" y="28" width="1" height="1" fill="#FFC0CB"/><rect x="16" y="30" width="1" height="1" fill="#FF4500"/><rect x="17" y="30" width="1" height="1" fill="#FF4500"/><rect x="16" y="30" width="1" height="1" fill="#FFB6C1"/><rect x="17" y="31" width="1" height="1" fill="#FFB6C1"/><rect x="16" y="30" width="1" height="1" fill="#FFC0CB"/><rect x="16" y="31" width="1" height="1" fill="#FFC0CB"/><rect x="16" y="30" width="1" height="1" fill="#FFE4E1"/><rect x="15" y="31" width="1" height="1" fill="#FFE4E1"/><rect x="16" y="30" width="1" height="1" fill="#FF4500"/><rect x="15" y="30" width="1" height="1" fill="#FF4500"/><rect x="16" y="30" width="1" height="1" fill="#FFB6C1"/><rect x="15" y="29" width="1" height="1" fill="#FFB6C1"/><rect x="16" y="30" width="1" height="1" fill="#FFC0CB"/><rect x="16" y="29" width="1" height="1" fill="#FFC0CB"/><rect x="16" y="30" width="1" height="1" fill="#FFE4E1"/><rect x="17" y="29" width="1" height="1" fill="#FFE4E1"/><rect x="16" y="30" width="1" height="1" fill="#FFB6C1"/><rect x="16" y="30" width="1" height="1" fill="#FFC0CB"/><rect x="16" y="30" width="1" height="1" fill="#FFE4E1"/><rect x="16" y="30" width="1" height="1" fill="#FF4500"/><rect x="16" y="30" width="1" height="1" fill="#FFB6C1"/><rect x="16" y="30" width="1" height="1" fill="#FFC0CB"/><rect x="16" y="30" width="1" height="1" fill="#FFE4E1"/><rect x="16" y="30" width="1" height="1" fill="#FF4500"/><rect x="15" y="30" width="1" height="1" fill="#FF6347"/><rect x="16" y="29" width="1" height="1" fill="#FF6347"/><rect x="16" y="30" width="1" height="1" fill="#FF6347"/><rect x="16" y="31" width="1" height="1" fill="#FF6347"/><rect x="17" y="30" width="1" height="1" fill="#FF6347"/><rect x="16.333333333333336" y="30.333333333333332" width="1" height="1" fill="#FF7F50"/></g></svg>