<svg xmlns="http://www.w3.org/2000/svg" id="flower-0-medium" width="120" height="120" viewBox="4.5 10 24 36" class="bg-[#DDDDDD]"><g><rect x="16" y="45" width="1" height="1" fill="#1A4314"/><rect x="16" y="44" width="1" height="1" fill="#1A4314"/><rect x="16" y="43" width="1" height="1" fill="#1A4314"/><rect x="16" y="42" width="1" height="1" fill="#1A4314"/><rect x="16" y="41" width="1" height="1" fill="#1A4314"/><rect x="16" y="40" width="1" height="1" fill="#1A4314"/><rect x="16" y="39" width="1" height="1" fill="#1A4314"/><rect x="16" y="38" width="1" height="1" fill="#1A4314"/><rect x="16" y="37" width="1" height="1" fill="#1A4314"/><rect x="16" y="36" width="1" height="1" fill="#1A4314"/><rect x="16" y="35" width="1" height="1" fill="#1A4314"/><rect x="16" y="34" width="1" height="1" fill="#1A4314"/><rect x="16" y="33" width="1" height="1" fill="#1A4314"/><rect x="16" y="32" width="1" height="1" fill="#1A4314"/><rect x="16" y="31" width="1" height="1" fill="#1A4314"/><rect x="16" y="30" width="1" height="1" fill="#1A4314"/><rect x="16" y="29" width="1" height="1" fill="#1A4314"/><rect x="16" y="28" width="1" height="1" fill="#1A4314"/><rect x="16" y="27" width="1" height="1" fill="#1A4314"/><rect x="16" y="26" width="1" height="1" fill="#1A4314"/><rect x="14" y="35" width="1" height="1" fill="#2D6A23"/><rect x="15" y="34" width="1" height="1" fill="#2D6A23"/><rect x="15" y="35" width="1" height="1" fill="#2D6A23"/><rect x="15" y="36" width="1" height="1" fill="#2D6A23"/><rect x="16" y="35" width="1" height="1" fill="#2D6A23"/><rect x="13" y="33" width="1" height="1" fill="#2D6A23"/><rect x="14" y="32" width="1" height="1" fill="#2D6A23"/><rect x="14" y="33" width="1" height="1" fill="#2D6A23"/><rect x="14" y="34" width="1" height="1" fill="#2D6A23"/><rect x="15" y="33" width="1" height="1" fill="#2D6A23"/><rect x="12" y="31" width="1" height="1" fill="#2D6A23"/><rect x="13" y="30" width="1" height="1" fill="#2D6A23"/><rect x="13" y="31" width="1" height="1" fill="#2D6A23"/><rect x="13" y="32" width="1" height="1" fill="#2D6A23"/><rect x="14" y="31" width="1" height="1" fill="#2D6A23"/><rect x="16" y="41" width="1" height="1" fill="#2D6A23"/><rect x="17" y="40" width="1" height="1" fill="#2D6A23"/><rect x="17" y="41" width="1" height="1" fill="#2D6A23"/><rect x="17" y="42" width="1" height="1" fill="#2D6A23"/><rect x="18" y="41" width="1" height="1" fill="#2D6A23"/><rect x="17" y="39" width="1" height="1" fill="#2D6A23"/><rect x="18" y="38" width="1" height="1" fill="#2D6A23"/><rect x="18" y="39" width="1" height="1" fill="#2D6A23"/><rect x="18" y="40" width="1" height="1" fill="#2D6A23"/><rect x="19" y="39" width="1" height="1" fill="#2D6A23"/><rect x="18" y="37" width="1" height="1" fill="#2D6A23"/><rect x="19" y="36" width="1" height="1" fill="#2D6A23"/><rect x="19" y="37" width="1" height="1" fill="#2D6A23"/><rect x="19" y="38" width="1" height="1" fill="#2D6A23"/><rect x="20" y="37" width="1" height="1" fill="#2D6A23"/><rect x="16" y="25" width="1" height="1" fill="#CD5C5C"/><rect x="17" y="24" width="1" height="1" fill="#CD5C5C"/><rect x="17" y="25" width="1" height="1" fill="#CD5C5C"/><rect x="18" y="23" width="1" height="1" fill="#CD5C5C"/><rect x="18" y="24" width="1" height="1" fill="#CD5C5C"/><rect x="18" y="25" width="1" height="1" fill="#CD5C5C"/><rect x="18" y="26" width="1" height="1" fill="#CD5C5C"/><rect x="19" y="23" width="1" height="1" fill="#CD5C5C"/><rect x="19" y="24" width="1" height="1" fill="#CD5C5C"/><rect x="19" y="25" width="1" height="1" fill="#CD5C5C"/><rect x="19" y="26" width="1" height="1" fill="#CD5C5C"/><rect x="19" y="27" width="1" height="1" fill="#CD5C5C"/><rect x="20" y="23" width="1" height="1" fill="#CD5C5C"/><rect x="20" y="24" width="1" height="1" fill="#CD5C5C"/><rect x="20" y="25" width="1" height="1" fill="#CD5C5C"/><rect x="20" y="26" width="1" height="1" fill="#CD5C5C"/><rect x="21" y="24" width="1" height="1" fill="#CD5C5C"/><rect x="21" y="25" width="1" height="1" fill="#CD5C5C"/><rect x="16" y="25" width="1" height="1" fill="#FF6B6B"/><rect x="17" y="25" width="1" height="1" fill="#FF6B6B"/><rect x="17" y="26" width="1" height="1" fill="#FF6B6B"/><rect x="19" y="25" width="1" height="1" fill="#FF6B6B"/><rect x="18" y="26" width="1" height="1" fill="#FF6B6B"/><rect x="17" y="27" width="1" height="1" fill="#FF6B6B"/><rect x="17" y="27" width="1" height="1" fill="#FF6B6B"/><rect x="20" y="26" width="1" height="1" fill="#FF6B6B"/><rect x="19" y="26" width="1" height="1" fill="#FF6B6B"/><rect x="18" y="27" width="1" height="1" fill="#FF6B6B"/><rect x="17" y="28" width="1" height="1" fill="#FF6B6B"/><rect x="17" y="29" width="1" height="1" fill="#FF6B6B"/><rect x="20" y="27" width="1" height="1" fill="#FF6B6B"/><rect x="19" y="27" width="1" height="1" fill="#FF6B6B"/><rect x="19" y="28" width="1" height="1" fill="#FF6B6B"/><rect x="18" y="29" width="1" height="1" fill="#FF6B6B"/><rect x="20" y="28" width="1" height="1" fill="#FF6B6B"/><rect x="20" y="29" width="1" height="1" fill="#FF6B6B"/><rect x="16" y="25" width="1" height="1" fill="#FF4500"/><rect x="17" y="26" width="1" height="1" fill="#FF4500"/><rect x="16" y="26" width="1" height="1" fill="#FF4500"/><rect x="18" y="27" width="1" height="1" fill="#FF4500"/><rect x="17" y="27" width="1" height="1" fill="#FF4500"/><rect x="16" y="27" width="1" height="1" fill="#FF4500"/><rect x="15" y="27" width="1" height="1" fill="#FF4500"/><rect x="18" y="28" width="1" height="1" fill="#FF4500"/><rect x="17" y="28" width="1" height="1" fill="#FF4500"/><rect x="16" y="28" width="1" height="1" fill="#FF4500"/><rect x="15" y="28" width="1" height="1" fill="#FF4500"/><rect x="14" y="28" width="1" height="1" fill="#FF4500"/><rect x="18" y="29" width="1" height="1" fill="#FF4500"/><rect x="17" y="29" width="1" height="1" fill="#FF4500"/><rect x="16" y="29" width="1" height="1" fill="#FF4500"/><rect x="15" y="29" width="1" height="1" fill="#FF4500"/><rect x="17" y="30" width="1" height="1" fill="#FF4500"/><rect x="16" y="30" width="1" height="1" fill="#FF4500"/><rect x="16" y="25" width="1" height="1" fill="#CD5C5C"/><rect x="16" y="26" width="1" height="1" fill="#CD5C5C"/><rect x="15" y="26" width="1" height="1" fill="#CD5C5C"/><rect x="16" y="28" width="1" height="1" fill="#CD5C5C"/><rect x="15" y="27" width="1" height="1" fill="#CD5C5C"/><rect x="14" y="26" width="1" height="1" fill="#CD5C5C"/><rect x="14" y="26" width="1" height="1" fill="#CD5C5C"/><rect x="15" y="29" width="1" height="1" fill="#CD5C5C"/><rect x="15" y="28" width="1" height="1" fill="#CD5C5C"/><rect x="14" y="27" width="1" height="1" fill="#CD5C5C"/><rect x="13" y="26" width="1" height="1" fill="#CD5C5C"/><rect x="12" y="26" width="1" height="1" fill="#CD5C5C"/><rect x="14" y="29" width="1" height="1" fill="#CD5C5C"/><rect x="14" y="28" width="1" height="1" fill="#CD5C5C"/><rect x="13" y="28" width="1" height="1" fill="#CD5C5C"/><rect x="12" y="27" width="1" height="1" fill="#CD5C5C"/><rect x="13" y="29" width="1" height="1" fill="#CD5C5C"/><rect x="12" y="29" width="1" height="1" fill="#CD5C5C"/><rect x="16" y="25" width="1" height="1" fill="#FF6B6B"/><rect x="15" y="26" width="1" height="1" fill="#FF6B6B"/><rect x="15" y="25" width="1" height="1" fill="#FF6B6B"/><rect x="14" y="27" width="1" height="1" fill="#FF6B6B"/><rect x="14" y="26" width="1" height="1" fill="#FF6B6B"/><rect x="14" y="25" width="1" height="1" fill="#FF6B6B"/><rect x="14" y="24" width="1" height="1" fill="#FF6B6B"/><rect x="13" y="27" width="1" height="1" fill="#FF6B6B"/><rect x="13" y="26" width="1" height="1" fill="#FF6B6B"/><rect x="13" y="25" width="1" height="1" fill="#FF6B6B"/><rect x="13" y="24" width="1" height="1" fill="#FF6B6B"/><rect x="13" y="23" width="1" height="1" fill="#FF6B6B"/><rect x="12" y="27" width="1" height="1" fill="#FF6B6B"/><rect x="12" y="26" width="1" height="1" fill="#FF6B6B"/><rect x="12" y="25" width="1" height="1" fill="#FF6B6B"/><rect x="12" y="24" width="1" height="1" fill="#FF6B6B"/><rect x="11" y="26" width="1" height="1" fill="#FF6B6B"/><rect x="11" y="25" width="1" height="1" fill="#FF6B6B"/><rect x="16" y="25" width="1" height="1" fill="#FF4500"/><rect x="15" y="25" width="1" height="1" fill="#FF4500"/><rect x="15" y="24" width="1" height="1" fill="#FF4500"/><rect x="13" y="25" width="1" height="1" fill="#FF4500"/><rect x="14" y="24" width="1" height="1" fill="#FF4500"/><rect x="15" y="23" width="1" height="1" fill="#FF4500"/><rect x="15" y="23" width="1" height="1" fill="#FF4500"/><rect x="12" y="24" width="1" height="1" fill="#FF4500"/><rect x="13" y="24" width="1" height="1" fill="#FF4500"/><rect x="14" y="23" width="1" height="1" fill="#FF4500"/><rect x="15" y="22" width="1" height="1" fill="#FF4500"/><rect x="15" y="21" width="1" height="1" fill="#FF4500"/><rect x="12" y="23" width="1" height="1" fill="#FF4500"/><rect x="13" y="23" width="1" height="1" fill="#FF4500"/><rect x="13" y="22" width="1" height="1" fill="#FF4500"/><rect x="14" y="21" width="1" height="1" fill="#FF4500"/><rect x="12" y="22" width="1" height="1" fill="#FF4500"/><rect x="12" y="21" width="1" height="1" fill="#FF4500"/><rect x="16" y="25" width="1" height="1" fill="#CD5C5C"/><rect x="15" y="24" width="1" height="1" fill="#CD5C5C"/><rect x="16" y="24" width="1" height="1" fill="#CD5C5C"/><rect x="14" y="23" width="1" height="1" fill="#CD5C5C"/><rect x="15" y="23" width="1" height="1" fill="#CD5C5C"/><rect x="16" y="23" width="1" height="1" fill="#CD5C5C"/><rect x="17" y="23" width="1" height="1" fill="#CD5C5C"/><rect x="14" y="22" width="1" height="1" fill="#CD5C5C"/><rect x="15" y="22" width="1" height="1" fill="#CD5C5C"/><rect x="16" y="22" width="1" height="1" fill="#CD5C5C"/><rect x="17" y="22" width="1" height="1" fill="#CD5C5C"/><rect x="18" y="22" width="1" height="1" fill="#CD5C5C"/><rect x="14" y="21" width="1" height="1" fill="#CD5C5C"/><rect x="15" y="21" width="1" height="1" fill="#CD5C5C"/><rect x="16" y="21" width="1" height="1" fill="#CD5C5C"/><rect x="17" y="21" width="1" height="1" fill="#CD5C5C"/><rect x="15" y="20" width="1" height="1" fill="#CD5C5C"/><rect x="16" y="20" width="1" height="1" fill="#CD5C5C"/><rect x="16" y="25" width="1" height="1" fill="#FF6B6B"/><rect x="16" y="24" width="1" height="1" fill="#FF6B6B"/><rect x="17" y="24" width="1" height="1" fill="#FF6B6B"/><rect x="16" y="22" width="1" height="1" fill="#FF6B6B"/><rect x="17" y="23" width="1" height="1" fill="#FF6B6B"/><rect x="18" y="24" width="1" height="1" fill="#FF6B6B"/><rect x="18" y="24" width="1" height="1" fill="#FF6B6B"/><rect x="17" y="21" width="1" height="1" fill="#FF6B6B"/><rect x="17" y="22" width="1" height="1" fill="#FF6B6B"/><rect x="18" y="23" width="1" height="1" fill="#FF6B6B"/><rect x="19" y="24" width="1" height="1" fill="#FF6B6B"/><rect x="20" y="24" width="1" height="1" fill="#FF6B6B"/><rect x="18" y="21" width="1" height="1" fill="#FF6B6B"/><rect x="18" y="22" width="1" height="1" fill="#FF6B6B"/><rect x="19" y="22" width="1" height="1" fill="#FF6B6B"/><rect x="20" y="23" width="1" height="1" fill="#FF6B6B"/><rect x="19" y="21" width="1" height="1" fill="#FF6B6B"/><rect x="20" y="21" width="1" height="1" fill="#FF6B6B"/><rect x="16" y="25" width="1" height="1" fill="#FF6B6B"/><rect x="17" y="24" width="1" height="1" fill="#FF6B6B"/><rect x="17" y="25" width="1" height="1" fill="#FF6B6B"/><rect x="18" y="24" width="1" height="1" fill="#FF6B6B"/><rect x="18" y="25" width="1" height="1" fill="#FF6B6B"/><rect x="18" y="26" width="1" height="1" fill="#FF6B6B"/><rect x="17" y="27" width="1" height="1" fill="#FF6B6B"/><rect x="19" y="25" width="1" height="1" fill="#FF6B6B"/><rect x="19" y="26" width="1" height="1" fill="#FF6B6B"/><rect x="19" y="27" width="1" height="1" fill="#FF6B6B"/><rect x="20" y="26" width="1" height="1" fill="#FF6B6B"/><rect x="20" y="27" width="1" height="1" fill="#FF6B6B"/><rect x="16" y="25" width="1" height="1" fill="#FF4500"/><rect x="17" y="26" width="1" height="1" fill="#FF4500"/><rect x="16" y="26" width="1" height="1" fill="#FF4500"/><rect x="18" y="26" width="1" height="1" fill="#FF4500"/><rect x="17" y="27" width="1" height="1" fill="#FF4500"/><rect x="16" y="27" width="1" height="1" fill="#FF4500"/><rect x="15" y="27" width="1" height="1" fill="#FF4500"/><rect x="19" y="27" width="1" height="1" fill="#FF4500"/><rect x="18" y="28" width="1" height="1" fill="#FF4500"/><rect x="17" y="28" width="1" height="1" fill="#FF4500"/><rect x="18" y="28" width="1" height="1" fill="#FF4500"/><rect x="17" y="29" width="1" height="1" fill="#FF4500"/><rect x="16" y="25" width="1" height="1" fill="#CD5C5C"/><rect x="17" y="26" width="1" height="1" fill="#CD5C5C"/><rect x="16" y="26" width="1" height="1" fill="#CD5C5C"/><rect x="17" y="27" width="1" height="1" fill="#CD5C5C"/><rect x="16" y="27" width="1" height="1" fill="#CD5C5C"/><rect x="15" y="27" width="1" height="1" fill="#CD5C5C"/><rect x="14" y="26" width="1" height="1" fill="#CD5C5C"/><rect x="16" y="28" width="1" height="1" fill="#CD5C5C"/><rect x="15" y="28" width="1" height="1" fill="#CD5C5C"/><rect x="14" y="28" width="1" height="1" fill="#CD5C5C"/><rect x="15" y="29" width="1" height="1" fill="#CD5C5C"/><rect x="14" y="29" width="1" height="1" fill="#CD5C5C"/><rect x="16" y="25" width="1" height="1" fill="#FF6B6B"/><rect x="15" y="26" width="1" height="1" fill="#FF6B6B"/><rect x="15" y="25" width="1" height="1" fill="#FF6B6B"/><rect x="15" y="27" width="1" height="1" fill="#FF6B6B"/><rect x="14" y="26" width="1" height="1" fill="#FF6B6B"/><rect x="14" y="25" width="1" height="1" fill="#FF6B6B"/><rect x="14" y="24" width="1" height="1" fill="#FF6B6B"/><rect x="14" y="28" width="1" height="1" fill="#FF6B6B"/><rect x="13" y="27" width="1" height="1" fill="#FF6B6B"/><rect x="13" y="26" width="1" height="1" fill="#FF6B6B"/><rect x="13" y="27" width="1" height="1" fill="#FF6B6B"/><rect x="12" y="26" width="1" height="1" fill="#FF6B6B"/><rect x="16" y="25" width="1" height="1" fill="#FF4500"/><rect x="15" y="26" width="1" height="1" fill="#FF4500"/><rect x="15" y="25" width="1" height="1" fill="#FF4500"/><rect x="14" y="26" width="1" height="1" fill="#FF4500"/><rect x="14" y="25" width="1" height="1" fill="#FF4500"/><rect x="14" y="24" width="1" height="1" fill="#FF4500"/><rect x="15" y="23" width="1" height="1" fill="#FF4500"/><rect x="13" y="25" width="1" height="1" fill="#FF4500"/><rect x="13" y="24" width="1" height="1" fill="#FF4500"/><rect x="13" y="23" width="1" height="1" fill="#FF4500"/><rect x="12" y="24" width="1" height="1" fill="#FF4500"/><rect x="12" y="23" width="1" height="1" fill="#FF4500"/><rect x="16" y="25" width="1" height="1" fill="#CD5C5C"/><rect x="15" y="24" width="1" height="1" fill="#CD5C5C"/><rect x="16" y="24" width="1" height="1" fill="#CD5C5C"/><rect x="14" y="24" width="1" height="1" fill="#CD5C5C"/><rect x="15" y="23" width="1" height="1" fill="#CD5C5C"/><rect x="16" y="23" width="1" height="1" fill="#CD5C5C"/><rect x="17" y="23" width="1" height="1" fill="#CD5C5C"/><rect x="13" y="23" width="1" height="1" fill="#CD5C5C"/><rect x="14" y="22" width="1" height="1" fill="#CD5C5C"/><rect x="15" y="22" width="1" height="1" fill="#CD5C5C"/><rect x="14" y="22" width="1" height="1" fill="#CD5C5C"/><rect x="15" y="21" width="1" height="1" fill="#CD5C5C"/><rect x="16" y="25" width="1" height="1" fill="#FF6B6B"/><rect x="15" y="24" width="1" height="1" fill="#FF6B6B"/><rect x="16" y="24" width="1" height="1" fill="#FF6B6B"/><rect x="15" y="23" width="1" height="1" fill="#FF6B6B"/><rect x="16" y="23" width="1" height="1" fill="#FF6B6B"/><rect x="17" y="23" width="1" height="1" fill="#FF6B6B"/><rect x="18" y="24" width="1" height="1" fill="#FF6B6B"/><rect x="16" y="22" width="1" height="1" fill="#FF6B6B"/><rect x="17" y="22" width="1" height="1" fill="#FF6B6B"/><rect x="18" y="22" width="1" height="1" fill="#FF6B6B"/><rect x="17" y="21" width="1" height="1" fill="#FF6B6B"/><rect x="18" y="21" width="1" height="1" fill="#FF6B6B"/><rect x="16" y="25" width="1" height="1" fill="#FF4500"/><rect x="17" y="24" width="1" height="1" fill="#FF4500"/><rect x="17" y="25" width="1" height="1" fill="#FF4500"/><rect x="17" y="23" width="1" height="1" fill="#FF4500"/><rect x="18" y="24" width="1" height="1" fill="#FF4500"/><rect x="18" y="25" width="1" height="1" fill="#FF4500"/><rect x="18" y="26" width="1" height="1" fill="#FF4500"/><rect x="18" y="22" width="1" height="1" fill="#FF4500"/><rect x="19" y="23" width="1" height="1" fill="#FF4500"/><rect x="19" y="24" width="1" height="1" fill="#FF4500"/><rect x="19" y="23" width="1" height="1" fill="#FF4500"/><rect x="20" y="24" width="1" height="1" fill="#FF4500"/><rect x="16" y="25" width="1" height="1" fill="#FF4500"/><rect x="17" y="24" width="1" height="1" fill="#FF4500"/><rect x="17" y="25" width="1" height="1" fill="#FF4500"/><rect x="18" y="24" width="1" height="1" fill="#FF4500"/><rect x="18" y="25" width="1" height="1" fill="#FF4500"/><rect x="18" y="26" width="1" height="1" fill="#FF4500"/><rect x="19" y="24" width="1" height="1" fill="#FF4500"/><rect x="19" y="25" width="1" height="1" fill="#FF4500"/><rect x="16" y="25" width="1" height="1" fill="#CD5C5C"/><rect x="17" y="25" width="1" height="1" fill="#CD5C5C"/><rect x="17" y="26" width="1" height="1" fill="#CD5C5C"/><rect x="18" y="26" width="1" height="1" fill="#CD5C5C"/><rect x="18" y="26" width="1" height="1" fill="#CD5C5C"/><rect x="17" y="27" width="1" height="1" fill="#CD5C5C"/><rect x="19" y="27" width="1" height="1" fill="#CD5C5C"/><rect x="18" y="27" width="1" height="1" fill="#CD5C5C"/><rect x="16" y="25" width="1" height="1" fill="#FF6B6B"/><rect x="17" y="26" width="1" height="1" fill="#FF6B6B"/><rect x="16" y="26" width="1" height="1" fill="#FF6B6B"/><rect x="17" y="27" width="1" height="1" fill="#FF6B6B"/><rect x="16" y="27" width="1" height="1" fill="#FF6B6B"/><rect x="15" y="27" width="1" height="1" fill="#FF6B6B"/><rect x="17" y="28" width="1" height="1" fill="#FF6B6B"/><rect x="16" y="28" width="1" height="1" fill="#FF6B6B"/><rect x="16" y="25" width="1" height="1" fill="#FF4500"/><rect x="16" y="26" width="1" height="1" fill="#FF4500"/><rect x="15" y="26" width="1" height="1" fill="#FF4500"/><rect x="15" y="27" width="1" height="1" fill="#FF4500"/><rect x="15" y="27" width="1" height="1" fill="#FF4500"/><rect x="14" y="26" width="1" height="1" fill="#FF4500"/><rect x="14" y="28" width="1" height="1" fill="#FF4500"/><rect x="14" y="27" width="1" height="1" fill="#FF4500"/><rect x="16" y="25" width="1" height="1" fill="#CD5C5C"/><rect x="15" y="26" width="1" height="1" fill="#CD5C5C"/><rect x="15" y="25" width="1" height="1" fill="#CD5C5C"/><rect x="14" y="26" width="1" height="1" fill="#CD5C5C"/><rect x="14" y="25" width="1" height="1" fill="#CD5C5C"/><rect x="14" y="24" width="1" height="1" fill="#CD5C5C"/><rect x="13" y="26" width="1" height="1" fill="#CD5C5C"/><rect x="13" y="25" width="1" height="1" fill="#CD5C5C"/><rect x="16" y="25" width="1" height="1" fill="#FF6B6B"/><rect x="15" y="25" width="1" height="1" fill="#FF6B6B"/><rect x="15" y="24" width="1" height="1" fill="#FF6B6B"/><rect x="14" y="24" width="1" height="1" fill="#FF6B6B"/><rect x="14" y="24" width="1" height="1" fill="#FF6B6B"/><rect x="15" y="23" width="1" height="1" fill="#FF6B6B"/><rect x="13" y="23" width="1" height="1" fill="#FF6B6B"/><rect x="14" y="23" width="1" height="1" fill="#FF6B6B"/><rect x="16" y="25" width="1" height="1" fill="#FF4500"/><rect x="15" y="24" width="1" height="1" fill="#FF4500"/><rect x="16" y="24" width="1" height="1" fill="#FF4500"/><rect x="15" y="23" width="1" height="1" fill="#FF4500"/><rect x="16" y="23" width="1" height="1" fill="#FF4500"/><rect x="17" y="23" width="1" height="1" fill="#FF4500"/><rect x="15" y="22" width="1" height="1" fill="#FF4500"/><rect x="16" y="22" width="1" height="1" fill="#FF4500"/><rect x="16" y="25" width="1" height="1" fill="#CD5C5C"/><rect x="16" y="24" width="1" height="1" fill="#CD5C5C"/><rect x="17" y="24" width="1" height="1" fill="#CD5C5C"/><rect x="17" y="23" width="1" height="1" fill="#CD5C5C"/><rect x="17" y="23" width="1" height="1" fill="#CD5C5C"/><rect x="18" y="24" width="1" height="1" fill="#CD5C5C"/><rect x="18" y="22" width="1" height="1" fill="#CD5C5C"/><rect x="18" y="23" width="1" height="1" fill="#CD5C5C"/><rect x="16" y="25" width="1" height="1" fill="#CD5C5C"/><rect x="17" y="25" width="1" height="1" fill="#CD5C5C"/><rect x="17" y="26" width="1" height="1" fill="#CD5C5C"/><rect x="18" y="25" width="1" height="1" fill="#CD5C5C"/><rect x="16" y="25" width="1" height="1" fill="#FF6B6B"/><rect x="17" y="26" width="1" height="1" fill="#FF6B6B"/><rect x="16" y="26" width="1" height="1" fill="#FF6B6B"/><rect x="17" y="27" width="1" height="1" fill="#FF6B6B"/><rect x="16" y="25" width="1" height="1" fill="#FF4500"/><rect x="16" y="26" width="1" height="1" fill="#FF4500"/><rect x="15" y="26" width="1" height="1" fill="#FF4500"/><rect x="16" y="27" width="1" height="1" fill="#FF4500"/><rect x="16" y="25" width="1" height="1" fill="#CD5C5C"/><rect x="15" y="26" width="1" height="1" fill="#CD5C5C"/><rect x="15" y="25" width="1" height="1" fill="#CD5C5C"/><rect x="14" y="26" width="1" height="1" fill="#CD5C5C"/><rect x="16" y="25" width="1" height="1" fill="#FF6B6B"/><rect x="15" y="25" width="1" height="1" fill="#FF6B6B"/><rect x="15" y="24" width="1" height="1" fill="#FF6B6B"/><rect x="14" y="25" width="1" height="1" fill="#FF6B6B"/><rect x="16" y="25" width="1" height="1" fill="#FF4500"/><rect x="15" y="24" width="1" height="1" fill="#FF4500"/><rect x="16" y="24" width="1" height="1" fill="#FF4500"/><rect x="15" y="23" width="1" height="1" fill="#FF4500"/><rect x="16" y="25" width="1" height="1" fill="#CD5C5C"/><rect x="16" y="24" width="1" height="1" fill="#CD5C5C"/><rect x="17" y="24" width="1" height="1" fill="#CD5C5C"/><rect x="16" y="23" width="1" height="1" fill="#CD5C5C"/><rect x="16" y="25" width="1" height="1" fill="#FF6B6B"/><rect x="17" y="24" width="1" height="1" fill="#FF6B6B"/><rect x="17" y="25" width="1" height="1" fill="#FF6B6B"/><rect x="18" y="24" width="1" height="1" fill="#FF6B6B"/><rect x="16" y="25" width="1" height="1" fill="#FF6B6B"/><rect x="17" y="25" width="1" height="1" fill="#FF6B6B"/><rect x="16" y="25" width="1" height="1" fill="#FF4500"/><rect x="17" y="26" width="1" height="1" fill="#FF4500"/><rect x="16" y="25" width="1" height="1" fill="#CD5C5C"/><rect x="16" y="26" width="1" height="1" fill="#CD5C5C"/><rect x="16" y="25" width="1" height="1" fill="#FF6B6B"/><rect x="15" y="26" width="1" height="1" fill="#FF6B6B"/><rect x="16" y="25" width="1" height="1" fill="#FF4500"/><rect x="15" y="25" width="1" height="1" fill="#FF4500"/><rect x="16" y="25" width="1" height="1" fill="#CD5C5C"/><rect x="15" y="24" width="1" height="1" fill="#CD5C5C"/><rect x="16" y="25" width="1" height="1" fill="#FF6B6B"/><rect x="16" y="24" width="1" height="1" fill="#FF6B6B"/><rect x="16" y="25" width="1" height="1" fill="#FF4500"/><rect x="17" y="24" width="1" height="1" fill="#FF4500"/><rect x="15.5" y="24.5" width="1" height="1" fill="#FF1493"/><rect x="15.5" y="25.5" width="1" height="1" fill="#FF1493"/><rect x="16.5" y="24.5" width="1" height="1" fill="#FF1493"/><rect x="16.5" y="25.5" width="1" height="1" fill="#FF1493"/><rect x="15" y="25" width="1" height="1" fill="#C71585"/><rect x="16" y="24" width="1" height="1" fill="#C71585"/><rect x="16" y="25" width="1" height="1" fill="#C71585"/><rect x="16" y="26" width="1" height="1" fill="#C71585"/><rect x="17" y="25" width="1" height="1" fill="#C71585"/></g></svg>