<svg xmlns="http://www.w3.org/2000/svg" id="flower-4-medium" width="120" height="120" viewBox="4.5 10 24 36" class="bg-[#DDDDDD]"><g><rect x="16" y="45" width="1" height="1" fill="#1A4314"/><rect x="16" y="44" width="1" height="1" fill="#1A4314"/><rect x="16" y="43" width="1" height="1" fill="#1A4314"/><rect x="16" y="42" width="1" height="1" fill="#1A4314"/><rect x="16" y="41" width="1" height="1" fill="#1A4314"/><rect x="16" y="40" width="1" height="1" fill="#1A4314"/><rect x="16" y="39" width="1" height="1" fill="#1A4314"/><rect x="16" y="38" width="1" height="1" fill="#1A4314"/><rect x="16" y="37" width="1" height="1" fill="#1A4314"/><rect x="16" y="36" width="1" height="1" fill="#1A4314"/><rect x="16" y="35" width="1" height="1" fill="#1A4314"/><rect x="16" y="34" width="1" height="1" fill="#1A4314"/><rect x="16" y="33" width="1" height="1" fill="#1A4314"/><rect x="16" y="32" width="1" height="1" fill="#1A4314"/><rect x="16" y="31" width="1" height="1" fill="#1A4314"/><rect x="16" y="30" width="1" height="1" fill="#1A4314"/><rect x="16" y="29" width="1" height="1" fill="#1A4314"/><rect x="16" y="28" width="1" height="1" fill="#1A4314"/><rect x="16" y="27" width="1" height="1" fill="#1A4314"/><rect x="16" y="26" width="1" height="1" fill="#1A4314"/><rect x="16" y="35" width="1" height="1" fill="#2D6A23"/><rect x="17" y="34" width="1" height="1" fill="#2D6A23"/><rect x="17" y="35" width="1" height="1" fill="#2D6A23"/><rect x="17" y="36" width="1" height="1" fill="#2D6A23"/><rect x="18" y="35" width="1" height="1" fill="#2D6A23"/><rect x="17" y="34" width="1" height="1" fill="#2D6A23"/><rect x="18" y="33" width="1" height="1" fill="#2D6A23"/><rect x="18" y="34" width="1" height="1" fill="#2D6A23"/><rect x="18" y="35" width="1" height="1" fill="#2D6A23"/><rect x="19" y="34" width="1" height="1" fill="#2D6A23"/><rect x="18" y="33" width="1" height="1" fill="#2D6A23"/><rect x="19" y="32" width="1" height="1" fill="#2D6A23"/><rect x="19" y="33" width="1" height="1" fill="#2D6A23"/><rect x="19" y="34" width="1" height="1" fill="#2D6A23"/><rect x="20" y="33" width="1" height="1" fill="#2D6A23"/><rect x="14" y="41" width="1" height="1" fill="#2D6A23"/><rect x="15" y="40" width="1" height="1" fill="#2D6A23"/><rect x="15" y="41" width="1" height="1" fill="#2D6A23"/><rect x="15" y="42" width="1" height="1" fill="#2D6A23"/><rect x="16" y="41" width="1" height="1" fill="#2D6A23"/><rect x="13" y="40" width="1" height="1" fill="#2D6A23"/><rect x="14" y="39" width="1" height="1" fill="#2D6A23"/><rect x="14" y="40" width="1" height="1" fill="#2D6A23"/><rect x="14" y="41" width="1" height="1" fill="#2D6A23"/><rect x="15" y="40" width="1" height="1" fill="#2D6A23"/><rect x="12" y="39" width="1" height="1" fill="#2D6A23"/><rect x="13" y="38" width="1" height="1" fill="#2D6A23"/><rect x="13" y="39" width="1" height="1" fill="#2D6A23"/><rect x="13" y="40" width="1" height="1" fill="#2D6A23"/><rect x="14" y="39" width="1" height="1" fill="#2D6A23"/><rect x="14" y="25" width="1" height="1" fill="#9370DB"/><rect x="15" y="24" width="1" height="1" fill="#9370DB"/><rect x="15" y="25" width="1" height="1" fill="#9370DB"/><rect x="15" y="26" width="1" height="1" fill="#9370DB"/><rect x="16" y="23" width="1" height="1" fill="#9370DB"/><rect x="16" y="24" width="1" height="1" fill="#9370DB"/><rect x="16" y="25" width="1" height="1" fill="#9370DB"/><rect x="16" y="26" width="1" height="1" fill="#9370DB"/><rect x="16" y="27" width="1" height="1" fill="#9370DB"/><rect x="17" y="24" width="1" height="1" fill="#9370DB"/><rect x="17" y="25" width="1" height="1" fill="#9370DB"/><rect x="17" y="26" width="1" height="1" fill="#9370DB"/><rect x="18" y="25" width="1" height="1" fill="#9370DB"/><rect x="14" y="25" width="1" height="1" fill="#BA55D3"/><rect x="15" y="24" width="1" height="1" fill="#BA55D3"/><rect x="15" y="25" width="1" height="1" fill="#BA55D3"/><rect x="15" y="26" width="1" height="1" fill="#BA55D3"/><rect x="16" y="25" width="1" height="1" fill="#BA55D3"/><rect x="16" y="25" width="1" height="1" fill="#BA55D3"/><rect x="17" y="24" width="1" height="1" fill="#BA55D3"/><rect x="17" y="25" width="1" height="1" fill="#BA55D3"/><rect x="17" y="26" width="1" height="1" fill="#BA55D3"/><rect x="18" y="25" width="1" height="1" fill="#BA55D3"/><rect x="14" y="24" width="1" height="1" fill="#BA55D3"/><rect x="15" y="23" width="1" height="1" fill="#BA55D3"/><rect x="15" y="24" width="1" height="1" fill="#BA55D3"/><rect x="15" y="25" width="1" height="1" fill="#BA55D3"/><rect x="16" y="22" width="1" height="1" fill="#BA55D3"/><rect x="16" y="23" width="1" height="1" fill="#BA55D3"/><rect x="16" y="24" width="1" height="1" fill="#BA55D3"/><rect x="16" y="25" width="1" height="1" fill="#BA55D3"/><rect x="16" y="26" width="1" height="1" fill="#BA55D3"/><rect x="17" y="23" width="1" height="1" fill="#BA55D3"/><rect x="17" y="24" width="1" height="1" fill="#BA55D3"/><rect x="17" y="25" width="1" height="1" fill="#BA55D3"/><rect x="18" y="24" width="1" height="1" fill="#BA55D3"/><rect x="14" y="24" width="1" height="1" fill="#E6E6FA"/><rect x="15" y="23" width="1" height="1" fill="#E6E6FA"/><rect x="15" y="24" width="1" height="1" fill="#E6E6FA"/><rect x="15" y="25" width="1" height="1" fill="#E6E6FA"/><rect x="16" y="24" width="1" height="1" fill="#E6E6FA"/><rect x="16" y="24" width="1" height="1" fill="#E6E6FA"/><rect x="17" y="23" width="1" height="1" fill="#E6E6FA"/><rect x="17" y="24" width="1" height="1" fill="#E6E6FA"/><rect x="17" y="25" width="1" height="1" fill="#E6E6FA"/><rect x="18" y="24" width="1" height="1" fill="#E6E6FA"/><rect x="14" y="23" width="1" height="1" fill="#E6E6FA"/><rect x="15" y="22" width="1" height="1" fill="#E6E6FA"/><rect x="15" y="23" width="1" height="1" fill="#E6E6FA"/><rect x="15" y="24" width="1" height="1" fill="#E6E6FA"/><rect x="16" y="21" width="1" height="1" fill="#E6E6FA"/><rect x="16" y="22" width="1" height="1" fill="#E6E6FA"/><rect x="16" y="23" width="1" height="1" fill="#E6E6FA"/><rect x="16" y="24" width="1" height="1" fill="#E6E6FA"/><rect x="16" y="25" width="1" height="1" fill="#E6E6FA"/><rect x="17" y="22" width="1" height="1" fill="#E6E6FA"/><rect x="17" y="23" width="1" height="1" fill="#E6E6FA"/><rect x="17" y="24" width="1" height="1" fill="#E6E6FA"/><rect x="18" y="23" width="1" height="1" fill="#E6E6FA"/><rect x="14" y="23" width="1" height="1" fill="#D8BFD8"/><rect x="15" y="22" width="1" height="1" fill="#D8BFD8"/><rect x="15" y="23" width="1" height="1" fill="#D8BFD8"/><rect x="15" y="24" width="1" height="1" fill="#D8BFD8"/><rect x="16" y="23" width="1" height="1" fill="#D8BFD8"/><rect x="16" y="23" width="1" height="1" fill="#D8BFD8"/><rect x="17" y="22" width="1" height="1" fill="#D8BFD8"/><rect x="17" y="23" width="1" height="1" fill="#D8BFD8"/><rect x="17" y="24" width="1" height="1" fill="#D8BFD8"/><rect x="18" y="23" width="1" height="1" fill="#D8BFD8"/><rect x="14" y="22" width="1" height="1" fill="#9370DB"/><rect x="15" y="21" width="1" height="1" fill="#9370DB"/><rect x="15" y="22" width="1" height="1" fill="#9370DB"/><rect x="15" y="23" width="1" height="1" fill="#9370DB"/><rect x="16" y="20" width="1" height="1" fill="#9370DB"/><rect x="16" y="21" width="1" height="1" fill="#9370DB"/><rect x="16" y="22" width="1" height="1" fill="#9370DB"/><rect x="16" y="23" width="1" height="1" fill="#9370DB"/><rect x="16" y="24" width="1" height="1" fill="#9370DB"/><rect x="17" y="21" width="1" height="1" fill="#9370DB"/><rect x="17" y="22" width="1" height="1" fill="#9370DB"/><rect x="17" y="23" width="1" height="1" fill="#9370DB"/><rect x="18" y="22" width="1" height="1" fill="#9370DB"/><rect x="14" y="22" width="1" height="1" fill="#BA55D3"/><rect x="15" y="21" width="1" height="1" fill="#BA55D3"/><rect x="15" y="22" width="1" height="1" fill="#BA55D3"/><rect x="15" y="23" width="1" height="1" fill="#BA55D3"/><rect x="16" y="22" width="1" height="1" fill="#BA55D3"/><rect x="16" y="22" width="1" height="1" fill="#BA55D3"/><rect x="17" y="21" width="1" height="1" fill="#BA55D3"/><rect x="17" y="22" width="1" height="1" fill="#BA55D3"/><rect x="17" y="23" width="1" height="1" fill="#BA55D3"/><rect x="18" y="22" width="1" height="1" fill="#BA55D3"/><rect x="14" y="21" width="1" height="1" fill="#BA55D3"/><rect x="15" y="20" width="1" height="1" fill="#BA55D3"/><rect x="15" y="21" width="1" height="1" fill="#BA55D3"/><rect x="15" y="22" width="1" height="1" fill="#BA55D3"/><rect x="16" y="19" width="1" height="1" fill="#BA55D3"/><rect x="16" y="20" width="1" height="1" fill="#BA55D3"/><rect x="16" y="21" width="1" height="1" fill="#BA55D3"/><rect x="16" y="22" width="1" height="1" fill="#BA55D3"/><rect x="16" y="23" width="1" height="1" fill="#BA55D3"/><rect x="17" y="20" width="1" height="1" fill="#BA55D3"/><rect x="17" y="21" width="1" height="1" fill="#BA55D3"/><rect x="17" y="22" width="1" height="1" fill="#BA55D3"/><rect x="18" y="21" width="1" height="1" fill="#BA55D3"/><rect x="14" y="21" width="1" height="1" fill="#E6E6FA"/><rect x="15" y="20" width="1" height="1" fill="#E6E6FA"/><rect x="15" y="21" width="1" height="1" fill="#E6E6FA"/><rect x="15" y="22" width="1" height="1" fill="#E6E6FA"/><rect x="16" y="21" width="1" height="1" fill="#E6E6FA"/><rect x="16" y="21" width="1" height="1" fill="#E6E6FA"/><rect x="17" y="20" width="1" height="1" fill="#E6E6FA"/><rect x="17" y="21" width="1" height="1" fill="#E6E6FA"/><rect x="17" y="22" width="1" height="1" fill="#E6E6FA"/><rect x="18" y="21" width="1" height="1" fill="#E6E6FA"/><rect x="14" y="20" width="1" height="1" fill="#E6E6FA"/><rect x="15" y="19" width="1" height="1" fill="#E6E6FA"/><rect x="15" y="20" width="1" height="1" fill="#E6E6FA"/><rect x="15" y="21" width="1" height="1" fill="#E6E6FA"/><rect x="16" y="18" width="1" height="1" fill="#E6E6FA"/><rect x="16" y="19" width="1" height="1" fill="#E6E6FA"/><rect x="16" y="20" width="1" height="1" fill="#E6E6FA"/><rect x="16" y="21" width="1" height="1" fill="#E6E6FA"/><rect x="16" y="22" width="1" height="1" fill="#E6E6FA"/><rect x="17" y="19" width="1" height="1" fill="#E6E6FA"/><rect x="17" y="20" width="1" height="1" fill="#E6E6FA"/><rect x="17" y="21" width="1" height="1" fill="#E6E6FA"/><rect x="18" y="20" width="1" height="1" fill="#E6E6FA"/><rect x="14" y="20" width="1" height="1" fill="#D8BFD8"/><rect x="15" y="19" width="1" height="1" fill="#D8BFD8"/><rect x="15" y="20" width="1" height="1" fill="#D8BFD8"/><rect x="15" y="21" width="1" height="1" fill="#D8BFD8"/><rect x="16" y="20" width="1" height="1" fill="#D8BFD8"/><rect x="16" y="20" width="1" height="1" fill="#D8BFD8"/><rect x="17" y="19" width="1" height="1" fill="#D8BFD8"/><rect x="17" y="20" width="1" height="1" fill="#D8BFD8"/><rect x="17" y="21" width="1" height="1" fill="#D8BFD8"/><rect x="18" y="20" width="1" height="1" fill="#D8BFD8"/></g></svg>