<svg xmlns="http://www.w3.org/2000/svg" id="flower-1-large" width="120" height="120" viewBox="4.5 10 24 36" class="bg-[#DDDDDD]"><g><rect x="16" y="45" width="1" height="1" fill="#1A4314"/><rect x="16" y="44" width="1" height="1" fill="#1A4314"/><rect x="16" y="43" width="1" height="1" fill="#1A4314"/><rect x="16" y="42" width="1" height="1" fill="#1A4314"/><rect x="16" y="41" width="1" height="1" fill="#1A4314"/><rect x="16" y="40" width="1" height="1" fill="#1A4314"/><rect x="16" y="39" width="1" height="1" fill="#1A4314"/><rect x="16" y="38" width="1" height="1" fill="#1A4314"/><rect x="16" y="37" width="1" height="1" fill="#1A4314"/><rect x="16" y="36" width="1" height="1" fill="#1A4314"/><rect x="16" y="35" width="1" height="1" fill="#1A4314"/><rect x="16" y="34" width="1" height="1" fill="#1A4314"/><rect x="16" y="33" width="1" height="1" fill="#1A4314"/><rect x="16" y="32" width="1" height="1" fill="#1A4314"/><rect x="16" y="31" width="1" height="1" fill="#1A4314"/><rect x="16" y="30" width="1" height="1" fill="#1A4314"/><rect x="16" y="29" width="1" height="1" fill="#1A4314"/><rect x="16" y="28" width="1" height="1" fill="#1A4314"/><rect x="16" y="27" width="1" height="1" fill="#1A4314"/><rect x="16" y="26" width="1" height="1" fill="#1A4314"/><rect x="16" y="25" width="1" height="1" fill="#1A4314"/><rect x="16" y="24" width="1" height="1" fill="#1A4314"/><rect x="16" y="23" width="1" height="1" fill="#1A4314"/><rect x="16" y="22" width="1" height="1" fill="#1A4314"/><rect x="16" y="21" width="1" height="1" fill="#1A4314"/><rect x="15" y="33" width="1" height="1" fill="#2D6A23"/><rect x="16" y="32" width="1" height="1" fill="#2D6A23"/><rect x="16" y="33" width="1" height="1" fill="#2D6A23"/><rect x="16" y="34" width="1" height="1" fill="#2D6A23"/><rect x="17" y="31" width="1" height="1" fill="#2D6A23"/><rect x="17" y="32" width="1" height="1" fill="#2D6A23"/><rect x="17" y="33" width="1" height="1" fill="#2D6A23"/><rect x="17" y="34" width="1" height="1" fill="#2D6A23"/><rect x="17" y="35" width="1" height="1" fill="#2D6A23"/><rect x="18" y="32" width="1" height="1" fill="#2D6A23"/><rect x="18" y="33" width="1" height="1" fill="#2D6A23"/><rect x="18" y="34" width="1" height="1" fill="#2D6A23"/><rect x="19" y="33" width="1" height="1" fill="#2D6A23"/><rect x="16" y="31" width="1" height="1" fill="#2D6A23"/><rect x="17" y="30" width="1" height="1" fill="#2D6A23"/><rect x="17" y="31" width="1" height="1" fill="#2D6A23"/><rect x="17" y="32" width="1" height="1" fill="#2D6A23"/><rect x="18" y="29" width="1" height="1" fill="#2D6A23"/><rect x="18" y="30" width="1" height="1" fill="#2D6A23"/><rect x="18" y="31" width="1" height="1" fill="#2D6A23"/><rect x="18" y="32" width="1" height="1" fill="#2D6A23"/><rect x="18" y="33" width="1" height="1" fill="#2D6A23"/><rect x="19" y="30" width="1" height="1" fill="#2D6A23"/><rect x="19" y="31" width="1" height="1" fill="#2D6A23"/><rect x="19" y="32" width="1" height="1" fill="#2D6A23"/><rect x="20" y="31" width="1" height="1" fill="#2D6A23"/><rect x="18" y="29" width="1" height="1" fill="#2D6A23"/><rect x="19" y="28" width="1" height="1" fill="#2D6A23"/><rect x="19" y="29" width="1" height="1" fill="#2D6A23"/><rect x="19" y="30" width="1" height="1" fill="#2D6A23"/><rect x="20" y="29" width="1" height="1" fill="#2D6A23"/><rect x="19" y="27" width="1" height="1" fill="#2D6A23"/><rect x="20" y="26" width="1" height="1" fill="#2D6A23"/><rect x="20" y="27" width="1" height="1" fill="#2D6A23"/><rect x="20" y="28" width="1" height="1" fill="#2D6A23"/><rect x="21" y="27" width="1" height="1" fill="#2D6A23"/><rect x="13" y="40" width="1" height="1" fill="#2D6A23"/><rect x="14" y="39" width="1" height="1" fill="#2D6A23"/><rect x="14" y="40" width="1" height="1" fill="#2D6A23"/><rect x="14" y="41" width="1" height="1" fill="#2D6A23"/><rect x="15" y="38" width="1" height="1" fill="#2D6A23"/><rect x="15" y="39" width="1" height="1" fill="#2D6A23"/><rect x="15" y="40" width="1" height="1" fill="#2D6A23"/><rect x="15" y="41" width="1" height="1" fill="#2D6A23"/><rect x="15" y="42" width="1" height="1" fill="#2D6A23"/><rect x="16" y="39" width="1" height="1" fill="#2D6A23"/><rect x="16" y="40" width="1" height="1" fill="#2D6A23"/><rect x="16" y="41" width="1" height="1" fill="#2D6A23"/><rect x="17" y="40" width="1" height="1" fill="#2D6A23"/><rect x="12" y="37" width="1" height="1" fill="#2D6A23"/><rect x="13" y="36" width="1" height="1" fill="#2D6A23"/><rect x="13" y="37" width="1" height="1" fill="#2D6A23"/><rect x="13" y="38" width="1" height="1" fill="#2D6A23"/><rect x="14" y="35" width="1" height="1" fill="#2D6A23"/><rect x="14" y="36" width="1" height="1" fill="#2D6A23"/><rect x="14" y="37" width="1" height="1" fill="#2D6A23"/><rect x="14" y="38" width="1" height="1" fill="#2D6A23"/><rect x="14" y="39" width="1" height="1" fill="#2D6A23"/><rect x="15" y="36" width="1" height="1" fill="#2D6A23"/><rect x="15" y="37" width="1" height="1" fill="#2D6A23"/><rect x="15" y="38" width="1" height="1" fill="#2D6A23"/><rect x="16" y="37" width="1" height="1" fill="#2D6A23"/><rect x="12" y="34" width="1" height="1" fill="#2D6A23"/><rect x="13" y="33" width="1" height="1" fill="#2D6A23"/><rect x="13" y="34" width="1" height="1" fill="#2D6A23"/><rect x="13" y="35" width="1" height="1" fill="#2D6A23"/><rect x="14" y="34" width="1" height="1" fill="#2D6A23"/><rect x="11" y="31" width="1" height="1" fill="#2D6A23"/><rect x="12" y="30" width="1" height="1" fill="#2D6A23"/><rect x="12" y="31" width="1" height="1" fill="#2D6A23"/><rect x="12" y="32" width="1" height="1" fill="#2D6A23"/><rect x="13" y="31" width="1" height="1" fill="#2D6A23"/><rect x="8" y="18" width="1" height="1" fill="#7B68EE"/><rect x="9" y="16" width="1" height="1" fill="#7B68EE"/><rect x="9" y="17" width="1" height="1" fill="#7B68EE"/><rect x="9" y="18" width="1" height="1" fill="#7B68EE"/><rect x="9" y="19" width="1" height="1" fill="#7B68EE"/><rect x="9" y="20" width="1" height="1" fill="#7B68EE"/><rect x="10" y="15" width="1" height="1" fill="#7B68EE"/><rect x="10" y="16" width="1" height="1" fill="#7B68EE"/><rect x="10" y="17" width="1" height="1" fill="#7B68EE"/><rect x="10" y="18" width="1" height="1" fill="#7B68EE"/><rect x="10" y="19" width="1" height="1" fill="#7B68EE"/><rect x="10" y="20" width="1" height="1" fill="#7B68EE"/><rect x="10" y="21" width="1" height="1" fill="#7B68EE"/><rect x="11" y="15" width="1" height="1" fill="#7B68EE"/><rect x="11" y="16" width="1" height="1" fill="#7B68EE"/><rect x="11" y="17" width="1" height="1" fill="#7B68EE"/><rect x="11" y="18" width="1" height="1" fill="#7B68EE"/><rect x="11" y="19" width="1" height="1" fill="#7B68EE"/><rect x="11" y="20" width="1" height="1" fill="#7B68EE"/><rect x="11" y="21" width="1" height="1" fill="#7B68EE"/><rect x="12" y="14" width="1" height="1" fill="#7B68EE"/><rect x="12" y="15" width="1" height="1" fill="#7B68EE"/><rect x="12" y="16" width="1" height="1" fill="#7B68EE"/><rect x="12" y="17" width="1" height="1" fill="#7B68EE"/><rect x="12" y="18" width="1" height="1" fill="#7B68EE"/><rect x="12" y="19" width="1" height="1" fill="#7B68EE"/><rect x="12" y="20" width="1" height="1" fill="#7B68EE"/><rect x="12" y="21" width="1" height="1" fill="#7B68EE"/><rect x="12" y="22" width="1" height="1" fill="#7B68EE"/><rect x="13" y="15" width="1" height="1" fill="#7B68EE"/><rect x="13" y="16" width="1" height="1" fill="#7B68EE"/><rect x="13" y="17" width="1" height="1" fill="#7B68EE"/><rect x="13" y="18" width="1" height="1" fill="#7B68EE"/><rect x="13" y="19" width="1" height="1" fill="#7B68EE"/><rect x="13" y="20" width="1" height="1" fill="#7B68EE"/><rect x="13" y="21" width="1" height="1" fill="#7B68EE"/><rect x="14" y="15" width="1" height="1" fill="#7B68EE"/><rect x="14" y="16" width="1" height="1" fill="#7B68EE"/><rect x="14" y="17" width="1" height="1" fill="#7B68EE"/><rect x="14" y="18" width="1" height="1" fill="#7B68EE"/><rect x="14" y="19" width="1" height="1" fill="#7B68EE"/><rect x="14" y="20" width="1" height="1" fill="#7B68EE"/><rect x="14" y="21" width="1" height="1" fill="#7B68EE"/><rect x="15" y="16" width="1" height="1" fill="#7B68EE"/><rect x="15" y="17" width="1" height="1" fill="#7B68EE"/><rect x="15" y="18" width="1" height="1" fill="#7B68EE"/><rect x="15" y="19" width="1" height="1" fill="#7B68EE"/><rect x="15" y="20" width="1" height="1" fill="#7B68EE"/><rect x="16" y="18" width="1" height="1" fill="#7B68EE"/><rect x="16" y="18" width="1" height="1" fill="#7B68EE"/><rect x="17" y="16" width="1" height="1" fill="#7B68EE"/><rect x="17" y="17" width="1" height="1" fill="#7B68EE"/><rect x="17" y="18" width="1" height="1" fill="#7B68EE"/><rect x="17" y="19" width="1" height="1" fill="#7B68EE"/><rect x="17" y="20" width="1" height="1" fill="#7B68EE"/><rect x="18" y="15" width="1" height="1" fill="#7B68EE"/><rect x="18" y="16" width="1" height="1" fill="#7B68EE"/><rect x="18" y="17" width="1" height="1" fill="#7B68EE"/><rect x="18" y="18" width="1" height="1" fill="#7B68EE"/><rect x="18" y="19" width="1" height="1" fill="#7B68EE"/><rect x="18" y="20" width="1" height="1" fill="#7B68EE"/><rect x="18" y="21" width="1" height="1" fill="#7B68EE"/><rect x="19" y="15" width="1" height="1" fill="#7B68EE"/><rect x="19" y="16" width="1" height="1" fill="#7B68EE"/><rect x="19" y="17" width="1" height="1" fill="#7B68EE"/><rect x="19" y="18" width="1" height="1" fill="#7B68EE"/><rect x="19" y="19" width="1" height="1" fill="#7B68EE"/><rect x="19" y="20" width="1" height="1" fill="#7B68EE"/><rect x="19" y="21" width="1" height="1" fill="#7B68EE"/><rect x="20" y="14" width="1" height="1" fill="#7B68EE"/><rect x="20" y="15" width="1" height="1" fill="#7B68EE"/><rect x="20" y="16" width="1" height="1" fill="#7B68EE"/><rect x="20" y="17" width="1" height="1" fill="#7B68EE"/><rect x="20" y="18" width="1" height="1" fill="#7B68EE"/><rect x="20" y="19" width="1" height="1" fill="#7B68EE"/><rect x="20" y="20" width="1" height="1" fill="#7B68EE"/><rect x="20" y="21" width="1" height="1" fill="#7B68EE"/><rect x="20" y="22" width="1" height="1" fill="#7B68EE"/><rect x="21" y="15" width="1" height="1" fill="#7B68EE"/><rect x="21" y="16" width="1" height="1" fill="#7B68EE"/><rect x="21" y="17" width="1" height="1" fill="#7B68EE"/><rect x="21" y="18" width="1" height="1" fill="#7B68EE"/><rect x="21" y="19" width="1" height="1" fill="#7B68EE"/><rect x="21" y="20" width="1" height="1" fill="#7B68EE"/><rect x="21" y="21" width="1" height="1" fill="#7B68EE"/><rect x="22" y="15" width="1" height="1" fill="#7B68EE"/><rect x="22" y="16" width="1" height="1" fill="#7B68EE"/><rect x="22" y="17" width="1" height="1" fill="#7B68EE"/><rect x="22" y="18" width="1" height="1" fill="#7B68EE"/><rect x="22" y="19" width="1" height="1" fill="#7B68EE"/><rect x="22" y="20" width="1" height="1" fill="#7B68EE"/><rect x="22" y="21" width="1" height="1" fill="#7B68EE"/><rect x="23" y="16" width="1" height="1" fill="#7B68EE"/><rect x="23" y="17" width="1" height="1" fill="#7B68EE"/><rect x="23" y="18" width="1" height="1" fill="#7B68EE"/><rect x="23" y="19" width="1" height="1" fill="#7B68EE"/><rect x="23" y="20" width="1" height="1" fill="#7B68EE"/><rect x="24" y="18" width="1" height="1" fill="#7B68EE"/><rect x="12" y="24" width="1" height="1" fill="#7B68EE"/><rect x="13" y="22" width="1" height="1" fill="#7B68EE"/><rect x="13" y="23" width="1" height="1" fill="#7B68EE"/><rect x="13" y="24" width="1" height="1" fill="#7B68EE"/><rect x="13" y="25" width="1" height="1" fill="#7B68EE"/><rect x="13" y="26" width="1" height="1" fill="#7B68EE"/><rect x="14" y="21" width="1" height="1" fill="#7B68EE"/><rect x="14" y="22" width="1" height="1" fill="#7B68EE"/><rect x="14" y="23" width="1" height="1" fill="#7B68EE"/><rect x="14" y="24" width="1" height="1" fill="#7B68EE"/><rect x="14" y="25" width="1" height="1" fill="#7B68EE"/><rect x="14" y="26" width="1" height="1" fill="#7B68EE"/><rect x="14" y="27" width="1" height="1" fill="#7B68EE"/><rect x="15" y="21" width="1" height="1" fill="#7B68EE"/><rect x="15" y="22" width="1" height="1" fill="#7B68EE"/><rect x="15" y="23" width="1" height="1" fill="#7B68EE"/><rect x="15" y="24" width="1" height="1" fill="#7B68EE"/><rect x="15" y="25" width="1" height="1" fill="#7B68EE"/><rect x="15" y="26" width="1" height="1" fill="#7B68EE"/><rect x="15" y="27" width="1" height="1" fill="#7B68EE"/><rect x="16" y="20" width="1" height="1" fill="#7B68EE"/><rect x="16" y="21" width="1" height="1" fill="#7B68EE"/><rect x="16" y="22" width="1" height="1" fill="#7B68EE"/><rect x="16" y="23" width="1" height="1" fill="#7B68EE"/><rect x="16" y="24" width="1" height="1" fill="#7B68EE"/><rect x="16" y="25" width="1" height="1" fill="#7B68EE"/><rect x="16" y="26" width="1" height="1" fill="#7B68EE"/><rect x="16" y="27" width="1" height="1" fill="#7B68EE"/><rect x="16" y="28" width="1" height="1" fill="#7B68EE"/><rect x="17" y="21" width="1" height="1" fill="#7B68EE"/><rect x="17" y="22" width="1" height="1" fill="#7B68EE"/><rect x="17" y="23" width="1" height="1" fill="#7B68EE"/><rect x="17" y="24" width="1" height="1" fill="#7B68EE"/><rect x="17" y="25" width="1" height="1" fill="#7B68EE"/><rect x="17" y="26" width="1" height="1" fill="#7B68EE"/><rect x="17" y="27" width="1" height="1" fill="#7B68EE"/><rect x="18" y="21" width="1" height="1" fill="#7B68EE"/><rect x="18" y="22" width="1" height="1" fill="#7B68EE"/><rect x="18" y="23" width="1" height="1" fill="#7B68EE"/><rect x="18" y="24" width="1" height="1" fill="#7B68EE"/><rect x="18" y="25" width="1" height="1" fill="#7B68EE"/><rect x="18" y="26" width="1" height="1" fill="#7B68EE"/><rect x="18" y="27" width="1" height="1" fill="#7B68EE"/><rect x="19" y="22" width="1" height="1" fill="#7B68EE"/><rect x="19" y="23" width="1" height="1" fill="#7B68EE"/><rect x="19" y="24" width="1" height="1" fill="#7B68EE"/><rect x="19" y="25" width="1" height="1" fill="#7B68EE"/><rect x="19" y="26" width="1" height="1" fill="#7B68EE"/><rect x="20" y="24" width="1" height="1" fill="#7B68EE"/><rect x="9" y="18" width="1" height="1" fill="#9370DB"/><rect x="10" y="16" width="1" height="1" fill="#9370DB"/><rect x="10" y="17" width="1" height="1" fill="#9370DB"/><rect x="10" y="18" width="1" height="1" fill="#9370DB"/><rect x="10" y="19" width="1" height="1" fill="#9370DB"/><rect x="10" y="20" width="1" height="1" fill="#9370DB"/><rect x="11" y="16" width="1" height="1" fill="#9370DB"/><rect x="11" y="17" width="1" height="1" fill="#9370DB"/><rect x="11" y="18" width="1" height="1" fill="#9370DB"/><rect x="11" y="19" width="1" height="1" fill="#9370DB"/><rect x="11" y="20" width="1" height="1" fill="#9370DB"/><rect x="12" y="15" width="1" height="1" fill="#9370DB"/><rect x="12" y="16" width="1" height="1" fill="#9370DB"/><rect x="12" y="17" width="1" height="1" fill="#9370DB"/><rect x="12" y="18" width="1" height="1" fill="#9370DB"/><rect x="12" y="19" width="1" height="1" fill="#9370DB"/><rect x="12" y="20" width="1" height="1" fill="#9370DB"/><rect x="12" y="21" width="1" height="1" fill="#9370DB"/><rect x="13" y="16" width="1" height="1" fill="#9370DB"/><rect x="13" y="17" width="1" height="1" fill="#9370DB"/><rect x="13" y="18" width="1" height="1" fill="#9370DB"/><rect x="13" y="19" width="1" height="1" fill="#9370DB"/><rect x="13" y="20" width="1" height="1" fill="#9370DB"/><rect x="14" y="16" width="1" height="1" fill="#9370DB"/><rect x="14" y="17" width="1" height="1" fill="#9370DB"/><rect x="14" y="18" width="1" height="1" fill="#9370DB"/><rect x="14" y="19" width="1" height="1" fill="#9370DB"/><rect x="14" y="20" width="1" height="1" fill="#9370DB"/><rect x="15" y="18" width="1" height="1" fill="#9370DB"/><rect x="17" y="18" width="1" height="1" fill="#9370DB"/><rect x="18" y="16" width="1" height="1" fill="#9370DB"/><rect x="18" y="17" width="1" height="1" fill="#9370DB"/><rect x="18" y="18" width="1" height="1" fill="#9370DB"/><rect x="18" y="19" width="1" height="1" fill="#9370DB"/><rect x="18" y="20" width="1" height="1" fill="#9370DB"/><rect x="19" y="16" width="1" height="1" fill="#9370DB"/><rect x="19" y="17" width="1" height="1" fill="#9370DB"/><rect x="19" y="18" width="1" height="1" fill="#9370DB"/><rect x="19" y="19" width="1" height="1" fill="#9370DB"/><rect x="19" y="20" width="1" height="1" fill="#9370DB"/><rect x="20" y="15" width="1" height="1" fill="#9370DB"/><rect x="20" y="16" width="1" height="1" fill="#9370DB"/><rect x="20" y="17" width="1" height="1" fill="#9370DB"/><rect x="20" y="18" width="1" height="1" fill="#9370DB"/><rect x="20" y="19" width="1" height="1" fill="#9370DB"/><rect x="20" y="20" width="1" height="1" fill="#9370DB"/><rect x="20" y="21" width="1" height="1" fill="#9370DB"/><rect x="21" y="16" width="1" height="1" fill="#9370DB"/><rect x="21" y="17" width="1" height="1" fill="#9370DB"/><rect x="21" y="18" width="1" height="1" fill="#9370DB"/><rect x="21" y="19" width="1" height="1" fill="#9370DB"/><rect x="21" y="20" width="1" height="1" fill="#9370DB"/><rect x="22" y="16" width="1" height="1" fill="#9370DB"/><rect x="22" y="17" width="1" height="1" fill="#9370DB"/><rect x="22" y="18" width="1" height="1" fill="#9370DB"/><rect x="22" y="19" width="1" height="1" fill="#9370DB"/><rect x="22" y="20" width="1" height="1" fill="#9370DB"/><rect x="23" y="18" width="1" height="1" fill="#9370DB"/><rect x="13" y="24" width="1" height="1" fill="#9370DB"/><rect x="14" y="22" width="1" height="1" fill="#9370DB"/><rect x="14" y="23" width="1" height="1" fill="#9370DB"/><rect x="14" y="24" width="1" height="1" fill="#9370DB"/><rect x="14" y="25" width="1" height="1" fill="#9370DB"/><rect x="14" y="26" width="1" height="1" fill="#9370DB"/><rect x="15" y="22" width="1" height="1" fill="#9370DB"/><rect x="15" y="23" width="1" height="1" fill="#9370DB"/><rect x="15" y="24" width="1" height="1" fill="#9370DB"/><rect x="15" y="25" width="1" height="1" fill="#9370DB"/><rect x="15" y="26" width="1" height="1" fill="#9370DB"/><rect x="16" y="21" width="1" height="1" fill="#9370DB"/><rect x="16" y="22" width="1" height="1" fill="#9370DB"/><rect x="16" y="23" width="1" height="1" fill="#9370DB"/><rect x="16" y="24" width="1" height="1" fill="#9370DB"/><rect x="16" y="25" width="1" height="1" fill="#9370DB"/><rect x="16" y="26" width="1" height="1" fill="#9370DB"/><rect x="16" y="27" width="1" height="1" fill="#9370DB"/><rect x="17" y="22" width="1" height="1" fill="#9370DB"/><rect x="17" y="23" width="1" height="1" fill="#9370DB"/><rect x="17" y="24" width="1" height="1" fill="#9370DB"/><rect x="17" y="25" width="1" height="1" fill="#9370DB"/><rect x="17" y="26" width="1" height="1" fill="#9370DB"/><rect x="18" y="22" width="1" height="1" fill="#9370DB"/><rect x="18" y="23" width="1" height="1" fill="#9370DB"/><rect x="18" y="24" width="1" height="1" fill="#9370DB"/><rect x="18" y="25" width="1" height="1" fill="#9370DB"/><rect x="18" y="26" width="1" height="1" fill="#9370DB"/><rect x="19" y="24" width="1" height="1" fill="#9370DB"/><rect x="10" y="18" width="1" height="1" fill="#B19CD9"/><rect x="11" y="17" width="1" height="1" fill="#B19CD9"/><rect x="11" y="18" width="1" height="1" fill="#B19CD9"/><rect x="11" y="19" width="1" height="1" fill="#B19CD9"/><rect x="12" y="16" width="1" height="1" fill="#B19CD9"/><rect x="12" y="17" width="1" height="1" fill="#B19CD9"/><rect x="12" y="18" width="1" height="1" fill="#B19CD9"/><rect x="12" y="19" width="1" height="1" fill="#B19CD9"/><rect x="12" y="20" width="1" height="1" fill="#B19CD9"/><rect x="13" y="17" width="1" height="1" fill="#B19CD9"/><rect x="13" y="18" width="1" height="1" fill="#B19CD9"/><rect x="13" y="19" width="1" height="1" fill="#B19CD9"/><rect x="14" y="18" width="1" height="1" fill="#B19CD9"/><rect x="18" y="18" width="1" height="1" fill="#B19CD9"/><rect x="19" y="17" width="1" height="1" fill="#B19CD9"/><rect x="19" y="18" width="1" height="1" fill="#B19CD9"/><rect x="19" y="19" width="1" height="1" fill="#B19CD9"/><rect x="20" y="16" width="1" height="1" fill="#B19CD9"/><rect x="20" y="17" width="1" height="1" fill="#B19CD9"/><rect x="20" y="18" width="1" height="1" fill="#B19CD9"/><rect x="20" y="19" width="1" height="1" fill="#B19CD9"/><rect x="20" y="20" width="1" height="1" fill="#B19CD9"/><rect x="21" y="17" width="1" height="1" fill="#B19CD9"/><rect x="21" y="18" width="1" height="1" fill="#B19CD9"/><rect x="21" y="19" width="1" height="1" fill="#B19CD9"/><rect x="22" y="18" width="1" height="1" fill="#B19CD9"/><rect x="14" y="24" width="1" height="1" fill="#B19CD9"/><rect x="15" y="23" width="1" height="1" fill="#B19CD9"/><rect x="15" y="24" width="1" height="1" fill="#B19CD9"/><rect x="15" y="25" width="1" height="1" fill="#B19CD9"/><rect x="16" y="22" width="1" height="1" fill="#B19CD9"/><rect x="16" y="23" width="1" height="1" fill="#B19CD9"/><rect x="16" y="24" width="1" height="1" fill="#B19CD9"/><rect x="16" y="25" width="1" height="1" fill="#B19CD9"/><rect x="16" y="26" width="1" height="1" fill="#B19CD9"/><rect x="17" y="23" width="1" height="1" fill="#B19CD9"/><rect x="17" y="24" width="1" height="1" fill="#B19CD9"/><rect x="17" y="25" width="1" height="1" fill="#B19CD9"/><rect x="18" y="24" width="1" height="1" fill="#B19CD9"/></g></svg>