<svg xmlns="http://www.w3.org/2000/svg" id="flower-7-sprout" width="120" height="120" viewBox="4.5 10 24 36" class="bg-[#DDDDDD]"><g><rect x="16" y="45" width="1" height="1" fill="#1A4314"/><rect x="16" y="44" width="1" height="1" fill="#1A4314"/><rect x="16" y="43" width="1" height="1" fill="#1A4314"/><rect x="16" y="42" width="1" height="1" fill="#1A4314"/><rect x="16" y="41" width="1" height="1" fill="#1A4314"/><rect x="16" y="40" width="1" height="1" fill="#1A4314"/><rect x="15" y="40" width="1" height="1" fill="#2D6A23"/><rect x="14" y="40" width="1" height="1" fill="#2D6A23"/><rect x="13" y="40" width="1" height="1" fill="#2D6A23"/><rect x="14" y="39" width="1" height="1" fill="#2D6A23"/><rect x="13" y="39" width="1" height="1" fill="#2D6A23"/><rect x="12" y="39" width="1" height="1" fill="#2D6A23"/><rect x="13" y="38" width="1" height="1" fill="#2D6A23"/><rect x="12" y="38" width="1" height="1" fill="#2D6A23"/><rect x="11" y="38" width="1" height="1" fill="#2D6A23"/><rect x="12" y="37" width="1" height="1" fill="#2D6A23"/><rect x="11" y="37" width="1" height="1" fill="#2D6A23"/><rect x="17" y="40" width="1" height="1" fill="#2D6A23"/><rect x="18" y="40" width="1" height="1" fill="#2D6A23"/><rect x="19" y="40" width="1" height="1" fill="#2D6A23"/><rect x="18" y="39" width="1" height="1" fill="#2D6A23"/><rect x="19" y="39" width="1" height="1" fill="#2D6A23"/><rect x="20" y="39" width="1" height="1" fill="#2D6A23"/><rect x="19" y="38" width="1" height="1" fill="#2D6A23"/><rect x="20" y="38" width="1" height="1" fill="#2D6A23"/><rect x="21" y="38" width="1" height="1" fill="#2D6A23"/><rect x="20" y="37" width="1" height="1" fill="#2D6A23"/><rect x="21" y="37" width="1" height="1" fill="#2D6A23"/></g></svg>