<svg xmlns="http://www.w3.org/2000/svg" id="flower-8-small" width="120" height="120" viewBox="4.5 10 24 36" class="bg-[#DDDDDD]"><g><rect x="16" y="45" width="1" height="1" fill="#1A4314"/><rect x="16" y="44" width="1" height="1" fill="#1A4314"/><rect x="16" y="43" width="1" height="1" fill="#1A4314"/><rect x="16" y="42" width="1" height="1" fill="#1A4314"/><rect x="16" y="41" width="1" height="1" fill="#1A4314"/><rect x="16" y="40" width="1" height="1" fill="#1A4314"/><rect x="16" y="39" width="1" height="1" fill="#1A4314"/><rect x="16" y="38" width="1" height="1" fill="#1A4314"/><rect x="16" y="37" width="1" height="1" fill="#1A4314"/><rect x="16" y="36" width="1" height="1" fill="#1A4314"/><rect x="16" y="35" width="1" height="1" fill="#1A4314"/><rect x="16" y="34" width="1" height="1" fill="#1A4314"/><rect x="16" y="33" width="1" height="1" fill="#1A4314"/><rect x="16" y="32" width="1" height="1" fill="#1A4314"/><rect x="16" y="31" width="1" height="1" fill="#1A4314"/><rect x="14" y="38" width="1" height="1" fill="#2D6A23"/><rect x="15" y="37" width="1" height="1" fill="#2D6A23"/><rect x="15" y="38" width="1" height="1" fill="#2D6A23"/><rect x="15" y="39" width="1" height="1" fill="#2D6A23"/><rect x="16" y="38" width="1" height="1" fill="#2D6A23"/><rect x="13" y="37" width="1" height="1" fill="#2D6A23"/><rect x="14" y="36" width="1" height="1" fill="#2D6A23"/><rect x="14" y="37" width="1" height="1" fill="#2D6A23"/><rect x="14" y="38" width="1" height="1" fill="#2D6A23"/><rect x="15" y="37" width="1" height="1" fill="#2D6A23"/><rect x="12" y="36" width="1" height="1" fill="#2D6A23"/><rect x="13" y="35" width="1" height="1" fill="#2D6A23"/><rect x="13" y="36" width="1" height="1" fill="#2D6A23"/><rect x="13" y="37" width="1" height="1" fill="#2D6A23"/><rect x="14" y="36" width="1" height="1" fill="#2D6A23"/><rect x="16" y="42" width="1" height="1" fill="#2D6A23"/><rect x="17" y="41" width="1" height="1" fill="#2D6A23"/><rect x="17" y="42" width="1" height="1" fill="#2D6A23"/><rect x="17" y="43" width="1" height="1" fill="#2D6A23"/><rect x="18" y="42" width="1" height="1" fill="#2D6A23"/><rect x="17" y="41" width="1" height="1" fill="#2D6A23"/><rect x="18" y="40" width="1" height="1" fill="#2D6A23"/><rect x="18" y="41" width="1" height="1" fill="#2D6A23"/><rect x="18" y="42" width="1" height="1" fill="#2D6A23"/><rect x="19" y="41" width="1" height="1" fill="#2D6A23"/><rect x="18" y="40" width="1" height="1" fill="#2D6A23"/><rect x="19" y="39" width="1" height="1" fill="#2D6A23"/><rect x="19" y="40" width="1" height="1" fill="#2D6A23"/><rect x="19" y="41" width="1" height="1" fill="#2D6A23"/><rect x="20" y="40" width="1" height="1" fill="#2D6A23"/><rect x="12" y="30" width="1" height="1" fill="#FFE4E1"/><rect x="13" y="28" width="1" height="1" fill="#FFE4E1"/><rect x="13" y="29" width="1" height="1" fill="#FFE4E1"/><rect x="13" y="30" width="1" height="1" fill="#FFE4E1"/><rect x="13" y="31" width="1" height="1" fill="#FFE4E1"/><rect x="13" y="32" width="1" height="1" fill="#FFE4E1"/><rect x="14" y="27" width="1" height="1" fill="#FFE4E1"/><rect x="14" y="28" width="1" height="1" fill="#FFE4E1"/><rect x="14" y="29" width="1" height="1" fill="#FFE4E1"/><rect x="14" y="30" width="1" height="1" fill="#FFE4E1"/><rect x="14" y="31" width="1" height="1" fill="#FFE4E1"/><rect x="14" y="32" width="1" height="1" fill="#FFE4E1"/><rect x="14" y="33" width="1" height="1" fill="#FFE4E1"/><rect x="15" y="27" width="1" height="1" fill="#FFE4E1"/><rect x="15" y="28" width="1" height="1" fill="#FFE4E1"/><rect x="15" y="29" width="1" height="1" fill="#FFE4E1"/><rect x="15" y="30" width="1" height="1" fill="#FFE4E1"/><rect x="15" y="31" width="1" height="1" fill="#FFE4E1"/><rect x="15" y="32" width="1" height="1" fill="#FFE4E1"/><rect x="15" y="33" width="1" height="1" fill="#FFE4E1"/><rect x="16" y="26" width="1" height="1" fill="#FFE4E1"/><rect x="16" y="27" width="1" height="1" fill="#FFE4E1"/><rect x="16" y="28" width="1" height="1" fill="#FFE4E1"/><rect x="16" y="29" width="1" height="1" fill="#FFE4E1"/><rect x="16" y="30" width="1" height="1" fill="#FFE4E1"/><rect x="16" y="31" width="1" height="1" fill="#FFE4E1"/><rect x="16" y="32" width="1" height="1" fill="#FFE4E1"/><rect x="16" y="33" width="1" height="1" fill="#FFE4E1"/><rect x="16" y="34" width="1" height="1" fill="#FFE4E1"/><rect x="17" y="27" width="1" height="1" fill="#FFE4E1"/><rect x="17" y="28" width="1" height="1" fill="#FFE4E1"/><rect x="17" y="29" width="1" height="1" fill="#FFE4E1"/><rect x="17" y="30" width="1" height="1" fill="#FFE4E1"/><rect x="17" y="31" width="1" height="1" fill="#FFE4E1"/><rect x="17" y="32" width="1" height="1" fill="#FFE4E1"/><rect x="17" y="33" width="1" height="1" fill="#FFE4E1"/><rect x="18" y="27" width="1" height="1" fill="#FFE4E1"/><rect x="18" y="28" width="1" height="1" fill="#FFE4E1"/><rect x="18" y="29" width="1" height="1" fill="#FFE4E1"/><rect x="18" y="30" width="1" height="1" fill="#FFE4E1"/><rect x="18" y="31" width="1" height="1" fill="#FFE4E1"/><rect x="18" y="32" width="1" height="1" fill="#FFE4E1"/><rect x="18" y="33" width="1" height="1" fill="#FFE4E1"/><rect x="19" y="28" width="1" height="1" fill="#FFE4E1"/><rect x="19" y="29" width="1" height="1" fill="#FFE4E1"/><rect x="19" y="30" width="1" height="1" fill="#FFE4E1"/><rect x="19" y="31" width="1" height="1" fill="#FFE4E1"/><rect x="19" y="32" width="1" height="1" fill="#FFE4E1"/><rect x="20" y="30" width="1" height="1" fill="#FFE4E1"/><rect x="18" y="30" width="1" height="1" fill="#FFCCD5"/><rect x="19" y="29" width="1" height="1" fill="#FFCCD5"/><rect x="19" y="30" width="1" height="1" fill="#FFCCD5"/><rect x="19" y="31" width="1" height="1" fill="#FFCCD5"/><rect x="20" y="28" width="1" height="1" fill="#FFCCD5"/><rect x="20" y="29" width="1" height="1" fill="#FFCCD5"/><rect x="20" y="30" width="1" height="1" fill="#FFCCD5"/><rect x="20" y="31" width="1" height="1" fill="#FFCCD5"/><rect x="20" y="32" width="1" height="1" fill="#FFCCD5"/><rect x="21" y="29" width="1" height="1" fill="#FFCCD5"/><rect x="21" y="30" width="1" height="1" fill="#FFCCD5"/><rect x="21" y="31" width="1" height="1" fill="#FFCCD5"/><rect x="22" y="30" width="1" height="1" fill="#FFCCD5"/><rect x="16" y="33" width="1" height="1" fill="#FFCCD5"/><rect x="17" y="32" width="1" height="1" fill="#FFCCD5"/><rect x="17" y="33" width="1" height="1" fill="#FFCCD5"/><rect x="17" y="34" width="1" height="1" fill="#FFCCD5"/><rect x="18" y="31" width="1" height="1" fill="#FFCCD5"/><rect x="18" y="32" width="1" height="1" fill="#FFCCD5"/><rect x="18" y="33" width="1" height="1" fill="#FFCCD5"/><rect x="18" y="34" width="1" height="1" fill="#FFCCD5"/><rect x="18" y="35" width="1" height="1" fill="#FFCCD5"/><rect x="19" y="32" width="1" height="1" fill="#FFCCD5"/><rect x="19" y="33" width="1" height="1" fill="#FFCCD5"/><rect x="19" y="34" width="1" height="1" fill="#FFCCD5"/><rect x="20" y="33" width="1" height="1" fill="#FFCCD5"/><rect x="12" y="33" width="1" height="1" fill="#FFCCD5"/><rect x="13" y="32" width="1" height="1" fill="#FFCCD5"/><rect x="13" y="33" width="1" height="1" fill="#FFCCD5"/><rect x="13" y="34" width="1" height="1" fill="#FFCCD5"/><rect x="14" y="31" width="1" height="1" fill="#FFCCD5"/><rect x="14" y="32" width="1" height="1" fill="#FFCCD5"/><rect x="14" y="33" width="1" height="1" fill="#FFCCD5"/><rect x="14" y="34" width="1" height="1" fill="#FFCCD5"/><rect x="14" y="35" width="1" height="1" fill="#FFCCD5"/><rect x="15" y="32" width="1" height="1" fill="#FFCCD5"/><rect x="15" y="33" width="1" height="1" fill="#FFCCD5"/><rect x="15" y="34" width="1" height="1" fill="#FFCCD5"/><rect x="16" y="33" width="1" height="1" fill="#FFCCD5"/><rect x="10" y="30" width="1" height="1" fill="#FFCCD5"/><rect x="11" y="29" width="1" height="1" fill="#FFCCD5"/><rect x="11" y="30" width="1" height="1" fill="#FFCCD5"/><rect x="11" y="31" width="1" height="1" fill="#FFCCD5"/><rect x="12" y="28" width="1" height="1" fill="#FFCCD5"/><rect x="12" y="29" width="1" height="1" fill="#FFCCD5"/><rect x="12" y="30" width="1" height="1" fill="#FFCCD5"/><rect x="12" y="31" width="1" height="1" fill="#FFCCD5"/><rect x="12" y="32" width="1" height="1" fill="#FFCCD5"/><rect x="13" y="29" width="1" height="1" fill="#FFCCD5"/><rect x="13" y="30" width="1" height="1" fill="#FFCCD5"/><rect x="13" y="31" width="1" height="1" fill="#FFCCD5"/><rect x="14" y="30" width="1" height="1" fill="#FFCCD5"/><rect x="12" y="27" width="1" height="1" fill="#FFCCD5"/><rect x="13" y="26" width="1" height="1" fill="#FFCCD5"/><rect x="13" y="27" width="1" height="1" fill="#FFCCD5"/><rect x="13" y="28" width="1" height="1" fill="#FFCCD5"/><rect x="14" y="25" width="1" height="1" fill="#FFCCD5"/><rect x="14" y="26" width="1" height="1" fill="#FFCCD5"/><rect x="14" y="27" width="1" height="1" fill="#FFCCD5"/><rect x="14" y="28" width="1" height="1" fill="#FFCCD5"/><rect x="14" y="29" width="1" height="1" fill="#FFCCD5"/><rect x="15" y="26" width="1" height="1" fill="#FFCCD5"/><rect x="15" y="27" width="1" height="1" fill="#FFCCD5"/><rect x="15" y="28" width="1" height="1" fill="#FFCCD5"/><rect x="16" y="27" width="1" height="1" fill="#FFCCD5"/><rect x="16" y="27" width="1" height="1" fill="#FFCCD5"/><rect x="17" y="26" width="1" height="1" fill="#FFCCD5"/><rect x="17" y="27" width="1" height="1" fill="#FFCCD5"/><rect x="17" y="28" width="1" height="1" fill="#FFCCD5"/><rect x="18" y="25" width="1" height="1" fill="#FFCCD5"/><rect x="18" y="26" width="1" height="1" fill="#FFCCD5"/><rect x="18" y="27" width="1" height="1" fill="#FFCCD5"/><rect x="18" y="28" width="1" height="1" fill="#FFCCD5"/><rect x="18" y="29" width="1" height="1" fill="#FFCCD5"/><rect x="19" y="26" width="1" height="1" fill="#FFCCD5"/><rect x="19" y="27" width="1" height="1" fill="#FFCCD5"/><rect x="19" y="28" width="1" height="1" fill="#FFCCD5"/><rect x="20" y="27" width="1" height="1" fill="#FFCCD5"/><rect x="13" y="30" width="1" height="1" fill="#FFCCD5"/><rect x="14" y="28" width="1" height="1" fill="#FFCCD5"/><rect x="14" y="29" width="1" height="1" fill="#FFCCD5"/><rect x="14" y="30" width="1" height="1" fill="#FFCCD5"/><rect x="14" y="31" width="1" height="1" fill="#FFCCD5"/><rect x="14" y="32" width="1" height="1" fill="#FFCCD5"/><rect x="15" y="28" width="1" height="1" fill="#FFCCD5"/><rect x="15" y="29" width="1" height="1" fill="#FFCCD5"/><rect x="15" y="30" width="1" height="1" fill="#FFCCD5"/><rect x="15" y="31" width="1" height="1" fill="#FFCCD5"/><rect x="15" y="32" width="1" height="1" fill="#FFCCD5"/><rect x="16" y="27" width="1" height="1" fill="#FFCCD5"/><rect x="16" y="28" width="1" height="1" fill="#FFCCD5"/><rect x="16" y="29" width="1" height="1" fill="#FFCCD5"/><rect x="16" y="30" width="1" height="1" fill="#FFCCD5"/><rect x="16" y="31" width="1" height="1" fill="#FFCCD5"/><rect x="16" y="32" width="1" height="1" fill="#FFCCD5"/><rect x="16" y="33" width="1" height="1" fill="#FFCCD5"/><rect x="17" y="28" width="1" height="1" fill="#FFCCD5"/><rect x="17" y="29" width="1" height="1" fill="#FFCCD5"/><rect x="17" y="30" width="1" height="1" fill="#FFCCD5"/><rect x="17" y="31" width="1" height="1" fill="#FFCCD5"/><rect x="17" y="32" width="1" height="1" fill="#FFCCD5"/><rect x="18" y="28" width="1" height="1" fill="#FFCCD5"/><rect x="18" y="29" width="1" height="1" fill="#FFCCD5"/><rect x="18" y="30" width="1" height="1" fill="#FFCCD5"/><rect x="18" y="31" width="1" height="1" fill="#FFCCD5"/><rect x="18" y="32" width="1" height="1" fill="#FFCCD5"/><rect x="19" y="30" width="1" height="1" fill="#FFCCD5"/><rect x="17" y="30" width="1" height="1" fill="#FFD1DC"/><rect x="18" y="29" width="1" height="1" fill="#FFD1DC"/><rect x="18" y="30" width="1" height="1" fill="#FFD1DC"/><rect x="18" y="31" width="1" height="1" fill="#FFD1DC"/><rect x="19" y="28" width="1" height="1" fill="#FFD1DC"/><rect x="19" y="29" width="1" height="1" fill="#FFD1DC"/><rect x="19" y="30" width="1" height="1" fill="#FFD1DC"/><rect x="19" y="31" width="1" height="1" fill="#FFD1DC"/><rect x="19" y="32" width="1" height="1" fill="#FFD1DC"/><rect x="20" y="29" width="1" height="1" fill="#FFD1DC"/><rect x="20" y="30" width="1" height="1" fill="#FFD1DC"/><rect x="20" y="31" width="1" height="1" fill="#FFD1DC"/><rect x="21" y="30" width="1" height="1" fill="#FFD1DC"/><rect x="16" y="33" width="1" height="1" fill="#FFD1DC"/><rect x="17" y="32" width="1" height="1" fill="#FFD1DC"/><rect x="17" y="33" width="1" height="1" fill="#FFD1DC"/><rect x="17" y="34" width="1" height="1" fill="#FFD1DC"/><rect x="18" y="31" width="1" height="1" fill="#FFD1DC"/><rect x="18" y="32" width="1" height="1" fill="#FFD1DC"/><rect x="18" y="33" width="1" height="1" fill="#FFD1DC"/><rect x="18" y="34" width="1" height="1" fill="#FFD1DC"/><rect x="18" y="35" width="1" height="1" fill="#FFD1DC"/><rect x="19" y="32" width="1" height="1" fill="#FFD1DC"/><rect x="19" y="33" width="1" height="1" fill="#FFD1DC"/><rect x="19" y="34" width="1" height="1" fill="#FFD1DC"/><rect x="20" y="33" width="1" height="1" fill="#FFD1DC"/><rect x="13" y="33" width="1" height="1" fill="#FFD1DC"/><rect x="14" y="32" width="1" height="1" fill="#FFD1DC"/><rect x="14" y="33" width="1" height="1" fill="#FFD1DC"/><rect x="14" y="34" width="1" height="1" fill="#FFD1DC"/><rect x="15" y="31" width="1" height="1" fill="#FFD1DC"/><rect x="15" y="32" width="1" height="1" fill="#FFD1DC"/><rect x="15" y="33" width="1" height="1" fill="#FFD1DC"/><rect x="15" y="34" width="1" height="1" fill="#FFD1DC"/><rect x="15" y="35" width="1" height="1" fill="#FFD1DC"/><rect x="16" y="32" width="1" height="1" fill="#FFD1DC"/><rect x="16" y="33" width="1" height="1" fill="#FFD1DC"/><rect x="16" y="34" width="1" height="1" fill="#FFD1DC"/><rect x="17" y="33" width="1" height="1" fill="#FFD1DC"/><rect x="11" y="30" width="1" height="1" fill="#FFD1DC"/><rect x="12" y="29" width="1" height="1" fill="#FFD1DC"/><rect x="12" y="30" width="1" height="1" fill="#FFD1DC"/><rect x="12" y="31" width="1" height="1" fill="#FFD1DC"/><rect x="13" y="28" width="1" height="1" fill="#FFD1DC"/><rect x="13" y="29" width="1" height="1" fill="#FFD1DC"/><rect x="13" y="30" width="1" height="1" fill="#FFD1DC"/><rect x="13" y="31" width="1" height="1" fill="#FFD1DC"/><rect x="13" y="32" width="1" height="1" fill="#FFD1DC"/><rect x="14" y="29" width="1" height="1" fill="#FFD1DC"/><rect x="14" y="30" width="1" height="1" fill="#FFD1DC"/><rect x="14" y="31" width="1" height="1" fill="#FFD1DC"/><rect x="15" y="30" width="1" height="1" fill="#FFD1DC"/><rect x="12" y="27" width="1" height="1" fill="#FFD1DC"/><rect x="13" y="26" width="1" height="1" fill="#FFD1DC"/><rect x="13" y="27" width="1" height="1" fill="#FFD1DC"/><rect x="13" y="28" width="1" height="1" fill="#FFD1DC"/><rect x="14" y="25" width="1" height="1" fill="#FFD1DC"/><rect x="14" y="26" width="1" height="1" fill="#FFD1DC"/><rect x="14" y="27" width="1" height="1" fill="#FFD1DC"/><rect x="14" y="28" width="1" height="1" fill="#FFD1DC"/><rect x="14" y="29" width="1" height="1" fill="#FFD1DC"/><rect x="15" y="26" width="1" height="1" fill="#FFD1DC"/><rect x="15" y="27" width="1" height="1" fill="#FFD1DC"/><rect x="15" y="28" width="1" height="1" fill="#FFD1DC"/><rect x="16" y="27" width="1" height="1" fill="#FFD1DC"/><rect x="16" y="27" width="1" height="1" fill="#FFD1DC"/><rect x="17" y="26" width="1" height="1" fill="#FFD1DC"/><rect x="17" y="27" width="1" height="1" fill="#FFD1DC"/><rect x="17" y="28" width="1" height="1" fill="#FFD1DC"/><rect x="18" y="25" width="1" height="1" fill="#FFD1DC"/><rect x="18" y="26" width="1" height="1" fill="#FFD1DC"/><rect x="18" y="27" width="1" height="1" fill="#FFD1DC"/><rect x="18" y="28" width="1" height="1" fill="#FFD1DC"/><rect x="18" y="29" width="1" height="1" fill="#FFD1DC"/><rect x="19" y="26" width="1" height="1" fill="#FFD1DC"/><rect x="19" y="27" width="1" height="1" fill="#FFD1DC"/><rect x="19" y="28" width="1" height="1" fill="#FFD1DC"/><rect x="20" y="27" width="1" height="1" fill="#FFD1DC"/><rect x="14" y="30" width="1" height="1" fill="#FFD1DC"/><rect x="15" y="29" width="1" height="1" fill="#FFD1DC"/><rect x="15" y="30" width="1" height="1" fill="#FFD1DC"/><rect x="15" y="31" width="1" height="1" fill="#FFD1DC"/><rect x="16" y="28" width="1" height="1" fill="#FFD1DC"/><rect x="16" y="29" width="1" height="1" fill="#FFD1DC"/><rect x="16" y="30" width="1" height="1" fill="#FFD1DC"/><rect x="16" y="31" width="1" height="1" fill="#FFD1DC"/><rect x="16" y="32" width="1" height="1" fill="#FFD1DC"/><rect x="17" y="29" width="1" height="1" fill="#FFD1DC"/><rect x="17" y="30" width="1" height="1" fill="#FFD1DC"/><rect x="17" y="31" width="1" height="1" fill="#FFD1DC"/><rect x="18" y="30" width="1" height="1" fill="#FFD1DC"/><rect x="16" y="30" width="1" height="1" fill="#FF69B4"/><rect x="17" y="29" width="1" height="1" fill="#FF69B4"/><rect x="17" y="30" width="1" height="1" fill="#FF69B4"/><rect x="17" y="31" width="1" height="1" fill="#FF69B4"/><rect x="18" y="28" width="1" height="1" fill="#FF69B4"/><rect x="18" y="29" width="1" height="1" fill="#FF69B4"/><rect x="18" y="30" width="1" height="1" fill="#FF69B4"/><rect x="18" y="31" width="1" height="1" fill="#FF69B4"/><rect x="18" y="32" width="1" height="1" fill="#FF69B4"/><rect x="19" y="29" width="1" height="1" fill="#FF69B4"/><rect x="19" y="30" width="1" height="1" fill="#FF69B4"/><rect x="19" y="31" width="1" height="1" fill="#FF69B4"/><rect x="20" y="30" width="1" height="1" fill="#FF69B4"/><rect x="15" y="32" width="1" height="1" fill="#FF69B4"/><rect x="16" y="31" width="1" height="1" fill="#FF69B4"/><rect x="16" y="32" width="1" height="1" fill="#FF69B4"/><rect x="16" y="33" width="1" height="1" fill="#FF69B4"/><rect x="17" y="30" width="1" height="1" fill="#FF69B4"/><rect x="17" y="31" width="1" height="1" fill="#FF69B4"/><rect x="17" y="32" width="1" height="1" fill="#FF69B4"/><rect x="17" y="33" width="1" height="1" fill="#FF69B4"/><rect x="17" y="34" width="1" height="1" fill="#FF69B4"/><rect x="18" y="31" width="1" height="1" fill="#FF69B4"/><rect x="18" y="32" width="1" height="1" fill="#FF69B4"/><rect x="18" y="33" width="1" height="1" fill="#FF69B4"/><rect x="19" y="32" width="1" height="1" fill="#FF69B4"/><rect x="13" y="32" width="1" height="1" fill="#FF69B4"/><rect x="14" y="31" width="1" height="1" fill="#FF69B4"/><rect x="14" y="32" width="1" height="1" fill="#FF69B4"/><rect x="14" y="33" width="1" height="1" fill="#FF69B4"/><rect x="15" y="30" width="1" height="1" fill="#FF69B4"/><rect x="15" y="31" width="1" height="1" fill="#FF69B4"/><rect x="15" y="32" width="1" height="1" fill="#FF69B4"/><rect x="15" y="33" width="1" height="1" fill="#FF69B4"/><rect x="15" y="34" width="1" height="1" fill="#FF69B4"/><rect x="16" y="31" width="1" height="1" fill="#FF69B4"/><rect x="16" y="32" width="1" height="1" fill="#FF69B4"/><rect x="16" y="33" width="1" height="1" fill="#FF69B4"/><rect x="17" y="32" width="1" height="1" fill="#FF69B4"/><rect x="12" y="30" width="1" height="1" fill="#FF69B4"/><rect x="13" y="29" width="1" height="1" fill="#FF69B4"/><rect x="13" y="30" width="1" height="1" fill="#FF69B4"/><rect x="13" y="31" width="1" height="1" fill="#FF69B4"/><rect x="14" y="28" width="1" height="1" fill="#FF69B4"/><rect x="14" y="29" width="1" height="1" fill="#FF69B4"/><rect x="14" y="30" width="1" height="1" fill="#FF69B4"/><rect x="14" y="31" width="1" height="1" fill="#FF69B4"/><rect x="14" y="32" width="1" height="1" fill="#FF69B4"/><rect x="15" y="29" width="1" height="1" fill="#FF69B4"/><rect x="15" y="30" width="1" height="1" fill="#FF69B4"/><rect x="15" y="31" width="1" height="1" fill="#FF69B4"/><rect x="16" y="30" width="1" height="1" fill="#FF69B4"/><rect x="13" y="28" width="1" height="1" fill="#FF69B4"/><rect x="14" y="27" width="1" height="1" fill="#FF69B4"/><rect x="14" y="28" width="1" height="1" fill="#FF69B4"/><rect x="14" y="29" width="1" height="1" fill="#FF69B4"/><rect x="15" y="26" width="1" height="1" fill="#FF69B4"/><rect x="15" y="27" width="1" height="1" fill="#FF69B4"/><rect x="15" y="28" width="1" height="1" fill="#FF69B4"/><rect x="15" y="29" width="1" height="1" fill="#FF69B4"/><rect x="15" y="30" width="1" height="1" fill="#FF69B4"/><rect x="16" y="27" width="1" height="1" fill="#FF69B4"/><rect x="16" y="28" width="1" height="1" fill="#FF69B4"/><rect x="16" y="29" width="1" height="1" fill="#FF69B4"/><rect x="17" y="28" width="1" height="1" fill="#FF69B4"/><rect x="15" y="28" width="1" height="1" fill="#FF69B4"/><rect x="16" y="27" width="1" height="1" fill="#FF69B4"/><rect x="16" y="28" width="1" height="1" fill="#FF69B4"/><rect x="16" y="29" width="1" height="1" fill="#FF69B4"/><rect x="17" y="26" width="1" height="1" fill="#FF69B4"/><rect x="17" y="27" width="1" height="1" fill="#FF69B4"/><rect x="17" y="28" width="1" height="1" fill="#FF69B4"/><rect x="17" y="29" width="1" height="1" fill="#FF69B4"/><rect x="17" y="30" width="1" height="1" fill="#FF69B4"/><rect x="18" y="27" width="1" height="1" fill="#FF69B4"/><rect x="18" y="28" width="1" height="1" fill="#FF69B4"/><rect x="18" y="29" width="1" height="1" fill="#FF69B4"/><rect x="19" y="28" width="1" height="1" fill="#FF69B4"/></g></svg>